{"glyphs":{"0":{"ha":783,"x_min":103,"x_max":684,"o":"m 103 353 q 185 604 103 494 q 400 714 267 714 q 607 612 531 714 q 684 372 684 509 q 604 105 684 216 q 383 -5 524 -5 q 178 100 254 -5 q 103 353 103 205 m 161 363 q 229 132 161 224 q 397 40 296 40 q 567 133 508 40 q 625 361 625 225 q 562 573 625 477 q 387 668 498 668 q 220 573 279 668 q 161 363 161 477 z "},"1":{"ha":509,"x_min":62,"x_max":345,"o":"m 283 635 l 87 510 l 62 547 l 311 728 l 345 728 q 338 313 338 553 q 345 0 338 141 l 279 0 q 289 313 289 105 q 283 635 289 596 z "},"2":{"ha":618,"x_min":68,"x_max":549,"o":"m 68 0 l 82 56 l 110 77 q 254 193 185 133 q 380 337 323 254 q 437 504 437 420 q 384 624 437 581 q 233 667 331 667 q 146 662 195 667 q 78 652 97 658 l 93 710 q 152 719 113 715 q 233 722 191 722 q 425 668 353 722 q 497 521 497 613 q 398 275 497 387 q 140 46 300 163 l 140 45 q 549 53 376 45 l 536 0 l 68 0 z "},"3":{"ha":696,"x_min":53,"x_max":593,"o":"m 554 542 q 516 415 554 464 q 389 338 477 366 l 389 335 q 536 259 479 314 q 593 106 593 203 q 439 -150 593 -47 q 74 -265 286 -253 l 53 -211 q 398 -122 265 -199 q 532 86 532 -45 q 500 209 532 164 q 405 277 469 254 q 165 301 340 301 l 176 353 q 350 370 271 353 q 462 428 429 387 q 496 521 496 469 q 449 631 496 597 q 294 665 401 665 q 100 643 186 665 l 104 701 q 304 722 187 722 q 485 675 416 722 q 554 542 554 629 z "},"4":{"ha":734,"x_min":61,"x_max":673,"o":"m 543 119 l 543 -28 q 546 -224 543 -132 l 481 -224 q 489 119 489 -96 l 74 119 l 61 155 q 105 225 61 165 q 229 391 149 285 l 258 429 q 370 576 270 446 q 469 715 469 707 l 549 715 q 545 497 546 679 q 543 167 543 315 q 673 175 607 167 l 661 119 l 543 119 m 306 416 q 204 282 288 393 q 119 165 119 172 l 119 163 q 489 167 300 163 q 492 664 489 496 l 488 664 q 456 617 482 654 q 347 471 430 581 l 306 416 z "},"5":{"ha":707,"x_min":102,"x_max":607,"o":"m 199 669 q 178 489 186 562 q 171 371 171 415 q 506 308 406 368 q 607 114 607 248 q 541 -67 607 16 q 360 -198 474 -151 q 118 -249 245 -245 l 102 -200 q 421 -111 296 -190 q 546 93 546 -32 q 499 234 546 186 q 365 297 453 281 q 111 314 277 314 q 146 715 146 606 l 536 715 l 533 654 q 199 669 376 669 z "},"6":{"ha":798,"x_min":103,"x_max":696,"o":"m 163 441 q 268 520 199 491 q 411 550 337 550 q 624 476 552 550 q 696 262 696 401 q 611 51 696 133 q 393 -31 526 -31 q 182 76 261 -31 q 103 354 103 183 q 553 911 103 876 l 559 864 q 278 746 374 848 q 160 441 182 645 l 163 441 m 637 249 q 573 432 637 365 q 395 500 508 500 q 264 468 334 500 q 163 387 195 435 q 224 122 163 227 q 407 17 286 17 q 574 83 510 17 q 637 249 637 149 z "},"7":{"ha":668,"x_min":61,"x_max":593,"o":"m 288 -28 l 253 -90 q 200 -185 215 -157 q 184 -224 184 -214 l 119 -210 q 146 -146 119 -195 q 235 5 173 -97 l 275 70 q 438 382 357 208 q 526 660 519 557 q 61 654 283 660 l 62 715 l 593 715 q 528 460 593 629 q 288 -28 464 291 z "},"8":{"ha":783,"x_min":103,"x_max":684,"o":"m 387 -11 q 186 60 269 -11 q 103 243 103 130 q 162 389 103 318 q 322 504 222 460 l 322 507 q 196 608 235 558 q 157 726 157 659 q 223 870 157 814 q 393 926 290 926 q 564 876 501 926 q 627 734 627 825 q 586 612 627 671 q 460 511 545 553 l 460 509 q 626 382 569 448 q 684 250 684 317 q 598 63 684 136 q 387 -11 513 -11 m 392 879 q 267 843 318 879 q 216 745 216 807 q 264 629 216 684 q 404 533 313 574 q 527 619 482 570 q 571 736 571 668 q 524 838 571 798 q 392 879 477 879 m 397 36 q 552 90 481 36 q 624 224 624 143 q 568 353 624 294 q 375 482 512 412 q 229 384 296 456 q 161 241 161 313 q 228 92 161 149 q 397 36 294 36 z "},"9":{"ha":787,"x_min":103,"x_max":690,"o":"m 631 248 q 530 170 593 197 q 393 142 467 142 q 177 216 250 142 q 103 429 103 291 q 185 642 103 561 q 399 722 267 722 q 611 612 532 722 q 690 335 690 501 q 569 -108 690 41 q 215 -275 448 -257 l 196 -228 q 505 -94 397 -210 q 633 248 614 22 l 631 248 m 161 443 q 226 259 161 326 q 404 192 291 192 q 532 222 467 192 q 631 301 597 253 q 567 571 631 467 q 392 675 503 675 q 227 609 292 675 q 161 443 161 544 z "},"\u0000":{"ha":0,"x_min":0,"x_max":0,"o":""},"\r":{"ha":301,"x_min":0,"x_max":0,"o":""}," ":{"ha":301,"x_min":0,"x_max":0,"o":""},"!":{"ha":350,"x_min":111,"x_max":239,"o":"m 155 542 l 149 693 q 146 811 146 767 q 156 869 146 848 q 187 890 166 890 q 227 822 227 890 q 209 577 227 741 q 186 364 191 413 l 163 364 q 155 542 161 431 m 111 65 q 131 119 111 99 q 182 139 150 139 q 226 122 214 139 q 239 77 239 105 q 219 24 239 46 q 168 1 199 1 q 125 20 138 1 q 111 65 111 39 z "},"\"":{"ha":621,"x_min":140,"x_max":480,"o":"m 386 872 q 398 942 386 920 q 435 964 410 964 q 471 936 461 964 q 480 856 480 909 q 476 788 480 823 q 460 663 473 752 l 435 476 l 415 476 q 396 694 407 590 q 386 872 386 799 m 140 872 q 152 942 140 920 q 189 964 164 964 q 225 936 216 964 q 235 856 235 909 q 231 788 235 823 q 214 663 227 752 l 189 476 l 170 476 q 151 694 161 590 q 140 872 140 799 z "},"#":{"ha":700,"x_min":52,"x_max":648,"o":"m 536 621 l 648 621 l 646 581 l 522 581 l 453 364 l 567 364 l 568 322 l 439 322 q 378 143 422 269 q 332 0 334 17 l 283 0 q 293 30 283 5 l 307 66 q 396 322 351 187 l 207 322 q 146 143 190 269 q 100 0 102 17 l 52 0 q 61 30 52 5 l 75 66 q 164 322 119 187 l 52 322 l 54 364 l 178 364 l 248 581 l 134 581 l 134 621 l 261 621 l 282 684 q 329 828 317 785 q 343 888 342 870 l 395 888 q 365 795 393 876 q 304 621 336 715 l 493 621 q 570 888 566 840 l 627 888 q 596 795 625 876 q 536 621 568 715 m 410 364 l 479 581 l 290 581 l 221 364 l 410 364 z "},"$":{"ha":616,"x_min":98,"x_max":528,"o":"m 161 524 q 194 443 161 473 q 340 375 227 412 q 491 302 454 338 q 528 205 528 266 q 482 73 528 121 q 349 16 436 25 q 354 -186 349 -58 l 297 -186 l 299 -138 q 302 -35 302 -81 q 301 14 302 -19 q 98 45 205 14 l 115 100 q 212 70 161 81 q 310 60 262 60 q 440 93 395 60 q 485 192 485 125 q 450 267 485 237 q 307 330 416 296 q 155 406 198 364 q 111 509 111 447 q 161 629 111 586 q 302 684 211 673 q 297 895 302 819 l 354 895 q 350 809 351 855 q 349 684 349 764 q 507 664 420 682 l 486 608 q 412 630 448 623 q 319 637 375 637 q 201 610 241 637 q 161 524 161 582 z "},"%":{"ha":700,"x_min":41,"x_max":657,"o":"m 41 724 q 89 841 41 795 q 211 888 136 888 q 334 842 288 888 q 380 724 380 795 q 333 606 380 653 q 211 559 286 559 q 88 606 134 559 q 41 724 41 652 m 102 0 l 41 7 q 316 440 41 70 q 591 884 591 811 l 652 876 q 377 450 652 819 q 102 0 102 81 m 94 722 q 125 635 94 669 q 210 602 156 602 q 296 636 265 602 q 326 722 326 670 q 294 810 326 777 q 210 844 262 844 q 126 810 159 844 q 94 722 94 775 m 318 157 q 366 275 318 229 q 488 321 413 321 q 611 275 564 321 q 657 157 657 229 q 610 40 657 86 q 488 -7 563 -7 q 365 39 412 -7 q 318 157 318 84 m 371 155 q 401 68 371 102 q 486 35 432 35 q 572 69 541 35 q 603 155 603 103 q 571 244 603 210 q 486 278 538 278 q 404 243 436 278 q 371 155 371 209 z "},"&":{"ha":933,"x_min":78,"x_max":905,"o":"m 836 0 q 704 199 812 68 q 551 39 640 98 q 347 -20 463 -20 q 161 53 245 -20 q 78 236 78 125 q 98 353 78 304 q 159 442 119 402 q 302 536 199 482 q 193 641 218 601 q 168 724 168 680 q 222 849 168 802 q 358 897 276 897 q 504 853 448 897 q 561 739 561 808 q 517 628 561 673 q 389 539 473 583 q 530 430 420 514 q 697 288 640 347 q 746 517 741 382 l 817 517 q 734 249 797 365 q 905 0 882 83 l 836 0 m 355 564 q 466 644 429 606 q 503 729 503 681 q 463 817 503 787 q 361 846 423 846 q 265 819 306 846 q 224 733 224 791 q 243 667 224 699 q 339 576 262 636 l 355 564 m 671 236 q 562 337 624 286 q 400 463 500 387 l 336 511 q 205 422 241 458 q 151 342 169 385 q 134 239 134 298 q 201 90 134 149 q 354 32 269 32 q 539 86 463 32 q 671 236 615 141 z "},"'":{"ha":325,"x_min":115,"x_max":210,"o":"m 115 872 q 127 942 115 920 q 164 964 139 964 q 200 936 191 964 q 210 856 210 909 q 206 788 210 823 q 189 663 202 752 l 164 476 l 144 476 q 126 694 136 590 q 115 872 115 799 z "},"(":{"ha":490,"x_min":61,"x_max":431,"o":"m 431 1017 q 195 720 273 887 q 118 347 118 553 q 195 -26 118 141 q 431 -322 273 -193 l 407 -338 q 149 -57 237 -231 q 61 347 61 117 q 149 752 61 578 q 407 1032 237 926 l 431 1017 z "},")":{"ha":490,"x_min":60,"x_max":429,"o":"m 60 -322 q 295 -26 218 -193 q 372 347 372 141 q 295 720 372 553 q 60 1017 218 887 l 83 1032 q 341 752 253 926 q 429 347 429 578 q 341 -57 429 117 q 83 -338 253 -231 l 60 -322 z "},"*":{"ha":700,"x_min":89,"x_max":611,"o":"m 423 685 l 392 682 l 387 661 q 469 575 422 630 q 515 486 515 521 q 495 447 515 461 q 456 433 476 433 q 406 463 428 433 q 355 639 385 492 l 334 637 q 272 499 310 566 q 194 431 234 431 q 157 447 174 431 q 140 485 140 463 q 195 573 140 523 q 309 664 251 623 l 309 686 q 238 691 283 686 q 141 705 194 695 q 89 756 89 714 q 102 803 89 781 q 140 824 116 824 q 192 806 160 824 q 300 729 223 788 l 323 711 l 335 717 q 309 815 319 769 q 298 905 298 861 q 310 956 298 939 q 355 974 321 974 q 401 960 388 974 q 415 920 415 946 q 400 834 415 890 q 363 717 385 779 l 376 711 q 469 777 415 736 q 555 817 523 817 q 596 797 581 817 q 611 752 611 777 q 561 701 611 709 q 423 685 510 692 z "},"+":{"ha":700,"x_min":72,"x_max":628,"o":"m 628 317 l 378 317 l 378 50 l 325 50 l 325 317 l 72 317 l 72 367 l 325 367 l 325 633 l 378 633 l 378 367 l 628 367 l 628 317 z "},",":{"ha":350,"x_min":64,"x_max":227,"o":"m 176 7 q 125 24 144 7 q 107 69 107 41 q 125 120 107 103 q 168 138 143 138 q 210 117 194 138 q 227 61 227 96 q 194 -74 227 -13 q 82 -203 161 -134 l 64 -178 q 141 -91 112 -134 q 176 7 170 -48 z "},"-":{"ha":350,"x_min":26,"x_max":325,"o":"m 325 379 l 317 325 l 26 317 l 32 367 l 325 379 z "},".":{"ha":350,"x_min":111,"x_max":239,"o":"m 111 65 q 131 119 111 99 q 182 139 150 139 q 226 122 214 139 q 239 77 239 105 q 219 24 239 46 q 168 1 199 1 q 125 20 138 1 q 111 65 111 39 z "},"/":{"ha":371,"x_min":29,"x_max":354,"o":"m 93 -204 l 29 -204 q 157 358 29 -162 q 289 986 286 878 l 354 986 q 311 777 354 956 q 239 482 269 597 q 151 113 210 367 q 93 -204 93 -142 z "},":":{"ha":350,"x_min":111,"x_max":239,"o":"m 111 565 q 131 619 111 599 q 182 639 150 639 q 226 622 214 639 q 239 576 239 605 q 219 524 239 546 q 168 501 199 501 q 125 520 138 501 q 111 565 111 538 m 111 65 q 131 119 111 99 q 182 139 150 139 q 226 122 214 139 q 239 77 239 105 q 219 24 239 46 q 168 1 199 1 q 125 20 138 1 q 111 65 111 39 z "},";":{"ha":350,"x_min":64,"x_max":239,"o":"m 176 7 q 125 24 144 7 q 107 69 107 41 q 125 120 107 103 q 168 138 143 138 q 210 117 194 138 q 227 61 227 96 q 194 -74 227 -13 q 82 -203 161 -134 l 64 -178 q 141 -91 112 -134 q 176 7 170 -48 m 111 565 q 131 619 111 599 q 182 639 150 639 q 226 622 214 639 q 239 576 239 605 q 219 524 239 546 q 168 501 199 501 q 125 520 138 501 q 111 565 111 538 z "},"<":{"ha":700,"x_min":72,"x_max":606,"o":"m 604 66 l 572 24 l 72 343 l 72 366 l 572 685 l 606 644 l 155 361 l 155 346 l 604 66 z "},"=":{"ha":700,"x_min":72,"x_max":628,"o":"m 628 456 l 72 456 l 72 505 l 628 505 l 628 456 m 628 178 l 72 178 l 72 228 l 628 228 l 628 178 z "},">":{"ha":700,"x_min":94,"x_max":629,"o":"m 98 66 l 546 346 l 546 361 l 94 644 l 129 685 l 629 366 l 629 343 l 129 24 l 98 66 z "},"?":{"ha":490,"x_min":40,"x_max":419,"o":"m 224 359 l 197 359 l 178 509 q 361 694 361 531 q 289 812 361 772 q 72 852 217 852 l 40 851 l 60 905 q 324 846 229 905 q 419 689 419 786 q 375 556 419 612 q 237 467 330 500 l 224 359 m 140 65 q 160 119 140 99 q 211 139 179 139 q 255 122 243 139 q 268 77 268 105 q 248 24 268 46 q 197 1 228 1 q 154 20 168 1 q 140 65 140 39 z "},"@":{"ha":1401,"x_min":93,"x_max":1308,"o":"m 882 195 q 916 77 882 125 q 1006 29 951 29 q 1181 145 1112 29 q 1250 467 1250 261 q 1098 808 1250 668 q 732 947 946 947 q 312 764 473 947 q 151 275 151 580 q 298 -115 151 39 q 659 -269 444 -269 q 755 -263 714 -269 q 832 -244 796 -258 l 842 -301 q 661 -322 759 -322 q 255 -152 416 -322 q 93 273 93 19 q 270 795 93 591 q 729 1000 446 1000 q 1142 846 976 1000 q 1308 464 1308 692 q 1226 117 1308 254 q 997 -20 1144 -20 q 886 29 932 -20 q 833 193 839 78 l 832 193 q 726 37 787 94 q 595 -20 664 -20 q 472 47 517 -20 q 427 227 427 114 q 522 554 427 427 q 775 682 616 682 q 842 663 809 682 q 890 614 874 643 l 896 614 l 922 661 l 964 675 q 910 419 935 545 q 884 270 886 294 q 882 195 882 245 m 489 207 q 520 75 489 119 q 604 32 551 32 q 783 197 696 32 q 875 572 870 362 q 834 614 861 597 q 770 631 807 631 q 565 518 641 631 q 489 207 489 405 z "},"A":{"ha":840,"x_min":7,"x_max":833,"o":"m 199 322 q 108 100 136 177 q 79 0 79 22 l 7 0 q 196 431 7 22 q 385 884 385 840 l 461 884 q 647 440 461 844 q 833 0 833 36 l 764 0 q 642 322 764 44 l 199 322 m 422 828 l 416 828 q 215 367 416 808 l 621 367 q 471 709 520 602 q 422 828 422 817 z "},"B":{"ha":798,"x_min":151,"x_max":718,"o":"m 151 0 l 156 142 q 164 465 164 347 q 162 613 164 535 q 157 782 160 692 l 153 884 l 210 884 q 288 886 241 884 l 332 887 q 389 888 358 887 q 590 839 523 888 q 657 694 657 791 q 619 565 657 621 q 519 484 581 510 l 519 479 q 664 415 609 469 q 718 276 718 361 q 612 68 718 141 q 334 -4 507 -4 q 151 0 300 -4 m 211 833 q 214 742 214 821 q 215 504 215 663 q 329 503 243 503 l 358 502 q 522 537 447 502 q 602 679 597 572 q 549 798 602 759 q 383 838 496 838 q 266 836 315 838 q 211 833 216 833 m 215 450 l 214 250 q 218 53 214 122 q 325 45 254 45 q 571 98 479 45 q 663 258 663 152 q 588 404 663 353 q 346 456 513 456 q 267 455 293 456 q 215 450 241 454 z "},"C":{"ha":758,"x_min":79,"x_max":721,"o":"m 79 422 q 142 668 79 559 q 312 836 204 777 q 542 896 419 896 q 605 891 579 896 q 665 876 630 887 l 652 819 q 526 840 574 840 q 246 730 354 840 q 138 440 138 620 q 248 133 138 236 q 558 31 358 31 q 721 60 625 31 l 717 9 q 542 -18 642 -18 q 204 98 328 -18 q 79 422 79 215 z "},"D":{"ha":890,"x_min":151,"x_max":807,"o":"m 279 886 q 354 888 319 888 q 688 780 569 888 q 807 458 807 673 q 681 117 807 245 q 345 -11 555 -11 q 269 -7 325 -11 l 151 0 q 163 465 163 245 q 151 884 163 671 l 189 884 q 242 884 219 884 l 279 886 m 749 443 q 645 745 749 653 q 366 838 541 838 q 214 832 267 838 q 214 653 214 713 l 215 465 l 214 271 q 218 45 214 138 q 274 39 246 41 q 342 37 301 37 q 642 144 536 37 q 749 443 749 251 z "},"E":{"ha":715,"x_min":151,"x_max":675,"o":"m 151 0 l 156 142 q 164 465 164 347 q 158 732 164 589 q 151 884 152 875 l 632 884 l 629 828 q 212 833 479 833 q 215 489 215 683 q 549 497 428 489 l 549 436 q 215 443 387 443 l 215 293 q 218 49 215 147 q 675 60 469 49 l 672 0 l 151 0 z "},"F":{"ha":676,"x_min":151,"x_max":640,"o":"m 636 828 q 212 833 500 833 q 215 469 215 688 q 529 475 410 469 l 529 416 q 402 420 467 420 q 215 421 338 421 q 216 124 215 210 q 222 0 218 38 l 151 0 l 156 142 q 164 465 164 347 q 161 638 164 558 q 154 825 159 718 l 151 884 l 640 884 l 636 828 z "},"G":{"ha":861,"x_min":79,"x_max":757,"o":"m 79 428 q 217 765 79 634 q 566 896 355 896 q 707 875 637 896 l 694 812 q 525 840 580 840 q 244 729 350 840 q 138 449 138 617 q 246 134 138 239 q 561 29 355 29 q 629 33 601 29 q 699 45 658 36 q 693 222 693 100 q 690 312 693 258 l 688 368 l 757 368 q 751 232 754 340 q 748 54 748 123 q 749 12 748 22 q 553 -18 679 -18 q 204 99 328 -18 q 79 428 79 217 z "},"H":{"ha":904,"x_min":151,"x_max":751,"o":"m 682 0 q 689 443 689 271 l 215 443 q 222 0 215 239 l 151 0 q 163 465 163 302 q 151 884 163 654 l 222 884 q 215 486 215 722 l 689 486 q 681 884 689 685 l 751 884 q 741 465 741 668 q 751 0 741 231 l 682 0 z "},"I":{"ha":375,"x_min":151,"x_max":222,"o":"m 151 0 q 163 465 163 302 q 151 884 163 654 l 222 884 q 215 467 215 722 q 222 0 215 239 l 151 0 z "},"J":{"ha":602,"x_min":24,"x_max":454,"o":"m 450 315 q 377 64 450 146 q 158 -18 303 -18 q 24 -4 68 -18 l 31 54 q 144 31 86 31 q 338 95 281 31 q 395 347 395 159 q 383 884 395 688 l 454 884 q 450 544 450 771 l 450 315 z "},"K":{"ha":827,"x_min":151,"x_max":803,"o":"m 509 260 q 342 431 399 389 q 239 473 284 473 l 215 473 q 222 0 215 235 l 151 0 q 160 245 157 140 q 163 465 163 351 q 151 884 163 671 l 222 884 q 215 518 215 743 l 233 518 q 460 690 288 518 q 632 884 632 863 l 714 884 q 677 842 714 875 q 516 683 640 810 q 318 507 392 557 l 318 503 q 420 439 363 492 q 607 237 477 387 q 803 0 803 14 l 726 0 q 653 92 724 6 q 509 260 581 177 z "},"L":{"ha":682,"x_min":151,"x_max":659,"o":"m 211 272 l 212 134 q 211 49 212 75 q 659 56 460 49 l 656 0 l 151 0 q 157 465 157 203 q 156 693 157 588 q 151 884 155 798 l 221 884 q 210 465 210 731 q 211 272 210 390 z "},"M":{"ha":1173,"x_min":122,"x_max":1029,"o":"m 961 0 q 939 468 956 222 q 918 742 921 715 q 913 798 914 769 l 911 798 l 767 456 q 620 87 642 156 q 597 0 597 19 l 549 0 q 476 236 549 39 q 336 623 404 433 q 258 829 268 813 l 254 829 q 218 360 251 654 q 184 0 184 66 l 122 0 q 172 381 133 55 q 211 884 211 707 l 304 884 q 340 770 304 873 q 438 492 376 667 l 488 354 q 558 153 541 206 q 575 82 575 100 l 579 82 q 728 472 579 132 q 878 884 878 811 l 970 884 q 990 510 970 796 q 1019 120 1010 223 l 1029 0 l 961 0 z "},"N":{"ha":933,"x_min":151,"x_max":782,"o":"m 277 793 q 639 262 551 401 q 730 111 726 123 l 733 111 q 726 410 726 262 l 726 593 q 722 884 726 778 l 782 884 q 774 439 774 728 q 775 207 774 308 q 782 0 777 106 l 743 0 q 651 142 742 0 q 489 387 560 283 l 334 614 l 283 688 q 231 764 249 737 q 207 803 214 790 l 204 803 q 210 510 210 642 q 208 334 210 448 l 208 181 q 211 0 208 71 l 151 0 q 163 465 163 262 q 151 884 163 671 l 215 884 q 240 846 215 882 l 277 793 z "},"O":{"ha":960,"x_min":79,"x_max":880,"o":"m 471 -28 q 199 90 318 -28 q 79 429 79 208 q 201 770 79 641 q 488 899 323 899 q 764 778 648 899 q 880 453 880 656 q 759 101 880 231 q 471 -28 637 -28 m 468 852 q 301 795 380 852 q 180 642 222 738 q 138 429 138 546 q 243 124 138 231 q 492 18 349 18 q 721 135 619 18 q 822 440 822 252 q 719 747 822 642 q 468 852 616 852 z "},"P":{"ha":765,"x_min":151,"x_max":707,"o":"m 350 887 q 396 888 371 887 q 622 836 536 888 q 707 673 707 784 q 598 454 707 532 q 321 376 490 376 q 233 378 260 376 l 216 378 q 218 171 216 259 q 225 0 219 82 l 151 0 q 165 465 165 262 q 154 884 165 680 l 236 884 q 314 886 272 884 l 350 887 m 648 660 q 585 796 648 755 q 385 838 522 838 q 214 833 273 838 q 216 427 216 772 q 306 425 236 425 q 559 487 470 425 q 648 660 648 549 z "},"Q":{"ha":960,"x_min":79,"x_max":900,"o":"m 842 -298 q 783 -129 816 -194 q 693 -45 750 -63 q 485 -28 636 -28 q 200 89 321 -28 q 79 418 79 206 q 205 773 79 648 q 489 899 331 899 q 760 781 639 899 q 880 453 880 664 q 813 173 880 281 q 639 11 747 64 l 639 4 q 813 -63 766 4 q 900 -296 861 -131 l 842 -298 m 822 440 q 713 752 822 652 q 468 852 604 852 q 243 741 348 852 q 138 429 138 629 q 248 121 138 224 q 492 18 357 18 q 718 132 614 18 q 822 440 822 245 z "},"R":{"ha":854,"x_min":151,"x_max":781,"o":"m 332 887 q 396 888 372 887 q 608 834 537 888 q 679 675 679 781 q 634 530 679 591 q 510 435 589 469 l 510 431 q 647 307 589 409 q 781 0 705 205 l 720 0 q 624 223 673 124 q 539 352 574 323 q 475 392 505 382 q 347 403 445 403 q 216 401 252 403 q 225 0 216 121 l 151 0 q 162 243 158 138 q 165 465 165 347 q 154 884 165 690 l 233 884 l 332 887 m 364 453 q 549 510 479 453 q 619 661 619 568 q 559 797 619 756 q 358 838 498 838 q 214 833 275 838 q 216 703 216 785 q 216 594 216 633 l 215 454 q 265 453 229 453 l 364 453 z "},"S":{"ha":693,"x_min":81,"x_max":614,"o":"m 144 692 q 160 613 144 642 q 218 554 176 584 q 336 495 260 524 q 468 438 411 467 q 556 375 525 408 q 601 304 588 341 q 614 218 614 267 q 532 40 614 100 q 293 -20 450 -20 q 81 7 170 -20 l 94 71 q 202 40 152 49 q 310 32 253 32 q 498 74 437 32 q 558 212 558 116 q 511 336 558 288 q 330 434 465 385 q 142 537 195 483 q 89 673 89 591 q 164 835 89 774 q 347 896 239 896 q 554 872 469 896 l 541 815 q 434 837 477 830 q 343 843 390 843 q 196 800 248 843 q 144 692 144 757 z "},"T":{"ha":684,"x_min":16,"x_max":671,"o":"m 573 830 q 378 833 424 833 q 371 467 371 675 q 378 0 371 245 l 307 0 q 318 465 318 284 q 316 640 318 561 q 309 833 313 720 q 150 830 255 833 l 16 827 l 16 884 l 671 884 l 668 828 l 573 830 z "},"U":{"ha":982,"x_min":136,"x_max":843,"o":"m 486 -12 q 227 86 306 -12 q 147 396 147 184 q 136 884 147 626 l 207 884 l 205 825 q 200 514 200 572 q 228 213 200 304 q 314 79 255 121 q 488 37 374 37 q 719 150 652 37 q 786 515 786 262 q 782 691 786 568 q 775 884 779 814 l 843 884 q 838 666 840 810 q 836 427 836 521 q 745 100 836 212 q 486 -12 654 -12 z "},"V":{"ha":743,"x_min":7,"x_max":734,"o":"m 547 443 q 437 168 485 303 q 390 0 390 33 l 330 0 q 251 267 330 58 q 90 663 172 477 q 7 884 7 850 l 78 884 q 216 499 78 834 q 363 79 355 163 l 366 79 q 396 196 366 112 q 515 489 427 280 l 559 593 q 647 804 624 745 q 671 884 671 864 l 734 884 q 712 811 734 865 q 629 623 690 758 l 547 443 z "},"W":{"ha":1189,"x_min":8,"x_max":1181,"o":"m 1181 884 q 1106 664 1181 860 q 965 257 1031 467 q 900 0 900 47 l 840 0 q 770 272 840 38 q 600 804 701 507 l 593 804 q 498 534 572 739 q 383 182 425 330 q 340 0 340 34 l 281 0 q 250 138 281 26 q 168 414 219 249 q 87 655 116 580 q 50 757 59 730 l 33 806 q 18 846 28 817 q 8 884 8 876 l 79 884 q 191 511 79 855 q 310 78 302 167 l 313 78 q 435 491 314 138 q 557 884 557 845 l 637 884 q 749 514 637 859 q 869 78 861 169 l 872 78 q 995 492 873 136 q 1117 884 1117 847 l 1181 884 z "},"X":{"ha":736,"x_min":7,"x_max":729,"o":"m 653 0 q 595 125 653 28 q 370 443 538 222 l 366 443 l 309 368 q 141 123 198 221 q 85 0 85 25 l 7 0 q 119 176 7 16 q 235 341 231 336 l 336 482 l 336 489 l 313 520 q 133 771 203 670 q 64 884 64 871 l 140 884 q 168 826 140 873 q 240 713 195 779 l 265 677 q 370 532 328 587 l 376 532 q 405 570 391 552 l 429 602 q 570 804 531 738 q 608 884 608 870 l 693 884 q 653 827 693 874 q 559 705 613 779 l 545 684 q 492 609 534 669 q 406 492 449 548 l 406 486 q 622 183 514 340 q 729 0 729 26 l 653 0 z "},"Y":{"ha":765,"x_min":24,"x_max":742,"o":"m 404 278 q 410 0 404 148 l 339 0 l 340 16 q 347 279 347 222 q 266 520 347 391 q 104 761 184 650 q 24 884 24 871 l 98 884 q 230 675 98 866 q 380 370 361 485 l 386 370 q 426 493 387 417 q 522 651 465 568 q 627 805 578 734 q 675 884 675 876 l 742 884 q 640 726 742 863 q 471 479 537 589 q 404 278 404 370 z "},"Z":{"ha":726,"x_min":81,"x_max":640,"o":"m 81 0 l 85 35 q 225 278 127 102 q 428 631 323 454 q 533 831 533 808 l 533 833 l 397 834 q 87 828 245 834 l 93 884 l 618 884 l 616 844 q 363 419 562 766 q 164 56 164 71 l 164 49 q 380 51 267 49 q 640 61 494 53 l 639 0 l 81 0 z "},"[":{"ha":490,"x_min":107,"x_max":406,"o":"m 400 981 q 254 983 312 983 l 170 982 q 164 371 170 817 q 166 161 164 285 l 168 -25 l 170 -281 l 257 -281 q 406 -279 317 -281 l 400 -330 l 107 -321 q 114 374 114 226 q 107 1022 114 475 l 406 1032 l 400 981 z "},"\\":{"ha":371,"x_min":25,"x_max":346,"o":"m 346 -204 l 273 -204 q 149 429 273 -82 q 25 986 25 939 l 96 986 q 221 355 96 871 q 346 -204 346 -162 z "},"]":{"ha":490,"x_min":85,"x_max":383,"o":"m 383 1022 q 376 374 376 475 q 383 -321 376 226 l 90 -330 l 85 -279 q 233 -281 174 -281 l 321 -281 q 323 -25 321 -152 l 324 161 l 326 328 q 324 594 326 371 q 321 982 321 817 l 236 983 q 90 981 179 983 l 85 1032 l 383 1022 z "},"^":{"ha":700,"x_min":21,"x_max":681,"o":"m 681 463 l 628 446 l 357 878 l 342 878 l 74 446 l 21 463 l 339 961 l 361 961 l 681 463 z "},"_":{"ha":700,"x_min":0,"x_max":700,"o":"m 700 -342 l 0 -342 l 0 -296 l 700 -296 l 700 -342 z "},"`":{"ha":380,"x_min":93,"x_max":311,"o":"m 93 956 l 189 956 q 250 849 189 948 q 311 736 311 749 l 273 736 q 242 780 273 744 q 185 845 210 817 q 126 913 159 874 q 93 956 93 952 z "},"a":{"ha":682,"x_min":68,"x_max":575,"o":"m 510 69 q 282 -17 420 -17 q 123 29 179 -17 q 68 163 68 75 q 163 333 68 273 q 510 395 258 393 q 513 443 513 419 q 460 572 513 536 q 315 608 407 608 q 97 581 207 608 l 106 639 q 318 667 210 667 q 501 618 435 667 q 567 457 567 570 q 563 350 567 420 q 559 211 559 280 q 575 0 559 111 l 521 -3 q 514 69 514 39 l 510 69 m 513 347 q 231 306 334 347 q 129 157 129 265 q 289 36 129 36 q 419 58 362 36 q 513 123 475 79 l 513 347 z "},"b":{"ha":774,"x_min":111,"x_max":689,"o":"m 371 -17 q 258 -4 307 -17 q 180 26 209 9 l 178 26 l 165 0 l 115 0 q 122 507 122 193 q 111 951 122 770 l 186 958 q 179 579 179 889 l 182 579 q 272 643 213 617 q 401 668 331 668 q 613 575 537 668 q 689 347 689 483 q 600 86 689 189 q 371 -17 511 -17 m 383 614 q 176 515 243 614 q 184 79 176 260 q 358 32 254 32 q 559 120 494 32 q 624 335 624 209 q 557 544 624 473 q 383 614 490 614 z "},"c":{"ha":637,"x_min":86,"x_max":575,"o":"m 144 335 q 228 117 144 197 q 444 36 311 36 q 505 42 477 36 q 575 61 534 47 l 575 12 q 508 -9 552 -2 q 429 -17 465 -17 q 181 75 275 -17 q 86 313 86 168 q 132 500 86 423 q 252 622 178 576 q 433 667 326 667 q 546 648 503 667 l 534 581 q 459 602 490 595 q 397 608 429 608 q 272 572 332 608 q 178 476 212 536 q 144 335 144 415 z "},"d":{"ha":764,"x_min":86,"x_max":664,"o":"m 651 646 l 652 510 q 664 0 652 208 l 607 -1 q 602 72 602 31 l 595 72 q 503 9 564 35 q 367 -17 443 -17 q 164 76 243 -17 q 86 304 86 170 q 175 568 86 466 q 412 669 264 669 q 519 655 474 669 q 589 615 564 642 l 590 615 q 585 954 590 737 l 656 958 q 650 761 650 877 q 651 646 650 686 m 590 566 q 517 607 561 593 q 422 621 474 621 q 219 539 288 621 q 151 304 151 458 q 216 111 151 183 q 395 39 281 39 q 498 57 452 39 q 600 134 545 76 q 601 237 600 168 q 590 566 601 414 z "},"e":{"ha":714,"x_min":85,"x_max":631,"o":"m 140 339 q 221 122 140 208 q 440 36 302 36 q 614 57 545 36 l 604 3 q 539 -11 583 -4 q 446 -17 495 -17 q 175 78 266 -17 q 85 311 85 172 q 103 448 85 385 q 157 564 121 511 q 376 675 242 675 q 564 597 497 675 q 631 404 631 519 q 628 345 631 367 l 140 339 m 144 387 l 570 387 q 520 564 570 502 q 374 625 471 625 q 222 565 283 625 q 144 387 161 504 z "},"f":{"ha":440,"x_min":0,"x_max":446,"o":"m 431 905 q 347 917 388 917 q 247 853 273 917 q 221 629 221 790 q 427 636 279 629 l 424 578 q 221 582 261 582 q 228 0 221 245 l 157 0 q 165 582 165 205 q 0 578 123 582 l 4 635 l 64 633 q 165 629 138 629 q 183 844 165 777 q 244 942 201 910 q 359 974 288 974 q 446 962 390 974 l 431 905 z "},"g":{"ha":734,"x_min":65,"x_max":705,"o":"m 65 -138 q 95 -24 65 -75 q 186 52 125 26 l 186 54 q 149 86 163 63 q 135 144 135 109 q 195 254 135 205 l 195 256 q 132 314 164 268 q 100 425 100 361 q 167 595 100 525 q 351 665 235 665 q 517 618 458 665 l 522 618 q 562 701 536 674 q 629 728 589 728 q 705 724 685 728 l 700 667 q 588 648 627 667 q 547 600 549 630 l 547 596 q 587 534 574 565 q 600 463 600 503 q 568 338 600 393 q 471 254 536 283 q 338 225 407 225 q 270 229 302 225 q 224 240 239 233 q 183 160 183 210 q 234 102 183 118 q 446 86 285 86 q 692 -69 692 86 q 600 -269 692 -187 q 345 -350 507 -350 q 141 -297 217 -350 q 65 -138 65 -243 m 539 439 q 486 570 539 523 q 340 618 433 618 q 204 572 255 618 q 153 449 153 527 q 207 318 153 363 q 351 273 261 273 q 486 318 433 273 q 539 439 539 363 m 644 -113 q 591 -4 644 -38 q 380 29 538 29 q 218 39 296 29 q 142 -20 170 18 q 115 -113 115 -59 q 180 -251 115 -203 q 370 -298 244 -298 q 573 -244 501 -298 q 644 -113 644 -189 z "},"h":{"ha":742,"x_min":102,"x_max":643,"o":"m 102 956 l 182 958 l 180 882 q 175 571 175 645 l 176 571 q 294 642 231 618 q 415 667 357 667 q 582 615 522 667 q 643 435 643 563 l 643 386 q 642 310 642 363 q 643 0 642 150 l 575 0 q 589 432 589 176 q 542 569 589 528 q 408 611 496 611 q 175 524 292 611 q 180 0 175 106 l 115 0 q 121 507 121 203 q 102 956 121 802 z "},"i":{"ha":267,"x_min":86,"x_max":186,"o":"m 144 899 q 174 883 163 899 q 186 846 186 867 q 174 804 186 821 q 136 786 161 786 q 103 802 115 786 q 90 839 90 817 q 105 880 90 862 q 144 899 119 899 m 86 639 l 163 657 q 155 300 155 499 q 165 0 155 134 l 94 0 q 104 300 104 164 q 86 639 104 491 z "},"j":{"ha":261,"x_min":0,"x_max":182,"o":"m 86 839 q 99 870 86 858 q 140 882 111 882 q 172 872 161 882 q 182 846 182 862 q 171 804 182 823 q 132 786 161 786 q 97 802 108 786 q 86 839 86 819 m 153 222 q 156 74 153 170 q 160 -56 160 -22 q 123 -209 160 -147 q 18 -298 86 -270 l 0 -273 q 82 -172 64 -216 q 100 -7 100 -127 l 100 201 q 96 470 100 366 q 82 639 92 574 l 158 657 q 152 398 152 547 l 153 222 z "},"k":{"ha":648,"x_min":102,"x_max":644,"o":"m 174 399 l 175 399 q 269 451 201 399 q 413 566 336 503 q 490 644 490 628 l 586 644 q 561 613 586 636 q 465 538 536 590 l 368 467 q 261 387 276 399 l 261 386 q 348 309 301 353 q 478 184 395 264 l 510 153 q 617 40 589 73 q 644 0 644 7 l 551 0 q 438 134 551 17 q 262 310 326 250 q 176 370 199 370 l 174 370 q 178 181 174 311 q 184 0 183 52 l 107 0 q 110 100 109 68 l 114 243 q 117 507 117 365 q 102 956 117 791 l 180 958 q 174 510 174 656 l 174 399 z "},"l":{"ha":285,"x_min":90,"x_max":174,"o":"m 90 956 l 171 958 q 163 507 163 779 q 174 0 163 237 l 94 0 q 107 507 107 211 q 90 956 107 757 z "},"m":{"ha":1135,"x_min":102,"x_max":1032,"o":"m 182 567 l 183 567 q 378 667 275 667 q 522 641 467 667 q 595 567 577 616 l 600 567 q 703 641 651 616 q 804 667 755 667 q 975 616 918 667 q 1032 441 1032 565 l 1031 374 l 1029 338 l 1030 225 q 1032 0 1032 132 l 966 0 q 982 452 982 185 q 941 575 982 538 q 799 611 901 611 q 703 585 752 611 q 608 510 654 559 q 606 338 606 456 q 610 0 606 225 l 543 0 q 555 424 555 174 q 509 577 555 543 q 372 611 463 611 q 178 519 277 611 q 176 367 176 478 q 178 72 176 245 l 179 0 l 117 0 q 129 334 129 250 q 102 644 129 469 l 168 659 l 182 567 z "},"n":{"ha":742,"x_min":102,"x_max":639,"o":"m 180 567 l 182 567 q 403 667 293 667 q 579 616 520 667 q 639 441 639 566 l 638 393 q 637 358 638 381 q 638 224 637 275 l 639 0 l 571 0 q 587 429 587 207 q 531 572 587 534 q 387 611 475 611 q 180 524 274 611 q 179 354 179 474 q 180 187 179 266 l 181 43 q 182 0 181 29 l 117 0 q 129 334 129 250 q 102 644 129 469 l 168 659 l 180 567 z "},"o":{"ha":777,"x_min":86,"x_max":688,"o":"m 374 -26 q 169 60 251 -26 q 86 297 86 146 q 178 572 86 471 q 404 673 271 673 q 599 592 510 673 q 688 346 688 511 q 595 74 688 174 q 374 -26 503 -26 m 386 628 q 203 532 261 628 q 144 328 144 436 q 211 106 144 192 q 387 20 277 20 q 571 116 511 20 q 631 319 631 212 q 563 540 631 452 q 386 628 495 628 z "},"p":{"ha":766,"x_min":94,"x_max":679,"o":"m 168 579 l 171 579 q 262 643 202 618 q 403 668 323 668 q 605 572 532 668 q 679 347 679 476 q 591 86 679 189 q 361 -17 503 -17 q 249 -4 295 -17 q 182 26 202 9 l 176 26 q 180 -310 176 -183 l 107 -310 q 112 -109 111 -222 q 113 134 113 4 l 113 260 q 109 490 113 402 q 94 644 106 577 l 158 659 l 168 579 m 614 339 q 550 542 614 469 q 375 614 486 614 q 254 587 307 614 q 165 517 201 560 q 169 347 165 450 l 171 212 q 172 79 172 128 q 251 44 204 56 q 350 32 297 32 q 544 116 475 32 q 614 339 614 199 z "},"q":{"ha":774,"x_min":86,"x_max":664,"o":"m 590 72 q 498 8 560 33 q 364 -17 437 -17 q 163 76 240 -17 q 86 304 86 168 q 174 566 86 462 q 404 669 262 669 q 604 619 539 669 l 606 619 l 636 644 l 663 647 q 653 195 653 366 q 664 -309 653 12 l 591 -309 q 595 -134 595 -228 q 596 72 596 -40 l 590 72 m 593 562 q 515 607 557 593 q 415 621 473 621 q 219 536 287 621 q 151 310 151 452 q 215 111 151 181 q 392 40 279 40 q 512 64 463 40 q 597 136 561 88 q 597 367 597 261 q 593 562 596 473 z "},"r":{"ha":450,"x_min":85,"x_max":475,"o":"m 457 585 q 343 607 403 607 q 234 571 280 607 q 165 467 187 535 q 171 0 165 148 l 104 0 q 111 334 111 186 q 85 643 111 488 l 144 659 q 161 549 160 578 l 170 549 q 255 637 212 608 q 345 667 298 667 q 475 644 398 667 l 457 585 z "},"s":{"ha":582,"x_min":75,"x_max":507,"o":"m 75 22 l 90 86 q 190 56 136 65 q 313 46 243 46 q 415 77 378 46 q 453 158 453 109 q 433 230 453 199 q 343 289 414 261 q 212 345 273 317 q 123 412 152 373 q 94 501 94 451 q 153 617 94 574 q 300 660 211 660 q 482 635 397 660 l 467 578 q 293 606 399 606 q 188 576 227 606 q 149 503 149 546 q 190 425 149 453 q 329 358 231 397 q 467 278 427 318 q 507 167 507 238 q 450 36 507 82 q 293 -11 393 -11 q 75 22 180 -11 z "},"t":{"ha":493,"x_min":28,"x_max":447,"o":"m 441 4 q 340 -14 382 -14 q 187 53 222 -14 q 153 265 153 119 q 154 582 153 443 q 28 578 113 582 l 31 633 q 160 629 106 629 q 168 825 160 703 l 228 829 q 215 629 215 673 q 433 636 274 629 l 429 578 q 211 582 290 582 q 207 302 207 463 q 245 82 207 126 q 354 37 283 37 q 395 41 374 37 q 447 53 416 45 l 441 4 z "},"u":{"ha":737,"x_min":115,"x_max":644,"o":"m 590 -1 q 582 64 582 37 l 579 64 q 481 8 540 32 q 353 -16 422 -16 q 166 46 211 -16 q 121 215 121 109 l 121 301 q 122 347 121 317 q 123 447 123 385 q 115 642 123 534 l 187 646 q 182 375 182 527 q 189 177 182 253 q 231 71 195 101 q 357 40 267 40 q 578 115 498 40 q 572 642 578 522 l 636 646 l 635 600 q 632 277 632 396 q 644 0 632 136 l 590 -1 z "},"v":{"ha":654,"x_min":39,"x_max":616,"o":"m 335 0 l 302 0 q 270 108 302 25 q 171 334 238 191 l 145 389 q 65 564 92 504 q 39 644 39 625 l 102 644 q 213 369 102 610 q 323 96 323 129 l 328 96 q 378 241 328 125 q 490 484 428 357 q 551 644 551 611 l 616 644 q 476 334 616 624 q 335 0 335 43 z "},"w":{"ha":1035,"x_min":29,"x_max":1000,"o":"m 1000 644 q 911 420 1000 622 q 787 121 822 219 q 753 0 753 22 l 721 0 q 704 63 721 18 q 639 233 688 109 l 587 364 q 535 497 553 450 q 507 579 517 545 q 471 485 491 541 l 448 422 q 362 203 432 379 q 293 0 293 26 l 261 0 q 145 325 261 50 q 29 644 29 600 l 92 644 q 187 361 92 597 q 282 96 282 125 l 286 96 q 319 215 286 118 q 416 464 353 313 q 479 644 479 616 l 549 644 q 645 358 549 604 q 742 96 742 112 l 746 96 q 765 184 746 116 q 830 359 785 253 q 905 542 876 465 q 935 644 935 618 l 1000 644 z "},"x":{"ha":685,"x_min":52,"x_max":632,"o":"m 251 507 q 287 454 259 495 q 336 383 314 413 l 340 383 q 480 565 435 495 q 526 644 526 635 l 602 644 q 499 508 602 635 q 367 349 397 380 l 367 346 q 499 175 436 260 q 579 70 563 90 l 607 35 q 621 16 610 30 q 632 0 632 3 l 554 0 q 484 112 554 12 q 336 313 413 213 l 335 313 q 247 189 286 246 q 167 73 208 132 q 126 0 126 14 l 52 0 q 74 40 52 9 q 149 139 96 72 l 212 221 q 310 345 279 310 l 310 346 q 174 525 276 391 l 140 568 q 109 608 132 577 q 85 644 85 640 l 163 644 q 178 614 163 637 q 228 542 193 591 l 251 507 z "},"y":{"ha":614,"x_min":35,"x_max":575,"o":"m 86 -300 l 89 -244 q 237 -174 186 -244 q 289 -11 289 -104 q 239 165 289 33 q 77 551 189 298 l 35 644 l 110 644 q 215 370 110 622 q 325 60 321 117 l 328 60 q 416 349 328 109 q 505 644 505 590 l 575 644 q 541 543 575 620 q 437 271 507 465 q 336 -53 366 76 q 245 -241 305 -182 q 86 -300 186 -300 z "},"z":{"ha":648,"x_min":83,"x_max":566,"o":"m 536 583 q 490 522 518 561 l 450 468 q 274 230 391 386 q 158 54 158 75 l 158 53 q 566 61 444 53 l 559 0 l 83 0 l 86 60 q 174 171 121 101 q 314 357 227 241 q 436 527 401 474 q 471 587 471 579 l 471 595 q 86 583 221 595 l 92 644 l 541 644 l 536 583 z "},"{":{"ha":490,"x_min":78,"x_max":456,"o":"m 232 -98 q 286 -221 232 -178 q 456 -289 340 -265 l 440 -329 q 236 -238 287 -290 q 186 -98 186 -186 q 214 57 186 -45 q 241 200 241 159 q 201 287 241 260 q 78 325 161 314 l 78 378 q 201 416 160 389 q 241 503 241 443 q 214 646 241 545 q 186 802 186 747 q 236 942 186 890 q 440 1032 287 994 l 456 991 q 286 924 340 968 q 232 802 232 881 q 262 646 232 755 q 293 505 293 537 q 247 398 293 439 q 127 353 200 358 l 127 351 q 246 305 199 346 q 293 197 293 264 q 262 57 293 166 q 232 -98 232 -53 z "},"|":{"ha":350,"x_min":142,"x_max":208,"o":"m 208 -350 l 143 -350 q 147 118 147 -146 l 147 319 q 142 1051 147 750 l 207 1051 q 203 271 203 728 q 204 -62 203 77 q 208 -350 205 -202 z "},"}":{"ha":490,"x_min":35,"x_max":412,"o":"m 363 353 q 244 398 290 358 q 197 505 197 439 q 228 646 197 537 q 258 802 258 755 q 204 924 258 881 q 35 991 150 968 l 50 1032 q 254 942 203 994 q 304 802 304 890 q 277 646 304 747 q 249 503 249 545 q 290 416 249 443 q 412 378 330 389 l 412 325 q 289 287 330 314 q 249 200 249 260 q 277 57 249 159 q 304 -98 304 -45 q 254 -238 304 -186 q 50 -329 203 -290 l 35 -289 q 204 -221 150 -265 q 258 -98 258 -178 q 228 57 258 -53 q 197 197 197 166 q 244 305 197 264 q 363 351 291 346 l 363 353 z "},"~":{"ha":700,"x_min":11,"x_max":689,"o":"m 212 355 q 123 325 163 355 q 41 233 82 294 l 11 252 q 113 372 60 335 q 232 408 166 408 q 377 378 286 408 q 517 349 469 349 q 590 373 556 349 q 650 439 624 397 l 689 424 q 589 326 642 354 q 469 297 536 297 q 341 326 431 297 q 212 355 252 355 z "},"":{"ha":833,"x_min":0,"x_max":0,"o":""}," ":{"ha":301,"x_min":0,"x_max":0,"o":""},"¡":{"ha":350,"x_min":111,"x_max":239,"o":"m 239 587 q 219 534 239 554 q 168 514 200 514 q 124 531 136 514 q 111 576 111 548 q 132 629 111 606 q 182 652 152 652 q 225 633 212 652 q 239 587 239 614 m 201 -41 q 204 -158 204 -115 q 194 -216 204 -195 q 163 -237 184 -237 q 123 -170 123 -237 q 141 74 123 -87 q 164 289 159 235 l 187 289 q 195 110 190 219 l 201 -41 z "},"¢":{"ha":700,"x_min":114,"x_max":603,"o":"m 603 52 q 537 30 581 37 q 457 22 493 22 l 446 22 q 451 -172 446 -70 l 452 -186 l 395 -186 l 398 -106 q 399 -31 399 -68 q 399 26 399 6 q 191 132 268 43 q 114 351 114 222 q 156 523 114 456 q 255 633 197 590 q 400 690 313 677 q 395 895 400 827 l 452 895 q 446 694 446 830 q 516 689 479 694 q 574 676 554 684 l 562 612 q 493 633 525 627 q 425 639 462 639 q 311 609 370 639 q 211 517 253 579 q 170 374 170 454 q 245 156 170 237 q 472 75 320 75 q 534 81 505 75 q 603 100 563 87 l 603 52 z "},"£":{"ha":616,"x_min":26,"x_max":564,"o":"m 254 44 q 564 53 415 44 l 551 0 l 45 0 l 45 32 q 116 90 74 51 q 158 203 158 130 q 155 262 158 231 q 146 341 153 294 l 144 355 q 26 351 89 355 l 31 393 q 140 390 87 390 q 132 519 132 451 q 194 723 132 647 q 363 799 255 799 q 453 794 394 799 l 441 743 q 404 748 431 745 q 359 751 377 751 q 227 701 272 751 q 182 534 182 650 q 193 390 182 479 q 363 395 268 390 l 358 353 q 275 355 340 355 l 197 355 q 207 216 207 276 q 185 118 207 161 q 125 52 163 75 l 125 45 l 254 44 z "},"¤":{"ha":677,"x_min":110,"x_max":568,"o":"m 211 140 l 149 75 l 110 114 l 172 172 q 133 238 146 203 q 119 321 119 273 q 133 404 119 369 q 172 469 146 438 l 110 528 l 149 567 l 211 501 q 339 546 262 546 q 467 501 416 546 l 529 567 l 568 528 l 505 469 q 545 404 532 439 q 558 321 558 370 q 545 237 558 272 q 505 172 532 203 l 568 114 l 529 75 l 467 140 q 339 96 416 96 q 211 140 262 96 m 160 321 q 211 187 160 239 q 339 135 262 135 q 467 188 416 135 q 518 321 518 241 q 467 454 518 401 q 339 507 416 507 q 211 455 262 507 q 160 321 160 402 z "},"¥":{"ha":616,"x_min":18,"x_max":596,"o":"m 443 486 q 408 432 427 463 l 571 435 l 571 399 l 389 399 q 343 296 359 348 l 571 296 l 571 260 l 335 261 q 328 195 328 228 q 329 102 328 155 q 334 0 331 49 l 267 0 q 273 116 271 52 q 275 221 275 180 q 271 261 275 237 q 174 260 210 261 l 41 260 l 41 296 l 262 296 q 220 399 252 336 l 41 399 l 41 435 q 201 433 94 433 l 163 499 q 76 635 126 564 q 18 724 25 707 l 86 724 q 194 545 86 722 q 306 302 302 368 l 310 302 q 416 530 312 368 l 495 652 q 521 692 502 663 q 541 724 541 721 l 596 724 q 582 690 596 713 q 532 620 568 667 l 504 579 q 471 530 484 551 l 443 486 z "},"¦":{"ha":350,"x_min":143,"x_max":208,"o":"m 148 709 q 147 742 148 723 l 148 838 q 143 1064 148 954 l 208 1064 q 201 765 201 869 l 201 654 q 204 443 201 552 l 144 443 q 149 624 149 530 l 148 709 m 148 43 q 143 269 148 158 l 204 269 q 201 77 201 172 l 201 -28 q 208 -350 201 -135 l 143 -350 q 147 -53 147 -193 l 148 43 z "},"§":{"ha":582,"x_min":83,"x_max":500,"o":"m 283 -292 q 104 -269 187 -292 l 122 -220 q 283 -245 195 -245 q 403 -210 361 -245 q 446 -125 446 -174 q 428 -38 446 -75 q 343 54 410 -1 l 179 189 q 107 271 131 228 q 83 353 83 313 q 126 477 83 434 q 257 534 170 519 q 117 670 151 617 q 83 786 83 724 q 145 910 83 861 q 300 958 207 958 q 395 952 352 958 q 479 935 438 945 l 461 885 q 386 905 424 898 q 300 913 347 913 q 180 877 222 913 q 138 791 138 841 q 155 705 138 742 q 240 612 173 667 l 403 479 q 475 397 451 440 q 500 314 500 353 q 457 190 500 233 q 326 132 414 147 q 466 -4 433 50 q 500 -119 500 -57 q 438 -243 500 -195 q 283 -292 376 -292 m 291 161 q 401 197 353 161 q 449 298 449 233 q 416 395 449 351 q 296 505 384 440 l 290 505 q 182 469 229 505 q 135 368 135 433 q 168 271 135 316 q 288 161 201 225 l 291 161 z "},"¨":{"ha":567,"x_min":113,"x_max":457,"o":"m 113 840 q 126 880 113 863 q 170 897 140 897 q 201 883 189 897 q 212 848 212 869 q 198 808 212 825 q 155 791 184 791 q 124 806 136 791 q 113 840 113 820 m 361 840 q 373 880 361 863 q 412 897 386 897 q 445 884 433 897 q 457 848 457 870 q 444 808 457 825 q 403 791 431 791 q 372 806 384 791 q 361 840 361 820 z "},"©":{"ha":827,"x_min":8,"x_max":814,"o":"m 412 0 q 121 121 235 0 q 8 400 8 241 q 124 683 8 563 q 412 803 239 803 q 695 685 576 803 q 814 400 814 567 q 698 120 814 241 q 412 0 583 0 m 412 760 q 153 653 252 760 q 54 401 54 547 q 162 141 54 239 q 412 43 270 43 q 666 151 564 43 q 768 401 768 260 q 668 650 768 541 q 412 760 567 760 m 252 414 q 304 271 252 325 q 454 216 356 216 q 496 220 477 216 q 543 233 515 224 l 543 196 q 499 181 528 186 q 444 176 469 176 q 269 239 332 176 q 207 399 207 302 q 276 572 207 500 q 452 643 345 643 q 528 631 498 643 l 515 585 q 470 596 491 593 q 424 599 450 599 q 309 547 366 599 q 252 414 252 496 z "},"ª":{"ha":403,"x_min":58,"x_max":336,"o":"m 271 568 q 217 539 241 548 q 165 531 194 531 q 58 633 58 531 q 102 711 58 677 q 283 749 146 745 q 264 832 283 808 q 193 857 245 857 q 137 849 166 857 q 66 825 107 840 l 75 873 q 204 899 140 899 q 294 874 257 899 q 330 786 330 850 q 329 764 330 782 q 328 718 328 747 l 329 684 q 332 556 329 566 q 336 539 336 547 l 285 538 q 280 568 283 542 l 271 568 m 172 571 q 234 583 208 571 q 282 611 260 594 l 283 710 q 149 689 193 708 q 105 627 105 671 q 122 586 105 602 q 172 571 139 571 z "},"«":{"ha":631,"x_min":56,"x_max":575,"o":"m 575 103 l 536 86 l 336 315 l 336 349 l 536 575 l 575 557 l 399 330 l 575 103 m 294 103 l 256 86 l 56 315 l 56 349 l 256 575 l 294 557 l 118 330 l 294 103 z "},"¬":{"ha":700,"x_min":72,"x_max":628,"o":"m 628 94 l 574 94 l 574 468 l 72 468 l 72 526 l 628 526 l 628 94 z "},"­":{"ha":350,"x_min":26,"x_max":325,"o":"m 325 379 l 317 325 l 26 317 l 32 367 l 325 379 z "},"®":{"ha":827,"x_min":8,"x_max":814,"o":"m 412 107 q 122 227 235 107 q 8 507 8 347 q 123 789 8 669 q 412 909 237 909 q 695 792 577 909 q 814 507 814 674 q 698 228 814 348 q 412 107 583 107 m 412 867 q 154 760 253 867 q 54 509 54 654 q 161 249 54 347 q 412 150 269 150 q 666 258 564 150 q 768 509 768 366 q 667 758 768 649 q 412 867 566 867 m 572 307 l 525 307 l 505 368 q 472 462 491 412 q 374 511 453 511 q 318 509 340 511 l 318 456 q 323 306 318 365 l 273 306 q 279 542 279 388 q 273 755 279 679 l 323 755 l 364 756 q 396 757 374 756 q 507 730 465 757 q 549 636 549 703 q 534 586 549 608 q 486 546 519 564 l 454 530 l 454 526 q 523 449 501 509 q 561 342 545 389 l 572 307 m 503 637 q 473 702 503 684 q 380 721 444 721 q 351 720 365 721 q 319 715 338 718 q 318 546 318 685 q 364 545 329 545 q 465 569 427 545 q 503 637 503 593 z "},"¯":{"ha":339,"x_min":39,"x_max":304,"o":"m 304 872 l 298 821 l 39 821 l 45 872 l 304 872 z "},"°":{"ha":371,"x_min":11,"x_max":379,"o":"m 179 677 q 55 728 99 677 q 11 847 11 779 q 62 979 11 921 q 208 1036 113 1036 q 334 986 289 1036 q 379 868 379 935 q 328 738 379 798 q 179 677 277 677 m 61 850 q 91 759 61 795 q 180 724 121 724 q 287 760 244 724 q 329 867 329 796 q 295 955 329 920 q 205 990 262 990 q 100 953 138 990 q 61 850 61 916 z "},"±":{"ha":700,"x_min":72,"x_max":628,"o":"m 628 458 l 378 458 l 378 227 l 325 227 l 325 458 l 72 458 l 72 511 l 325 511 l 325 742 l 378 742 l 378 511 l 628 511 l 628 458 m 628 39 l 72 39 l 72 90 l 628 90 l 628 39 z "},"²":{"ha":371,"x_min":46,"x_max":307,"o":"m 46 431 l 53 469 q 210 629 179 574 q 241 746 241 684 q 208 807 241 785 q 126 828 175 828 q 90 827 106 828 l 53 823 l 60 868 q 138 873 102 873 q 254 838 221 873 q 288 743 288 803 q 235 595 288 663 q 115 479 183 527 l 115 472 q 307 478 176 472 l 301 431 l 46 431 z "},"³":{"ha":371,"x_min":24,"x_max":309,"o":"m 285 783 q 259 723 285 753 q 184 677 233 693 l 184 672 q 276 637 243 667 q 309 562 309 606 q 231 436 309 486 q 32 382 154 386 l 24 418 q 197 463 137 429 q 257 555 257 498 q 208 628 257 602 q 74 653 159 653 l 81 692 q 193 716 153 692 q 233 775 233 740 q 126 828 233 828 q 47 821 81 828 l 53 864 q 150 873 90 873 q 249 849 214 873 q 285 783 285 825 z "},"´":{"ha":380,"x_min":74,"x_max":292,"o":"m 201 847 q 138 772 163 802 q 114 736 114 743 l 74 736 q 87 765 74 741 q 127 833 100 788 l 179 923 q 196 956 196 953 l 292 956 q 278 938 292 954 q 256 911 265 922 l 201 847 z "},"µ":{"ha":765,"x_min":111,"x_max":653,"o":"m 582 77 q 469 20 529 41 q 358 0 410 0 q 244 23 290 0 q 178 93 198 46 l 175 93 q 187 -309 175 -214 l 118 -322 q 125 249 125 7 q 111 644 125 498 l 184 648 l 182 537 q 181 453 182 531 q 180 338 180 376 q 221 119 180 185 q 366 53 262 53 q 490 72 441 53 q 578 126 539 92 q 575 328 578 208 l 574 396 q 561 643 572 552 l 639 650 q 632 375 632 502 q 653 -3 632 176 l 597 -5 q 586 45 590 20 q 582 77 582 71 z "},"¶":{"ha":929,"x_min":167,"x_max":718,"o":"m 718 -281 l 654 -281 q 656 47 656 -176 l 656 489 q 650 896 656 726 l 545 896 q 541 296 541 763 q 542 -18 541 104 q 551 -298 544 -140 q 553 -336 551 -309 l 488 -336 l 488 -232 q 490 -15 490 -150 q 488 301 490 124 l 486 376 l 473 376 q 255 441 343 376 q 167 664 167 506 q 243 878 167 798 q 458 957 319 957 q 580 955 497 957 q 707 953 663 953 q 704 754 705 900 q 703 489 703 608 q 707 80 703 302 q 718 -281 711 -142 z "},"·":{"ha":350,"x_min":111,"x_max":239,"o":"m 111 386 q 131 440 111 420 q 182 460 150 460 q 226 443 214 460 q 239 397 239 426 q 219 345 239 367 q 168 322 199 322 q 125 341 138 322 q 111 386 111 359 z "},"¸":{"ha":318,"x_min":81,"x_max":267,"o":"m 81 -98 l 110 35 l 142 29 l 131 -74 q 267 -212 267 -108 q 228 -313 267 -278 q 115 -349 190 -349 l 109 -315 q 185 -293 159 -315 q 212 -218 212 -271 q 180 -142 212 -172 q 81 -98 148 -113 z "},"¹":{"ha":371,"x_min":41,"x_max":269,"o":"m 214 796 l 56 717 l 41 747 l 231 868 l 269 868 q 264 627 264 803 q 269 431 264 540 l 212 431 q 216 627 216 543 q 214 796 216 743 z "},"º":{"ha":403,"x_min":35,"x_max":368,"o":"m 35 713 q 84 851 35 798 q 205 904 134 904 q 322 852 277 904 q 368 724 368 800 q 318 581 368 637 q 199 525 269 525 q 82 578 129 525 q 35 713 35 631 m 85 724 q 117 611 85 652 q 201 570 149 570 q 288 609 257 570 q 318 711 318 649 q 287 821 318 781 q 200 860 256 860 q 116 823 146 860 q 85 724 85 786 z "},"»":{"ha":631,"x_min":56,"x_max":575,"o":"m 336 103 l 513 330 l 336 557 l 375 575 l 575 349 l 575 315 l 375 86 l 336 103 m 56 103 l 232 330 l 56 557 l 94 575 l 294 349 l 294 315 l 94 86 l 56 103 z "},"¼":{"ha":1051,"x_min":83,"x_max":904,"o":"m 255 796 l 97 717 l 83 747 l 272 868 l 311 868 q 305 627 305 803 q 311 431 305 540 l 254 431 q 258 627 258 543 q 255 796 258 743 m 191 -29 l 130 -16 q 481 435 130 32 q 832 905 832 839 l 893 892 q 542 441 893 847 q 191 -29 191 35 m 838 156 q 842 -22 838 70 l 785 -22 q 787 156 787 37 l 583 156 l 575 189 q 593 221 575 197 q 652 297 610 245 l 694 350 q 753 427 733 399 q 774 461 774 454 l 843 461 q 838 197 838 365 q 904 201 870 197 l 896 156 l 838 156 m 791 412 l 787 412 q 772 390 783 408 q 746 355 760 373 l 626 201 l 626 195 l 704 195 q 787 197 743 195 l 787 288 l 791 412 z "},"½":{"ha":1051,"x_min":83,"x_max":918,"o":"m 255 796 l 97 717 l 83 747 l 272 868 l 311 868 q 305 627 305 803 q 311 431 305 540 l 254 431 q 258 627 258 543 q 255 796 258 743 m 191 -29 l 130 -16 q 481 435 130 32 q 832 905 832 839 l 893 892 q 542 441 893 847 q 191 -29 191 35 m 657 0 l 664 39 q 821 198 790 143 q 852 315 852 253 q 819 376 852 355 q 737 397 786 397 q 701 396 717 397 l 664 393 l 671 437 q 749 443 713 443 q 865 408 832 443 q 899 313 899 372 q 846 164 899 232 q 726 49 794 96 l 726 41 q 918 47 787 41 l 912 0 l 657 0 z "},"¾":{"ha":1051,"x_min":81,"x_max":904,"o":"m 191 -29 l 130 -16 q 481 435 130 32 q 832 905 832 839 l 893 892 q 542 441 893 847 q 191 -29 191 35 m 838 156 q 842 -22 838 70 l 785 -22 q 787 156 787 37 l 583 156 l 575 189 q 593 221 575 197 q 652 297 610 245 l 694 350 q 753 427 733 399 q 774 461 774 454 l 843 461 q 838 197 838 365 q 904 201 870 197 l 896 156 l 838 156 m 791 412 l 787 412 q 772 390 783 408 q 746 355 760 373 l 626 201 l 626 195 l 704 195 q 787 197 743 195 l 787 288 l 791 412 m 342 783 q 316 723 342 753 q 241 677 290 693 l 241 672 q 333 637 300 667 q 366 562 366 606 q 288 436 366 486 q 89 382 211 386 l 81 418 q 254 463 194 429 q 314 555 314 498 q 265 628 314 602 q 131 653 216 653 l 138 692 q 250 716 210 692 q 290 775 290 740 q 183 828 290 828 q 104 821 138 828 l 110 864 q 207 873 146 873 q 306 849 271 873 q 342 783 342 825 z "},"¿":{"ha":490,"x_min":68,"x_max":447,"o":"m 347 593 q 328 539 347 559 q 277 519 309 519 q 232 536 245 519 q 220 582 220 553 q 240 634 220 612 q 290 657 260 657 q 334 638 320 657 q 347 593 347 620 m 264 298 l 290 298 l 310 150 q 126 -36 126 127 q 199 -154 126 -114 q 418 -194 272 -194 l 447 -193 l 428 -248 q 165 -188 262 -248 q 68 -31 68 -129 q 250 192 68 125 l 264 298 z "},"À":{"ha":836,"x_min":7,"x_max":833,"o":"m 199 322 q 108 100 136 177 q 79 0 79 22 l 7 0 q 196 431 7 22 q 385 884 385 840 l 461 884 q 647 440 461 844 q 833 0 833 36 l 764 0 q 642 322 764 44 l 199 322 m 422 828 l 416 828 q 215 367 416 808 l 621 367 q 471 709 520 602 q 422 828 422 817 m 233 1146 l 332 1146 q 349 1117 332 1142 q 415 1032 366 1092 q 464 960 464 972 l 421 960 q 323 1055 414 971 q 233 1146 233 1139 z "},"Á":{"ha":836,"x_min":7,"x_max":833,"o":"m 199 322 q 108 100 136 177 q 79 0 79 22 l 7 0 q 196 431 7 22 q 385 884 385 840 l 461 884 q 647 440 461 844 q 833 0 833 36 l 764 0 q 642 322 764 44 l 199 322 m 422 828 l 416 828 q 215 367 416 808 l 621 367 q 471 709 520 602 q 422 828 422 817 m 431 960 l 385 960 q 453 1055 385 970 q 521 1146 521 1139 l 616 1146 q 526 1054 616 1137 q 431 960 436 972 z "},"Â":{"ha":836,"x_min":7,"x_max":833,"o":"m 199 322 q 108 100 136 177 q 79 0 79 22 l 7 0 q 196 431 7 22 q 385 884 385 840 l 461 884 q 647 440 461 844 q 833 0 833 36 l 764 0 q 642 322 764 44 l 199 322 m 422 828 l 416 828 q 215 367 416 808 l 621 367 q 471 709 520 602 q 422 828 422 817 m 415 1099 q 331 1012 364 1049 q 285 960 297 975 l 236 960 q 291 1037 236 964 q 349 1114 346 1110 l 362 1131 q 372 1146 370 1142 l 456 1146 q 509 1069 464 1131 q 571 987 555 1007 l 582 973 q 590 960 590 962 l 542 960 q 500 1009 534 970 q 415 1099 466 1048 z "},"Ã":{"ha":836,"x_min":7,"x_max":833,"o":"m 199 322 q 108 100 136 177 q 79 0 79 22 l 7 0 q 196 431 7 22 q 385 884 385 840 l 461 884 q 647 440 461 844 q 833 0 833 36 l 764 0 q 642 322 764 44 l 199 322 m 422 828 l 416 828 q 215 367 416 808 l 621 367 q 471 709 520 602 q 422 828 422 817 m 332 1047 q 274 1026 306 1047 q 212 971 241 1006 l 189 986 q 355 1104 260 1104 q 443 1087 387 1104 q 531 1069 498 1069 q 594 1084 562 1069 q 652 1126 626 1098 l 678 1111 q 601 1034 642 1056 q 510 1011 560 1011 q 418 1029 465 1011 q 332 1047 371 1047 z "},"Ä":{"ha":836,"x_min":7,"x_max":833,"o":"m 199 322 q 108 100 136 177 q 79 0 79 22 l 7 0 q 196 431 7 22 q 385 884 385 840 l 461 884 q 647 440 461 844 q 833 0 833 36 l 764 0 q 642 322 764 44 l 199 322 m 422 828 l 416 828 q 215 367 416 808 l 621 367 q 471 709 520 602 q 422 828 422 817 m 258 1046 q 272 1083 258 1067 q 315 1099 286 1099 q 347 1085 335 1099 q 358 1051 358 1072 q 344 1011 358 1027 q 301 994 330 994 q 270 1009 282 994 q 258 1046 258 1025 m 507 1046 q 519 1083 507 1067 q 558 1099 531 1099 q 591 1086 579 1099 q 603 1051 603 1073 q 590 1011 603 1027 q 549 994 576 994 q 518 1009 530 994 q 507 1046 507 1025 z "},"Å":{"ha":836,"x_min":7,"x_max":833,"o":"m 199 322 q 108 100 136 177 q 79 0 79 22 l 7 0 q 196 431 7 22 q 385 884 385 840 l 461 884 q 647 440 461 844 q 833 0 833 36 l 764 0 q 642 322 764 44 l 199 322 m 422 828 l 416 828 q 215 367 416 808 l 621 367 q 471 709 520 602 q 422 828 422 817 m 412 922 q 328 957 361 922 q 296 1042 296 991 q 335 1140 296 1100 q 435 1179 375 1179 q 514 1150 481 1179 q 548 1059 548 1121 q 506 958 548 994 q 412 922 463 922 m 337 1047 q 360 985 337 1008 q 418 962 383 962 q 483 991 456 962 q 509 1057 509 1020 q 486 1117 509 1096 q 429 1139 463 1139 q 365 1112 393 1139 q 337 1047 337 1085 z "},"Æ":{"ha":1099,"x_min":7,"x_max":1059,"o":"m 1055 0 l 534 0 q 539 124 537 83 l 543 218 q 546 361 545 292 l 227 359 q 122 120 165 223 q 79 0 79 18 l 7 0 q 203 431 7 27 q 399 884 399 834 l 1015 884 l 1013 828 q 596 833 863 833 q 599 489 599 683 q 932 497 810 489 l 932 436 q 599 443 770 443 l 599 279 q 602 49 599 123 q 1059 60 851 49 l 1055 0 m 547 408 l 547 465 q 545 616 547 537 q 540 787 543 695 l 538 833 l 432 833 q 389 718 432 822 q 248 407 346 614 l 547 408 z "},"Ç":{"ha":758,"x_min":79,"x_max":721,"o":"m 447 -74 q 583 -212 583 -108 q 545 -313 583 -278 q 432 -349 507 -349 l 425 -315 q 502 -293 475 -315 q 529 -218 529 -271 q 497 -142 529 -172 q 397 -98 465 -113 l 418 -7 q 168 138 256 26 q 79 422 79 250 q 142 668 79 559 q 312 836 204 777 q 542 896 419 896 q 605 891 579 896 q 665 876 630 887 l 652 819 q 526 840 574 840 q 246 730 354 840 q 138 440 138 620 q 248 133 138 236 q 558 31 358 31 q 721 60 625 31 l 715 9 q 542 -18 641 -18 q 454 -12 490 -18 l 447 -74 z "},"È":{"ha":715,"x_min":151,"x_max":675,"o":"m 151 0 l 156 142 q 164 465 164 347 q 158 732 164 589 q 151 884 152 875 l 632 884 l 629 828 q 212 833 479 833 q 215 489 215 683 q 549 497 428 489 l 549 436 q 215 443 387 443 l 215 293 q 218 49 215 147 q 675 60 469 49 l 672 0 l 151 0 m 205 1146 l 304 1146 q 321 1117 304 1142 q 387 1032 338 1092 q 436 960 436 972 l 393 960 q 296 1055 386 971 q 205 1146 205 1139 z "},"É":{"ha":715,"x_min":151,"x_max":675,"o":"m 151 0 l 156 142 q 164 465 164 347 q 158 732 164 589 q 151 884 152 875 l 632 884 l 629 828 q 212 833 479 833 q 215 489 215 683 q 549 497 428 489 l 549 436 q 215 443 387 443 l 215 293 q 218 49 215 147 q 675 60 469 49 l 672 0 l 151 0 m 382 960 l 336 960 q 405 1055 336 970 q 473 1146 473 1139 l 568 1146 q 478 1054 568 1137 q 382 960 388 972 z "},"Ê":{"ha":715,"x_min":151,"x_max":675,"o":"m 151 0 l 156 142 q 164 465 164 347 q 158 732 164 589 q 151 884 152 875 l 632 884 l 629 828 q 212 833 479 833 q 215 489 215 683 q 549 497 428 489 l 549 436 q 215 443 387 443 l 215 293 q 218 49 215 147 q 675 60 469 49 l 672 0 l 151 0 m 404 1099 q 320 1012 353 1049 q 274 960 286 975 l 225 960 q 280 1037 225 964 q 338 1114 335 1110 l 351 1131 q 361 1146 359 1142 l 445 1146 q 498 1069 453 1131 q 560 987 544 1007 l 571 973 q 579 960 579 962 l 531 960 q 489 1009 524 970 q 404 1099 455 1048 z "},"Ë":{"ha":715,"x_min":151,"x_max":675,"o":"m 151 0 l 156 142 q 164 465 164 347 q 158 732 164 589 q 151 884 152 875 l 632 884 l 629 828 q 212 833 479 833 q 215 489 215 683 q 549 497 428 489 l 549 436 q 215 443 387 443 l 215 293 q 218 49 215 147 q 675 60 469 49 l 672 0 l 151 0 m 211 1046 q 224 1083 211 1067 q 268 1099 238 1099 q 299 1085 288 1099 q 311 1051 311 1072 q 297 1011 311 1027 q 254 994 283 994 q 223 1009 235 994 q 211 1046 211 1025 m 459 1046 q 471 1083 459 1067 q 511 1099 484 1099 q 544 1086 532 1099 q 555 1051 555 1073 q 542 1011 555 1027 q 501 994 529 994 q 471 1009 482 994 q 459 1046 459 1025 z "},"Ì":{"ha":379,"x_min":-3,"x_max":228,"o":"m 151 0 q 163 465 163 302 q 151 884 163 654 l 222 884 q 215 467 215 722 q 222 0 215 239 l 151 0 m -3 1146 l 96 1146 q 113 1117 96 1142 q 179 1032 130 1092 q 228 960 228 972 l 185 960 q 87 1055 178 971 q -3 1146 -3 1139 z "},"Í":{"ha":379,"x_min":143,"x_max":375,"o":"m 151 0 q 163 465 163 302 q 151 884 163 654 l 222 884 q 215 467 215 722 q 222 0 215 239 l 151 0 m 189 960 l 143 960 q 211 1055 143 970 q 279 1146 279 1139 l 375 1146 q 285 1054 375 1137 q 189 960 195 972 z "},"Î":{"ha":379,"x_min":17,"x_max":371,"o":"m 151 0 q 163 465 163 302 q 151 884 163 654 l 222 884 q 215 467 215 722 q 222 0 215 239 l 151 0 m 196 1099 q 112 1012 145 1049 q 66 960 78 975 l 17 960 q 72 1037 17 964 q 130 1114 127 1110 l 143 1131 q 153 1146 151 1142 l 237 1146 q 290 1069 245 1131 q 352 987 336 1007 l 363 973 q 371 960 371 962 l 323 960 q 281 1009 315 970 q 196 1099 247 1048 z "},"Ï":{"ha":379,"x_min":21,"x_max":366,"o":"m 151 0 q 163 465 163 302 q 151 884 163 654 l 222 884 q 215 467 215 722 q 222 0 215 239 l 151 0 m 21 1046 q 35 1083 21 1067 q 78 1099 48 1099 q 109 1085 98 1099 q 121 1051 121 1072 q 107 1011 121 1027 q 64 994 93 994 q 33 1009 45 994 q 21 1046 21 1025 m 269 1046 q 281 1083 269 1067 q 321 1099 294 1099 q 354 1086 342 1099 q 366 1051 366 1073 q 352 1011 366 1027 q 311 994 339 994 q 281 1009 292 994 q 269 1046 269 1025 z "},"Ð":{"ha":890,"x_min":49,"x_max":807,"o":"m 345 -11 q 269 -7 325 -11 l 151 0 q 163 412 161 235 l 49 408 l 53 460 q 108 458 90 458 l 163 457 l 163 465 q 151 884 163 671 l 189 884 q 242 884 219 884 l 279 886 q 354 888 319 888 q 688 780 569 888 q 807 458 807 673 q 681 117 807 245 q 345 -11 555 -11 m 366 838 q 214 832 267 838 q 214 653 214 713 l 215 457 q 511 460 316 457 l 510 408 q 410 409 454 408 l 336 410 q 215 412 264 412 l 215 281 q 218 45 215 145 q 274 39 246 41 q 342 37 301 37 q 642 144 536 37 q 749 443 749 251 q 645 745 749 653 q 366 838 541 838 z "},"Ñ":{"ha":949,"x_min":151,"x_max":782,"o":"m 277 793 q 639 262 551 401 q 730 111 726 123 l 733 111 q 726 410 726 262 l 726 593 q 722 884 726 778 l 782 884 q 774 439 774 728 q 775 207 774 308 q 782 0 777 106 l 743 0 q 651 142 742 0 q 489 387 560 283 l 334 614 l 283 688 q 231 764 249 737 q 207 803 214 790 l 204 803 q 210 510 210 642 q 208 334 210 448 l 208 181 q 211 0 208 71 l 151 0 q 163 465 163 262 q 151 884 163 671 l 215 884 q 240 846 215 882 l 277 793 m 378 1047 q 319 1026 351 1047 q 257 971 287 1006 l 235 986 q 400 1104 305 1104 q 488 1087 433 1104 q 576 1069 544 1069 q 640 1084 608 1069 q 697 1126 671 1098 l 724 1111 q 647 1034 688 1056 q 555 1011 606 1011 q 464 1029 511 1011 q 378 1047 416 1047 z "},"Ò":{"ha":960,"x_min":79,"x_max":880,"o":"m 471 -28 q 199 90 318 -28 q 79 429 79 208 q 201 770 79 641 q 488 899 323 899 q 764 778 648 899 q 880 453 880 656 q 759 101 880 231 q 471 -28 637 -28 m 468 852 q 301 795 380 852 q 180 642 222 738 q 138 429 138 546 q 243 124 138 231 q 492 18 349 18 q 721 135 619 18 q 822 440 822 252 q 719 747 822 642 q 468 852 616 852 m 283 1146 l 382 1146 q 399 1117 382 1142 q 465 1032 416 1092 q 513 960 513 972 l 471 960 q 373 1055 463 971 q 283 1146 283 1139 z "},"Ó":{"ha":960,"x_min":79,"x_max":880,"o":"m 471 -28 q 199 90 318 -28 q 79 429 79 208 q 201 770 79 641 q 488 899 323 899 q 764 778 648 899 q 880 453 880 656 q 759 101 880 231 q 471 -28 637 -28 m 468 852 q 301 795 380 852 q 180 642 222 738 q 138 429 138 546 q 243 124 138 231 q 492 18 349 18 q 721 135 619 18 q 822 440 822 252 q 719 747 822 642 q 468 852 616 852 m 496 960 l 450 960 q 518 1055 450 970 q 587 1146 587 1139 l 682 1146 q 592 1054 682 1137 q 496 960 502 972 z "},"Ô":{"ha":960,"x_min":79,"x_max":880,"o":"m 471 -28 q 199 90 318 -28 q 79 429 79 208 q 201 770 79 641 q 488 899 323 899 q 764 778 648 899 q 880 453 880 656 q 759 101 880 231 q 471 -28 637 -28 m 468 852 q 301 795 380 852 q 180 642 222 738 q 138 429 138 546 q 243 124 138 231 q 492 18 349 18 q 721 135 619 18 q 822 440 822 252 q 719 747 822 642 q 468 852 616 852 m 488 1099 q 403 1012 437 1049 q 357 960 370 975 l 309 960 q 363 1037 309 964 q 421 1114 418 1110 l 435 1131 q 445 1146 443 1142 l 528 1146 q 582 1069 536 1131 q 644 987 627 1007 l 654 973 q 663 960 663 962 l 614 960 q 573 1009 607 970 q 488 1099 538 1048 z "},"Õ":{"ha":960,"x_min":79,"x_max":880,"o":"m 471 -28 q 199 90 318 -28 q 79 429 79 208 q 201 770 79 641 q 488 899 323 899 q 764 778 648 899 q 880 453 880 656 q 759 101 880 231 q 471 -28 637 -28 m 468 852 q 301 795 380 852 q 180 642 222 738 q 138 429 138 546 q 243 124 138 231 q 492 18 349 18 q 721 135 619 18 q 822 440 822 252 q 719 747 822 642 q 468 852 616 852 m 395 1047 q 336 1026 368 1047 q 274 971 304 1006 l 252 986 q 417 1104 322 1104 q 505 1087 450 1104 q 593 1069 561 1069 q 656 1084 625 1069 q 714 1126 688 1098 l 741 1111 q 664 1034 705 1056 q 572 1011 623 1011 q 480 1029 528 1011 q 395 1047 433 1047 z "},"Ö":{"ha":960,"x_min":79,"x_max":880,"o":"m 471 -28 q 199 90 318 -28 q 79 429 79 208 q 201 770 79 641 q 488 899 323 899 q 764 778 648 899 q 880 453 880 656 q 759 101 880 231 q 471 -28 637 -28 m 468 852 q 301 795 380 852 q 180 642 222 738 q 138 429 138 546 q 243 124 138 231 q 492 18 349 18 q 721 135 619 18 q 822 440 822 252 q 719 747 822 642 q 468 852 616 852 m 322 1046 q 336 1083 322 1067 q 379 1099 349 1099 q 410 1085 399 1099 q 422 1051 422 1072 q 408 1011 422 1027 q 365 994 394 994 q 334 1009 346 994 q 322 1046 322 1025 m 570 1046 q 583 1083 570 1067 q 622 1099 595 1099 q 655 1086 643 1099 q 667 1051 667 1073 q 653 1011 667 1027 q 612 994 640 994 q 582 1009 593 994 q 570 1046 570 1025 z "},"×":{"ha":700,"x_min":126,"x_max":574,"o":"m 574 532 l 387 342 l 566 165 l 529 129 l 349 306 l 161 119 l 126 155 l 311 345 l 136 522 l 171 557 l 349 380 l 536 568 l 574 532 z "},"Ø":{"ha":960,"x_min":40,"x_max":899,"o":"m 791 746 q 858 614 836 688 q 880 453 880 541 q 759 101 880 231 q 471 -28 637 -28 q 322 3 391 -28 q 199 90 254 34 q 113 -13 143 28 q 83 -69 83 -55 l 40 -57 q 73 11 40 -36 q 168 125 106 57 q 101 259 123 184 q 79 429 79 335 q 201 770 79 641 q 488 899 323 899 q 637 867 568 899 q 762 779 706 836 q 829 865 804 827 q 854 914 854 902 l 899 899 q 871 844 899 884 q 791 746 844 805 m 207 168 l 725 741 q 610 824 673 795 q 468 852 547 852 q 301 795 380 852 q 180 642 222 738 q 138 429 138 546 q 155 286 138 352 q 207 168 172 220 m 754 704 l 236 131 q 342 53 274 87 q 492 18 410 18 q 721 135 619 18 q 822 440 822 252 q 754 704 822 604 z "},"Ù":{"ha":982,"x_min":136,"x_max":843,"o":"m 486 -12 q 227 86 306 -12 q 147 396 147 184 q 136 884 147 626 l 207 884 l 205 825 q 200 514 200 572 q 228 213 200 304 q 314 79 255 121 q 488 37 374 37 q 719 150 652 37 q 786 515 786 262 q 782 691 786 568 q 775 884 779 814 l 843 884 q 838 666 840 810 q 836 427 836 521 q 745 100 836 212 q 486 -12 654 -12 m 312 1146 l 411 1146 q 428 1117 411 1142 q 494 1032 445 1092 q 543 960 543 972 l 500 960 q 402 1055 492 971 q 312 1146 312 1139 z "},"Ú":{"ha":982,"x_min":136,"x_max":843,"o":"m 486 -12 q 227 86 306 -12 q 147 396 147 184 q 136 884 147 626 l 207 884 l 205 825 q 200 514 200 572 q 228 213 200 304 q 314 79 255 121 q 488 37 374 37 q 719 150 652 37 q 786 515 786 262 q 782 691 786 568 q 775 884 779 814 l 843 884 q 838 666 840 810 q 836 427 836 521 q 745 100 836 212 q 486 -12 654 -12 m 477 960 l 431 960 q 499 1055 431 970 q 567 1146 567 1139 l 663 1146 q 572 1054 663 1137 q 477 960 482 972 z "},"Û":{"ha":982,"x_min":136,"x_max":843,"o":"m 486 -12 q 227 86 306 -12 q 147 396 147 184 q 136 884 147 626 l 207 884 l 205 825 q 200 514 200 572 q 228 213 200 304 q 314 79 255 121 q 488 37 374 37 q 719 150 652 37 q 786 515 786 262 q 782 691 786 568 q 775 884 779 814 l 843 884 q 838 666 840 810 q 836 427 836 521 q 745 100 836 212 q 486 -12 654 -12 m 496 1099 q 411 1012 445 1049 q 366 960 378 975 l 317 960 q 372 1037 317 964 q 429 1114 427 1110 l 443 1131 q 453 1146 451 1142 l 536 1146 q 590 1069 545 1131 q 652 987 635 1007 l 663 973 q 671 960 671 962 l 623 960 q 581 1009 615 970 q 496 1099 547 1048 z "},"Ü":{"ha":982,"x_min":136,"x_max":843,"o":"m 486 -12 q 227 86 306 -12 q 147 396 147 184 q 136 884 147 626 l 207 884 l 205 825 q 200 514 200 572 q 228 213 200 304 q 314 79 255 121 q 488 37 374 37 q 719 150 652 37 q 786 515 786 262 q 782 691 786 568 q 775 884 779 814 l 843 884 q 838 666 840 810 q 836 427 836 521 q 745 100 836 212 q 486 -12 654 -12 m 328 1046 q 341 1083 328 1067 q 385 1099 355 1099 q 416 1085 404 1099 q 427 1051 427 1072 q 413 1011 427 1027 q 370 994 399 994 q 339 1009 351 994 q 328 1046 328 1025 m 576 1046 q 588 1083 576 1067 q 627 1099 600 1099 q 660 1086 648 1099 q 672 1051 672 1073 q 659 1011 672 1027 q 618 994 646 994 q 587 1009 599 994 q 576 1046 576 1025 z "},"Ý":{"ha":761,"x_min":24,"x_max":742,"o":"m 404 278 q 410 0 404 148 l 339 0 l 340 16 q 347 279 347 222 q 266 520 347 391 q 104 761 184 650 q 24 884 24 871 l 98 884 q 230 675 98 866 q 380 370 361 485 l 386 370 q 426 493 387 417 q 522 651 465 568 q 627 805 578 734 q 675 884 675 876 l 742 884 q 640 726 742 863 q 471 479 537 589 q 404 278 404 370 m 393 960 l 347 960 q 415 1055 347 970 q 484 1146 484 1139 l 579 1146 q 489 1054 579 1137 q 393 960 399 972 z "},"Þ":{"ha":764,"x_min":150,"x_max":705,"o":"m 319 240 q 232 241 259 240 l 215 241 q 216 123 215 157 q 224 0 217 90 l 150 0 q 159 139 154 66 q 164 329 164 212 q 151 884 162 683 l 222 884 l 218 747 l 235 747 q 313 749 271 747 l 349 751 q 395 751 370 751 q 620 700 535 751 q 705 538 705 648 q 596 318 705 397 q 319 240 487 240 m 383 701 q 216 697 275 701 q 215 467 215 619 l 215 290 q 304 289 235 289 q 558 351 469 289 q 647 524 647 412 q 584 660 647 618 q 383 701 521 701 z "},"ß":{"ha":743,"x_min":106,"x_max":679,"o":"m 106 0 q 114 629 114 225 q 157 834 114 762 q 262 940 200 906 q 414 974 325 974 q 550 929 499 974 q 600 827 600 885 q 588 764 600 795 q 553 707 576 732 l 465 615 q 426 562 440 590 q 412 509 412 534 q 427 445 412 471 q 517 370 441 418 l 550 349 q 653 259 628 297 q 679 155 679 221 q 626 36 679 82 q 454 -11 572 -11 q 304 8 389 -11 l 322 69 q 393 51 361 56 q 468 45 425 45 q 586 74 545 45 q 627 146 627 102 q 604 230 627 197 q 510 309 582 264 l 489 321 q 383 401 410 363 q 355 485 355 439 q 368 560 355 528 q 414 627 380 592 l 493 711 q 531 765 519 741 q 543 821 543 789 q 505 898 543 867 q 393 928 467 928 q 235 858 300 928 q 170 629 170 789 q 176 0 170 276 l 106 0 z "},"à":{"ha":682,"x_min":68,"x_max":575,"o":"m 510 69 q 282 -17 420 -17 q 123 29 179 -17 q 68 163 68 75 q 163 333 68 273 q 510 395 258 393 q 513 443 513 419 q 460 572 513 536 q 315 608 407 608 q 97 581 207 608 l 106 639 q 318 667 210 667 q 501 618 435 667 q 567 457 567 570 q 563 350 567 420 q 559 211 559 280 q 575 0 559 111 l 521 -3 q 514 69 514 39 l 510 69 m 513 347 q 231 306 334 347 q 129 157 129 265 q 289 36 129 36 q 419 58 362 36 q 513 123 475 79 l 513 347 m 158 956 l 254 956 q 315 849 254 948 q 376 736 376 749 l 338 736 q 307 780 338 744 q 250 845 275 817 q 191 913 224 874 q 158 956 158 952 z "},"á":{"ha":682,"x_min":68,"x_max":575,"o":"m 510 69 q 282 -17 420 -17 q 123 29 179 -17 q 68 163 68 75 q 163 333 68 273 q 510 395 258 393 q 513 443 513 419 q 460 572 513 536 q 315 608 407 608 q 97 581 207 608 l 106 639 q 318 667 210 667 q 501 618 435 667 q 567 457 567 570 q 563 350 567 420 q 559 211 559 280 q 575 0 559 111 l 521 -3 q 514 69 514 39 l 510 69 m 513 347 q 231 306 334 347 q 129 157 129 265 q 289 36 129 36 q 419 58 362 36 q 513 123 475 79 l 513 347 m 404 847 q 341 772 366 802 q 317 736 317 743 l 277 736 q 290 765 277 741 q 330 833 302 788 l 382 923 q 399 956 399 953 l 494 956 q 481 938 494 954 q 459 911 468 922 l 404 847 z "},"â":{"ha":682,"x_min":68,"x_max":575,"o":"m 510 69 q 282 -17 420 -17 q 123 29 179 -17 q 68 163 68 75 q 163 333 68 273 q 510 395 258 393 q 513 443 513 419 q 460 572 513 536 q 315 608 407 608 q 97 581 207 608 l 106 639 q 318 667 210 667 q 501 618 435 667 q 567 457 567 570 q 563 350 567 420 q 559 211 559 280 q 575 0 559 111 l 521 -3 q 514 69 514 39 l 510 69 m 513 347 q 231 306 334 347 q 129 157 129 265 q 289 36 129 36 q 419 58 362 36 q 513 123 475 79 l 513 347 m 325 897 q 244 812 310 882 q 178 736 178 743 l 147 736 q 163 768 147 741 q 211 842 178 795 l 267 920 q 292 956 288 950 l 358 956 l 374 932 q 453 819 405 890 q 501 736 501 747 l 471 736 q 438 777 471 741 q 325 897 406 813 z "},"ã":{"ha":682,"x_min":68,"x_max":599,"o":"m 510 69 q 282 -17 420 -17 q 123 29 179 -17 q 68 163 68 75 q 163 333 68 273 q 510 395 258 393 q 513 443 513 419 q 460 572 513 536 q 315 608 407 608 q 97 581 207 608 l 106 639 q 318 667 210 667 q 501 618 435 667 q 567 457 567 570 q 563 350 567 420 q 559 211 559 280 q 575 0 559 111 l 521 -3 q 514 69 514 39 l 510 69 m 513 347 q 231 306 334 347 q 129 157 129 265 q 289 36 129 36 q 419 58 362 36 q 513 123 475 79 l 513 347 m 246 829 q 132 739 191 829 l 110 754 q 275 886 176 886 q 371 869 323 886 q 458 852 418 852 q 517 874 488 852 q 572 942 546 897 l 599 925 q 522 825 563 855 q 431 794 480 794 q 340 812 393 794 q 246 829 288 829 z "},"ä":{"ha":682,"x_min":68,"x_max":575,"o":"m 510 69 q 282 -17 420 -17 q 123 29 179 -17 q 68 163 68 75 q 163 333 68 273 q 510 395 258 393 q 513 443 513 419 q 460 572 513 536 q 315 608 407 608 q 97 581 207 608 l 106 639 q 318 667 210 667 q 501 618 435 667 q 567 457 567 570 q 563 350 567 420 q 559 211 559 280 q 575 0 559 111 l 521 -3 q 514 69 514 39 l 510 69 m 513 347 q 231 306 334 347 q 129 157 129 265 q 289 36 129 36 q 419 58 362 36 q 513 123 475 79 l 513 347 m 167 840 q 181 880 167 863 q 224 897 195 897 q 255 883 243 897 q 267 848 267 869 q 253 808 267 825 q 210 791 239 791 q 179 806 191 791 q 167 840 167 820 m 415 840 q 428 880 415 863 q 467 897 440 897 q 499 884 488 897 q 511 848 511 870 q 498 808 511 825 q 457 791 485 791 q 427 806 438 791 q 415 840 415 820 z "},"å":{"ha":682,"x_min":68,"x_max":575,"o":"m 510 69 q 282 -17 420 -17 q 123 29 179 -17 q 68 163 68 75 q 163 333 68 273 q 510 395 258 393 q 513 443 513 419 q 460 572 513 536 q 315 608 407 608 q 97 581 207 608 l 106 639 q 318 667 210 667 q 501 618 435 667 q 567 457 567 570 q 563 350 567 420 q 559 211 559 280 q 575 0 559 111 l 521 -3 q 514 69 514 39 l 510 69 m 513 347 q 231 306 334 347 q 129 157 129 265 q 289 36 129 36 q 419 58 362 36 q 513 123 475 79 l 513 347 m 332 734 q 244 768 276 734 q 213 854 213 802 q 253 950 213 911 q 349 990 292 990 q 432 961 398 990 q 465 871 465 932 q 424 770 465 806 q 332 734 382 734 m 254 859 q 276 796 254 818 q 335 774 297 774 q 399 801 372 774 q 427 868 427 828 q 403 927 427 905 q 346 950 380 950 q 281 923 309 950 q 254 859 254 896 z "},"æ":{"ha":1136,"x_min":68,"x_max":1053,"o":"m 566 339 q 647 118 566 201 q 863 36 728 36 q 1036 57 966 36 l 1026 3 q 962 -11 1006 -4 q 868 -17 918 -17 q 692 12 765 -17 q 570 111 618 41 l 559 111 q 423 11 484 38 q 282 -17 362 -17 q 123 29 179 -17 q 68 163 68 75 q 163 333 68 273 q 513 395 258 393 q 515 443 515 419 q 463 570 515 532 q 315 608 410 608 q 97 581 207 608 l 106 639 q 318 667 210 667 q 447 647 393 667 q 523 598 500 627 q 553 518 547 568 q 644 626 578 578 q 799 675 709 675 q 985 598 918 675 q 1053 404 1053 522 q 1050 345 1053 367 l 566 339 m 991 387 q 942 564 991 502 q 796 625 893 625 q 644 565 705 625 q 567 387 583 504 l 991 387 m 543 160 q 516 241 522 203 q 510 347 510 279 q 231 306 333 347 q 129 157 129 265 q 289 36 129 36 q 433 72 367 36 q 543 160 499 109 z "},"ç":{"ha":637,"x_min":86,"x_max":575,"o":"m 374 -74 q 510 -212 510 -108 q 471 -313 510 -278 q 358 -349 433 -349 l 351 -315 q 429 -293 401 -315 q 456 -218 456 -271 q 423 -142 456 -172 q 323 -98 391 -113 l 343 -8 q 155 104 224 17 q 86 313 86 191 q 132 500 86 423 q 252 622 178 576 q 433 667 326 667 q 546 648 503 667 l 534 581 q 459 602 490 595 q 397 608 429 608 q 272 572 332 608 q 178 476 212 536 q 144 335 144 415 q 228 117 144 197 q 444 36 311 36 q 505 42 477 36 q 575 61 534 47 l 575 12 q 508 -9 552 -2 q 429 -17 465 -17 q 380 -14 406 -17 l 374 -74 z "},"è":{"ha":714,"x_min":85,"x_max":631,"o":"m 140 339 q 221 122 140 208 q 440 36 302 36 q 614 57 545 36 l 604 3 q 539 -11 583 -4 q 446 -17 495 -17 q 175 78 266 -17 q 85 311 85 172 q 103 448 85 385 q 157 564 121 511 q 376 675 242 675 q 564 597 497 675 q 631 404 631 519 q 628 345 631 367 l 140 339 m 144 387 l 570 387 q 520 564 570 502 q 374 625 471 625 q 222 565 283 625 q 144 387 161 504 m 201 956 l 298 956 q 359 849 298 948 q 420 736 420 749 l 382 736 q 350 780 382 744 q 293 845 319 817 q 235 913 268 874 q 201 956 201 952 z "},"é":{"ha":714,"x_min":85,"x_max":631,"o":"m 140 339 q 221 122 140 208 q 440 36 302 36 q 614 57 545 36 l 604 3 q 539 -11 583 -4 q 446 -17 495 -17 q 175 78 266 -17 q 85 311 85 172 q 103 448 85 385 q 157 564 121 511 q 376 675 242 675 q 564 597 497 675 q 631 404 631 519 q 628 345 631 367 l 140 339 m 144 387 l 570 387 q 520 564 570 502 q 374 625 471 625 q 222 565 283 625 q 144 387 161 504 m 486 847 q 423 772 448 802 q 399 736 399 743 l 359 736 q 372 765 359 741 q 412 833 385 788 l 464 923 q 481 956 481 953 l 576 956 q 563 938 576 954 q 541 911 550 922 l 486 847 z "},"ê":{"ha":714,"x_min":85,"x_max":631,"o":"m 140 339 q 221 122 140 208 q 440 36 302 36 q 614 57 545 36 l 604 3 q 539 -11 583 -4 q 446 -17 495 -17 q 175 78 266 -17 q 85 311 85 172 q 103 448 85 385 q 157 564 121 511 q 376 675 242 675 q 564 597 497 675 q 631 404 631 519 q 628 345 631 367 l 140 339 m 144 387 l 570 387 q 520 564 570 502 q 374 625 471 625 q 222 565 283 625 q 144 387 161 504 m 379 897 q 298 812 364 882 q 232 736 232 743 l 201 736 q 217 768 201 741 q 265 842 233 795 l 321 920 q 346 956 342 950 l 412 956 l 429 932 q 507 819 459 890 q 555 736 555 747 l 525 736 q 493 777 525 741 q 379 897 460 813 z "},"ë":{"ha":714,"x_min":85,"x_max":631,"o":"m 140 339 q 221 122 140 208 q 440 36 302 36 q 614 57 545 36 l 604 3 q 539 -11 583 -4 q 446 -17 495 -17 q 175 78 266 -17 q 85 311 85 172 q 103 448 85 385 q 157 564 121 511 q 376 675 242 675 q 564 597 497 675 q 631 404 631 519 q 628 345 631 367 l 140 339 m 144 387 l 570 387 q 520 564 570 502 q 374 625 471 625 q 222 565 283 625 q 144 387 161 504 m 207 840 q 221 880 207 863 q 264 897 235 897 q 295 883 283 897 q 307 848 307 869 q 293 808 307 825 q 250 791 279 791 q 219 806 231 791 q 207 840 207 820 m 455 840 q 468 880 455 863 q 507 897 480 897 q 539 884 528 897 q 551 848 551 870 q 538 808 551 825 q 497 791 525 791 q 467 806 478 791 q 455 840 455 820 z "},"ì":{"ha":261,"x_min":-67,"x_max":165,"o":"m 86 639 l 163 657 q 155 300 155 499 q 165 0 155 134 l 94 0 q 104 300 104 164 q 86 639 104 491 m -67 956 l 29 956 q 90 849 29 948 q 151 736 151 749 l 113 736 q 82 780 113 744 q 25 845 50 817 q -34 913 -1 874 q -67 956 -67 952 z "},"í":{"ha":261,"x_min":73,"x_max":290,"o":"m 86 639 l 163 657 q 155 300 155 499 q 165 0 155 134 l 94 0 q 104 300 104 164 q 86 639 104 491 m 200 847 q 137 772 161 802 q 113 736 113 743 l 73 736 q 85 765 73 741 q 125 833 98 788 l 178 923 q 195 956 195 953 l 290 956 q 277 938 290 954 q 255 911 264 922 l 200 847 z "},"î":{"ha":261,"x_min":-52,"x_max":302,"o":"m 86 639 l 163 657 q 155 300 155 499 q 165 0 155 134 l 94 0 q 104 300 104 164 q 86 639 104 491 m 126 897 q 45 812 111 882 q -21 736 -21 743 l -52 736 q -36 768 -52 741 q 12 842 -20 795 l 68 920 q 93 956 90 950 l 159 956 l 176 932 q 254 819 206 890 q 302 736 302 747 l 272 736 q 240 777 272 741 q 126 897 208 813 z "},"ï":{"ha":261,"x_min":-54,"x_max":290,"o":"m 86 639 l 163 657 q 155 300 155 499 q 165 0 155 134 l 94 0 q 104 300 104 164 q 86 639 104 491 m -54 840 q -40 880 -54 863 q 3 897 -26 897 q 34 883 22 897 q 45 848 45 869 q 32 808 45 825 q -12 791 18 791 q -42 806 -31 791 q -54 840 -54 820 m 194 840 q 207 880 194 863 q 245 897 219 897 q 278 884 267 897 q 290 848 290 870 q 277 808 290 825 q 236 791 264 791 q 205 806 217 791 q 194 840 194 820 z "},"ð":{"ha":755,"x_min":83,"x_max":663,"o":"m 510 818 q 663 372 663 604 q 575 73 663 172 q 368 -26 488 -26 q 163 59 242 -26 q 83 297 83 144 q 173 535 83 436 q 386 635 262 635 q 480 621 435 635 q 574 581 526 608 l 575 581 q 537 674 568 622 q 460 789 506 726 q 345 708 412 758 l 307 755 q 345 777 325 766 l 425 825 q 318 921 366 887 l 353 962 q 475 856 408 925 l 514 881 q 606 940 576 918 l 637 890 l 510 818 m 603 366 q 587 521 603 430 q 493 566 542 551 q 383 581 445 581 q 212 503 282 581 q 142 306 142 425 q 206 96 142 172 q 370 20 270 20 q 537 103 471 20 q 603 366 603 186 z "},"ñ":{"ha":742,"x_min":102,"x_max":642,"o":"m 180 567 l 182 567 q 403 667 293 667 q 579 616 520 667 q 639 441 639 566 l 638 393 q 637 358 638 381 q 638 224 637 275 l 639 0 l 571 0 q 587 429 587 207 q 531 572 587 534 q 387 611 475 611 q 180 524 274 611 q 179 354 179 474 q 180 187 179 266 l 181 43 q 182 0 181 29 l 117 0 q 129 334 129 250 q 102 644 129 469 l 168 659 l 180 567 m 289 829 q 175 739 233 829 l 153 754 q 318 886 219 886 q 413 869 366 886 q 501 852 461 852 q 560 874 531 852 q 615 942 589 897 l 642 925 q 564 825 606 855 q 473 794 523 794 q 383 812 435 794 q 289 829 330 829 z "},"ò":{"ha":777,"x_min":86,"x_max":688,"o":"m 374 -26 q 169 60 251 -26 q 86 297 86 146 q 178 572 86 471 q 404 673 271 673 q 599 592 510 673 q 688 346 688 511 q 595 74 688 174 q 374 -26 503 -26 m 386 628 q 203 532 261 628 q 144 328 144 436 q 211 106 144 192 q 387 20 277 20 q 571 116 511 20 q 631 319 631 212 q 563 540 631 452 q 386 628 495 628 m 222 956 l 318 956 q 379 849 318 948 q 440 736 440 749 l 402 736 q 371 780 402 744 q 314 845 339 817 q 255 913 288 874 q 222 956 222 952 z "},"ó":{"ha":777,"x_min":86,"x_max":688,"o":"m 374 -26 q 169 60 251 -26 q 86 297 86 146 q 178 572 86 471 q 404 673 271 673 q 599 592 510 673 q 688 346 688 511 q 595 74 688 174 q 374 -26 503 -26 m 386 628 q 203 532 261 628 q 144 328 144 436 q 211 106 144 192 q 387 20 277 20 q 571 116 511 20 q 631 319 631 212 q 563 540 631 452 q 386 628 495 628 m 488 847 q 425 772 449 802 q 400 736 400 743 l 360 736 q 373 765 360 741 q 413 833 386 788 l 465 923 q 482 956 482 953 l 578 956 q 565 938 578 954 q 543 911 551 922 l 488 847 z "},"ô":{"ha":777,"x_min":86,"x_max":688,"o":"m 374 -26 q 169 60 251 -26 q 86 297 86 146 q 178 572 86 471 q 404 673 271 673 q 599 592 510 673 q 688 346 688 511 q 595 74 688 174 q 374 -26 503 -26 m 386 628 q 203 532 261 628 q 144 328 144 436 q 211 106 144 192 q 387 20 277 20 q 571 116 511 20 q 631 319 631 212 q 563 540 631 452 q 386 628 495 628 m 389 897 q 308 812 374 882 q 241 736 241 743 l 211 736 q 227 768 211 741 q 275 842 242 795 l 331 920 q 355 956 352 950 l 422 956 l 438 932 q 517 819 469 890 q 565 736 565 747 l 534 736 q 502 777 534 741 q 389 897 470 813 z "},"õ":{"ha":777,"x_min":86,"x_max":688,"o":"m 374 -26 q 169 60 251 -26 q 86 297 86 146 q 178 572 86 471 q 404 673 271 673 q 599 592 510 673 q 688 346 688 511 q 595 74 688 174 q 374 -26 503 -26 m 386 628 q 203 532 261 628 q 144 328 144 436 q 211 106 144 192 q 387 20 277 20 q 571 116 511 20 q 631 319 631 212 q 563 540 631 452 q 386 628 495 628 m 300 829 q 186 739 245 829 l 164 754 q 330 886 231 886 q 425 869 377 886 q 513 852 473 852 q 571 874 543 852 q 627 942 600 897 l 653 925 q 576 825 617 855 q 485 794 534 794 q 394 812 447 794 q 300 829 342 829 z "},"ö":{"ha":777,"x_min":86,"x_max":688,"o":"m 374 -26 q 169 60 251 -26 q 86 297 86 146 q 178 572 86 471 q 404 673 271 673 q 599 592 510 673 q 688 346 688 511 q 595 74 688 174 q 374 -26 503 -26 m 386 628 q 203 532 261 628 q 144 328 144 436 q 211 106 144 192 q 387 20 277 20 q 571 116 511 20 q 631 319 631 212 q 563 540 631 452 q 386 628 495 628 m 221 840 q 235 880 221 863 q 278 897 249 897 q 309 883 298 897 q 321 848 321 869 q 307 808 321 825 q 264 791 293 791 q 233 806 245 791 q 221 840 221 820 m 469 840 q 482 880 469 863 q 521 897 494 897 q 554 884 542 897 q 566 848 566 870 q 552 808 566 825 q 511 791 539 791 q 481 806 492 791 q 469 840 469 820 z "},"÷":{"ha":700,"x_min":81,"x_max":623,"o":"m 309 555 q 321 593 309 577 q 361 608 334 608 q 393 598 382 608 q 404 563 404 588 q 389 517 404 530 q 350 504 373 504 q 318 519 328 504 q 309 555 309 534 m 623 319 l 81 319 l 81 370 l 623 370 l 623 319 m 301 122 q 314 159 301 144 q 354 175 327 175 q 388 163 378 175 q 397 135 397 151 q 385 86 397 104 q 343 69 373 69 q 311 85 321 69 q 301 122 301 100 z "},"ø":{"ha":777,"x_min":45,"x_max":730,"o":"m 637 546 q 688 346 688 469 q 595 74 688 174 q 374 -26 503 -26 q 180 47 262 -26 q 114 -27 152 15 q 75 -78 75 -70 l 45 -65 q 67 -20 45 -52 q 150 81 90 11 q 86 297 86 164 q 178 572 86 471 q 404 673 271 673 q 511 651 460 673 q 604 587 562 629 l 612 579 q 677 651 658 628 q 696 682 696 674 l 730 665 q 707 626 730 656 q 637 546 684 595 m 196 132 l 567 530 q 492 604 536 579 q 386 628 448 628 q 203 532 261 628 q 144 328 144 436 q 196 132 144 224 m 589 492 l 222 93 q 387 20 283 20 q 571 116 511 20 q 631 319 631 212 q 589 492 631 408 z "},"ù":{"ha":737,"x_min":115,"x_max":644,"o":"m 590 -1 q 582 64 582 37 l 579 64 q 481 8 540 32 q 353 -16 422 -16 q 166 46 211 -16 q 121 215 121 109 l 121 301 q 122 347 121 317 q 123 447 123 385 q 115 642 123 534 l 187 646 q 182 375 182 527 q 189 177 182 253 q 231 71 195 101 q 357 40 267 40 q 578 115 498 40 q 572 642 578 522 l 636 646 l 635 600 q 632 277 632 396 q 644 0 632 136 l 590 -1 m 196 956 l 292 956 q 353 849 292 948 q 414 736 414 749 l 376 736 q 345 780 376 744 q 288 845 313 817 q 229 913 262 874 q 196 956 196 952 z "},"ú":{"ha":737,"x_min":115,"x_max":644,"o":"m 590 -1 q 582 64 582 37 l 579 64 q 481 8 540 32 q 353 -16 422 -16 q 166 46 211 -16 q 121 215 121 109 l 121 301 q 122 347 121 317 q 123 447 123 385 q 115 642 123 534 l 187 646 q 182 375 182 527 q 189 177 182 253 q 231 71 195 101 q 357 40 267 40 q 578 115 498 40 q 572 642 578 522 l 636 646 l 635 600 q 632 277 632 396 q 644 0 632 136 l 590 -1 m 467 847 q 404 772 428 802 q 379 736 379 743 l 339 736 q 352 765 339 741 q 392 833 365 788 l 444 923 q 461 956 461 953 l 557 956 q 544 938 557 954 q 522 911 530 922 l 467 847 z "},"û":{"ha":737,"x_min":115,"x_max":644,"o":"m 590 -1 q 582 64 582 37 l 579 64 q 481 8 540 32 q 353 -16 422 -16 q 166 46 211 -16 q 121 215 121 109 l 121 301 q 122 347 121 317 q 123 447 123 385 q 115 642 123 534 l 187 646 q 182 375 182 527 q 189 177 182 253 q 231 71 195 101 q 357 40 267 40 q 578 115 498 40 q 572 642 578 522 l 636 646 l 635 600 q 632 277 632 396 q 644 0 632 136 l 590 -1 m 379 897 q 298 812 364 882 q 232 736 232 743 l 201 736 q 217 768 201 741 q 265 842 233 795 l 321 920 q 346 956 342 950 l 412 956 l 429 932 q 507 819 459 890 q 555 736 555 747 l 525 736 q 493 777 525 741 q 379 897 460 813 z "},"ü":{"ha":737,"x_min":115,"x_max":644,"o":"m 590 -1 q 582 64 582 37 l 579 64 q 481 8 540 32 q 353 -16 422 -16 q 166 46 211 -16 q 121 215 121 109 l 121 301 q 122 347 121 317 q 123 447 123 385 q 115 642 123 534 l 187 646 q 182 375 182 527 q 189 177 182 253 q 231 71 195 101 q 357 40 267 40 q 578 115 498 40 q 572 642 578 522 l 636 646 l 635 600 q 632 277 632 396 q 644 0 632 136 l 590 -1 m 201 840 q 215 880 201 863 q 258 897 229 897 q 290 883 278 897 q 301 848 301 869 q 287 808 301 825 q 244 791 273 791 q 213 806 225 791 q 201 840 201 820 m 450 840 q 462 880 450 863 q 501 897 475 897 q 534 884 522 897 q 546 848 546 870 q 533 808 546 825 q 492 791 519 791 q 461 806 473 791 q 450 840 450 820 z "},"ý":{"ha":614,"x_min":35,"x_max":575,"o":"m 86 -300 l 89 -244 q 237 -174 186 -244 q 289 -11 289 -104 q 239 165 289 33 q 77 551 189 298 l 35 644 l 110 644 q 215 370 110 622 q 325 60 321 117 l 328 60 q 416 349 328 109 q 505 644 505 590 l 575 644 q 541 543 575 620 q 437 271 507 465 q 336 -53 366 76 q 245 -241 305 -182 q 86 -300 186 -300 m 410 847 q 347 772 371 802 q 322 736 322 743 l 282 736 q 295 765 282 741 q 335 833 308 788 l 387 923 q 404 956 404 953 l 500 956 q 487 938 500 954 q 465 911 473 922 l 410 847 z "},"þ":{"ha":766,"x_min":96,"x_max":679,"o":"m 361 -17 q 249 -4 295 -17 q 182 26 202 9 l 176 26 q 180 -310 176 -183 l 107 -310 q 112 -109 111 -222 q 113 134 113 4 l 113 507 q 96 956 113 770 l 176 958 q 168 579 168 795 l 171 579 q 262 643 202 618 q 403 668 323 668 q 605 572 532 668 q 679 347 679 476 q 591 86 679 189 q 361 -17 503 -17 m 375 614 q 254 587 307 614 q 165 517 201 560 q 169 347 165 450 l 171 212 q 172 79 172 128 q 251 44 204 56 q 350 32 297 32 q 544 116 475 32 q 614 339 614 199 q 550 542 614 469 q 375 614 486 614 z "},"ÿ":{"ha":614,"x_min":35,"x_max":575,"o":"m 86 -300 l 89 -244 q 237 -174 186 -244 q 289 -11 289 -104 q 239 165 289 33 q 77 551 189 298 l 35 644 l 110 644 q 215 370 110 622 q 325 60 321 117 l 328 60 q 416 349 328 109 q 505 644 505 590 l 575 644 q 541 543 575 620 q 437 271 507 465 q 336 -53 366 76 q 245 -241 305 -182 q 86 -300 186 -300 m 144 840 q 158 880 144 863 q 201 897 172 897 q 233 883 221 897 q 244 848 244 869 q 230 808 244 825 q 187 791 216 791 q 156 806 168 791 q 144 840 144 820 m 393 840 q 405 880 393 863 q 444 897 418 897 q 477 884 465 897 q 489 848 489 870 q 476 808 489 825 q 435 791 463 791 q 404 806 416 791 q 393 840 393 820 z "},"Ā":{"ha":836,"x_min":7,"x_max":833,"o":"m 199 322 q 108 100 136 177 q 79 0 79 22 l 7 0 q 196 431 7 22 q 385 884 385 840 l 461 884 q 647 440 461 844 q 833 0 833 36 l 764 0 q 642 322 764 44 l 199 322 m 422 828 l 416 828 q 215 367 416 808 l 621 367 q 471 709 520 602 q 422 828 422 817 m 586 1069 l 578 1021 l 278 1021 l 288 1069 l 586 1069 z "},"ā":{"ha":682,"x_min":68,"x_max":575,"o":"m 510 69 q 282 -17 420 -17 q 123 29 179 -17 q 68 163 68 75 q 163 333 68 273 q 510 395 258 393 q 513 443 513 419 q 460 572 513 536 q 315 608 407 608 q 97 581 207 608 l 106 639 q 318 667 210 667 q 501 618 435 667 q 567 457 567 570 q 563 350 567 420 q 559 211 559 280 q 575 0 559 111 l 521 -3 q 514 69 514 39 l 510 69 m 513 347 q 231 306 334 347 q 129 157 129 265 q 289 36 129 36 q 419 58 362 36 q 513 123 475 79 l 513 347 m 477 872 l 471 821 l 211 821 l 217 872 l 477 872 z "},"Ă":{"ha":836,"x_min":7,"x_max":833,"o":"m 199 322 q 108 100 136 177 q 79 0 79 22 l 7 0 q 196 431 7 22 q 385 884 385 840 l 461 884 q 647 440 461 844 q 833 0 833 36 l 764 0 q 642 322 764 44 l 199 322 m 422 828 l 416 828 q 215 367 416 808 l 621 367 q 471 709 520 602 q 422 828 422 817 m 229 1120 l 269 1141 q 420 1044 315 1044 q 509 1068 471 1044 q 579 1141 548 1093 l 618 1120 q 423 991 551 991 q 309 1024 359 991 q 229 1120 259 1057 z "},"ă":{"ha":682,"x_min":68,"x_max":575,"o":"m 510 69 q 282 -17 420 -17 q 123 29 179 -17 q 68 163 68 75 q 163 333 68 273 q 510 395 258 393 q 513 443 513 419 q 460 572 513 536 q 315 608 407 608 q 97 581 207 608 l 106 639 q 318 667 210 667 q 501 618 435 667 q 567 457 567 570 q 563 350 567 420 q 559 211 559 280 q 575 0 559 111 l 521 -3 q 514 69 514 39 l 510 69 m 513 347 q 231 306 334 347 q 129 157 129 265 q 289 36 129 36 q 419 58 362 36 q 513 123 475 79 l 513 347 m 154 895 l 193 921 q 254 856 214 881 q 346 831 294 831 q 505 921 452 831 l 543 895 q 349 781 479 781 q 154 895 218 781 z "},"Ą":{"ha":840,"x_min":7,"x_max":848,"o":"m 848 -313 q 805 -325 829 -321 q 758 -329 781 -329 q 681 -293 717 -329 q 646 -199 646 -258 q 674 -91 646 -137 q 764 0 703 -45 q 642 322 764 44 l 199 322 q 108 100 136 177 q 79 0 79 22 l 7 0 q 196 431 7 22 q 385 884 385 840 l 461 884 q 647 440 461 844 q 833 0 833 36 q 726 -93 758 -48 q 693 -199 693 -137 q 715 -260 693 -234 q 772 -286 737 -286 q 838 -272 806 -286 l 848 -313 m 621 367 q 471 709 520 602 q 422 828 422 817 l 416 828 q 215 367 416 808 l 621 367 z "},"ą":{"ha":682,"x_min":68,"x_max":607,"o":"m 607 -298 q 564 -311 588 -307 q 517 -315 540 -315 q 438 -283 473 -315 q 404 -193 404 -251 q 430 -97 404 -139 q 521 0 456 -54 q 514 69 514 39 l 510 69 q 282 -17 420 -17 q 123 29 179 -17 q 68 163 68 75 q 163 333 68 273 q 510 395 258 393 q 513 443 513 419 q 460 572 513 536 q 315 608 407 608 q 97 581 207 608 l 106 639 q 318 667 210 667 q 501 618 435 667 q 567 457 567 570 q 563 350 567 420 q 559 211 559 280 q 575 0 559 111 q 476 -102 500 -62 q 452 -191 452 -142 q 473 -251 452 -230 q 530 -272 494 -272 q 596 -258 565 -272 l 607 -298 m 513 347 q 231 306 334 347 q 129 157 129 265 q 289 36 129 36 q 419 58 362 36 q 513 123 475 79 l 513 347 z "},"Ć":{"ha":758,"x_min":79,"x_max":721,"o":"m 79 422 q 142 668 79 559 q 312 836 204 777 q 542 896 419 896 q 605 891 579 896 q 665 876 630 887 l 652 819 q 526 840 574 840 q 246 730 354 840 q 138 440 138 620 q 248 133 138 236 q 558 31 358 31 q 721 60 625 31 l 717 9 q 542 -18 642 -18 q 204 98 328 -18 q 79 422 79 215 m 427 960 l 380 960 q 449 1055 380 970 q 517 1146 517 1139 l 612 1146 q 522 1054 612 1137 q 427 960 432 972 z "},"ć":{"ha":637,"x_min":86,"x_max":575,"o":"m 144 335 q 228 117 144 197 q 444 36 311 36 q 505 42 477 36 q 575 61 534 47 l 575 12 q 508 -9 552 -2 q 429 -17 465 -17 q 181 75 275 -17 q 86 313 86 168 q 132 500 86 423 q 252 622 178 576 q 433 667 326 667 q 546 648 503 667 l 534 581 q 459 602 490 595 q 397 608 429 608 q 272 572 332 608 q 178 476 212 536 q 144 335 144 415 m 452 847 q 389 772 413 802 q 364 736 364 743 l 324 736 q 337 765 324 741 q 377 833 350 788 l 429 923 q 446 956 446 953 l 542 956 q 529 938 542 954 q 507 911 515 922 l 452 847 z "},"Ċ":{"ha":758,"x_min":79,"x_max":721,"o":"m 79 422 q 142 668 79 559 q 312 836 204 777 q 542 896 419 896 q 605 891 579 896 q 665 876 630 887 l 652 819 q 526 840 574 840 q 246 730 354 840 q 138 440 138 620 q 248 133 138 236 q 558 31 358 31 q 721 60 625 31 l 717 9 q 542 -18 642 -18 q 204 98 328 -18 q 79 422 79 215 m 452 1054 q 466 1092 452 1076 q 509 1108 480 1108 q 541 1093 530 1108 q 551 1060 551 1078 q 539 1020 551 1036 q 500 1004 528 1004 q 464 1020 475 1004 q 452 1054 452 1035 z "},"ċ":{"ha":637,"x_min":86,"x_max":575,"o":"m 144 335 q 228 117 144 197 q 444 36 311 36 q 505 42 477 36 q 575 61 534 47 l 575 12 q 508 -9 552 -2 q 429 -17 465 -17 q 181 75 275 -17 q 86 313 86 168 q 132 500 86 423 q 252 622 178 576 q 433 667 326 667 q 546 648 503 667 l 534 581 q 459 602 490 595 q 397 608 429 608 q 272 572 332 608 q 178 476 212 536 q 144 335 144 415 m 355 839 q 369 879 355 862 q 410 896 382 896 q 444 880 433 896 q 455 846 455 865 q 443 806 455 823 q 401 790 430 790 q 366 804 376 790 q 355 839 355 818 z "},"Č":{"ha":758,"x_min":79,"x_max":721,"o":"m 79 422 q 142 668 79 559 q 312 836 204 777 q 542 896 419 896 q 605 891 579 896 q 665 876 630 887 l 652 819 q 526 840 574 840 q 246 730 354 840 q 138 440 138 620 q 248 133 138 236 q 558 31 358 31 q 721 60 625 31 l 717 9 q 542 -18 642 -18 q 204 98 328 -18 q 79 422 79 215 m 692 1146 q 682 1131 692 1143 l 670 1115 q 611 1037 656 1099 q 557 960 566 976 l 474 960 q 464 975 472 964 l 450 992 q 385 1078 433 1015 q 338 1146 338 1141 l 374 1146 l 406 1115 q 515 1010 453 1072 q 598 1090 543 1038 q 654 1146 653 1143 l 692 1146 z "},"č":{"ha":637,"x_min":86,"x_max":575,"o":"m 144 335 q 228 117 144 197 q 444 36 311 36 q 505 42 477 36 q 575 61 534 47 l 575 12 q 508 -9 552 -2 q 429 -17 465 -17 q 181 75 275 -17 q 86 313 86 168 q 132 500 86 423 q 252 622 178 576 q 433 667 326 667 q 546 648 503 667 l 534 581 q 459 602 490 595 q 397 608 429 608 q 272 572 332 608 q 178 476 212 536 q 144 335 144 415 m 572 956 q 557 926 572 951 q 487 820 543 900 l 429 736 l 362 736 q 290 839 362 737 q 218 956 218 941 l 248 956 q 279 916 248 952 q 395 790 309 880 q 479 879 417 812 q 541 956 541 946 l 572 956 z "},"Ď":{"ha":890,"x_min":151,"x_max":807,"o":"m 279 886 q 354 888 319 888 q 688 780 569 888 q 807 458 807 673 q 681 117 807 245 q 345 -11 555 -11 q 269 -7 325 -11 l 151 0 q 163 465 163 245 q 151 884 163 671 l 189 884 q 242 884 219 884 l 279 886 m 749 443 q 645 745 749 653 q 366 838 541 838 q 214 832 267 838 q 214 653 214 713 l 215 465 l 214 271 q 218 45 214 138 q 274 39 246 41 q 342 37 301 37 q 642 144 536 37 q 749 443 749 251 m 618 1146 q 608 1131 618 1143 l 596 1115 q 537 1037 583 1099 q 484 960 492 976 l 400 960 q 390 975 398 964 l 376 992 q 311 1078 359 1015 q 264 1146 264 1141 l 300 1146 l 332 1115 q 441 1010 379 1072 q 524 1090 469 1038 q 581 1146 579 1143 l 618 1146 z "},"ď":{"ha":825,"x_min":86,"x_max":832,"o":"m 651 646 l 652 510 q 664 0 652 208 l 607 -1 q 602 72 602 31 l 595 72 q 503 9 564 35 q 367 -17 443 -17 q 164 76 243 -17 q 86 304 86 170 q 175 568 86 466 q 412 669 264 669 q 519 655 474 669 q 589 615 564 642 l 590 615 q 585 954 590 737 l 656 958 q 650 761 650 877 q 651 646 650 686 m 590 566 q 517 607 561 593 q 422 621 474 621 q 219 539 288 621 q 151 304 151 458 q 216 111 151 183 q 395 39 281 39 q 498 57 452 39 q 600 134 545 76 q 601 237 600 168 q 590 566 601 414 m 789 778 q 727 794 748 778 q 707 836 707 810 q 722 881 707 863 q 765 900 736 900 q 832 811 832 900 q 800 709 832 768 q 739 631 768 651 l 724 650 q 772 724 755 689 q 789 778 789 758 z "},"Đ":{"ha":890,"x_min":49,"x_max":807,"o":"m 345 -11 q 269 -7 325 -11 l 151 0 q 163 412 161 235 l 49 408 l 53 460 q 108 458 90 458 l 163 457 l 163 465 q 151 884 163 671 l 189 884 q 242 884 219 884 l 279 886 q 354 888 319 888 q 688 780 569 888 q 807 458 807 673 q 681 117 807 245 q 345 -11 555 -11 m 366 838 q 214 832 267 838 q 214 653 214 713 l 215 457 q 511 460 316 457 l 510 408 q 410 409 454 408 l 336 410 q 215 412 264 412 l 215 281 q 218 45 215 145 q 274 39 246 41 q 342 37 301 37 q 642 144 536 37 q 749 443 749 251 q 645 745 749 653 q 366 838 541 838 z "},"đ":{"ha":764,"x_min":86,"x_max":768,"o":"m 764 743 l 650 743 l 650 634 q 652 510 652 554 q 664 0 652 208 l 607 -1 q 602 72 602 31 l 595 72 q 503 9 564 35 q 367 -17 443 -17 q 164 70 241 -17 q 86 290 86 157 q 174 546 86 450 q 412 642 262 642 q 520 628 474 642 q 590 589 566 614 q 589 743 590 690 l 371 743 l 375 789 l 589 789 l 585 954 l 656 958 q 653 895 654 930 q 651 845 652 859 q 650 789 651 827 l 768 789 l 764 743 m 590 539 q 518 580 562 567 q 422 593 475 593 q 218 517 285 593 q 151 290 151 441 q 215 105 151 171 q 395 39 279 39 q 498 57 452 39 q 600 134 545 76 q 601 233 600 168 q 590 539 601 387 z "},"Ē":{"ha":715,"x_min":151,"x_max":675,"o":"m 151 0 l 156 142 q 164 465 164 347 q 158 732 164 589 q 151 884 152 875 l 632 884 l 629 828 q 212 833 479 833 q 215 489 215 683 q 549 497 428 489 l 549 436 q 215 443 387 443 l 215 293 q 218 49 215 147 q 675 60 469 49 l 672 0 l 151 0 m 551 1069 l 543 1021 l 243 1021 l 253 1069 l 551 1069 z "},"ē":{"ha":714,"x_min":85,"x_max":631,"o":"m 140 339 q 221 122 140 208 q 440 36 302 36 q 614 57 545 36 l 604 3 q 539 -11 583 -4 q 446 -17 495 -17 q 175 78 266 -17 q 85 311 85 172 q 103 448 85 385 q 157 564 121 511 q 376 675 242 675 q 564 597 497 675 q 631 404 631 519 q 628 345 631 367 l 140 339 m 144 387 l 570 387 q 520 564 570 502 q 374 625 471 625 q 222 565 283 625 q 144 387 161 504 m 526 872 l 519 821 l 260 821 l 266 872 l 526 872 z "},"Ė":{"ha":715,"x_min":151,"x_max":675,"o":"m 151 0 l 156 142 q 164 465 164 347 q 158 732 164 589 q 151 884 152 875 l 632 884 l 629 828 q 212 833 479 833 q 215 489 215 683 q 549 497 428 489 l 549 436 q 215 443 387 443 l 215 293 q 218 49 215 147 q 675 60 469 49 l 672 0 l 151 0 m 346 1054 q 360 1092 346 1076 q 403 1108 374 1108 q 435 1093 425 1108 q 446 1060 446 1078 q 434 1020 446 1036 q 394 1004 422 1004 q 358 1020 370 1004 q 346 1054 346 1035 z "},"ė":{"ha":714,"x_min":85,"x_max":631,"o":"m 140 339 q 221 122 140 208 q 440 36 302 36 q 614 57 545 36 l 604 3 q 539 -11 583 -4 q 446 -17 495 -17 q 175 78 266 -17 q 85 311 85 172 q 103 448 85 385 q 157 564 121 511 q 376 675 242 675 q 564 597 497 675 q 631 404 631 519 q 628 345 631 367 l 140 339 m 144 387 l 570 387 q 520 564 570 502 q 374 625 471 625 q 222 565 283 625 q 144 387 161 504 m 343 839 q 356 879 343 862 q 397 896 370 896 q 432 880 421 896 q 443 846 443 865 q 430 806 443 823 q 389 790 418 790 q 354 804 364 790 q 343 839 343 818 z "},"Ę":{"ha":715,"x_min":151,"x_max":688,"o":"m 688 -313 q 644 -325 669 -321 q 597 -329 620 -329 q 518 -299 551 -329 q 485 -212 485 -269 q 513 -101 485 -150 q 602 -8 542 -52 l 602 0 l 151 0 l 156 142 q 164 465 164 347 q 158 732 164 589 q 151 884 152 875 l 632 884 l 629 828 q 212 833 479 833 q 215 489 215 683 q 549 497 428 489 l 549 436 q 215 443 387 443 l 215 293 q 218 49 215 147 q 675 60 469 49 l 672 0 q 566 -98 600 -47 q 532 -212 532 -149 q 553 -267 532 -247 q 611 -286 574 -286 q 676 -272 646 -286 l 688 -313 z "},"ę":{"ha":714,"x_min":85,"x_max":646,"o":"m 646 -313 q 602 -325 627 -321 q 555 -329 578 -329 q 477 -296 511 -329 q 443 -207 443 -264 q 459 -120 443 -161 q 529 -18 476 -79 l 529 -11 q 446 -17 496 -17 q 175 78 266 -17 q 85 311 85 172 q 103 448 85 385 q 157 564 121 511 q 376 675 242 675 q 564 597 497 675 q 631 404 631 519 q 628 345 631 367 l 140 339 q 221 122 140 208 q 440 36 302 36 q 614 57 545 36 l 604 3 q 519 -100 549 -52 q 490 -207 490 -149 q 512 -264 490 -243 q 570 -286 534 -286 q 635 -272 604 -286 l 646 -313 m 570 387 q 520 564 570 502 q 374 625 471 625 q 222 565 283 625 q 144 387 161 504 l 570 387 z "},"Ě":{"ha":715,"x_min":151,"x_max":675,"o":"m 151 0 l 156 142 q 164 465 164 347 q 158 732 164 589 q 151 884 152 875 l 632 884 l 629 828 q 212 833 479 833 q 215 489 215 683 q 549 497 428 489 l 549 436 q 215 443 387 443 l 215 293 q 218 49 215 147 q 675 60 469 49 l 672 0 l 151 0 m 583 1146 q 574 1131 583 1143 l 562 1115 q 503 1037 548 1099 q 449 960 458 976 l 366 960 q 355 975 363 964 l 342 992 q 277 1078 324 1015 q 229 1146 229 1141 l 265 1146 l 297 1115 q 407 1010 345 1072 q 490 1090 435 1038 q 546 1146 545 1143 l 583 1146 z "},"ě":{"ha":714,"x_min":85,"x_max":631,"o":"m 140 339 q 221 122 140 208 q 440 36 302 36 q 614 57 545 36 l 604 3 q 539 -11 583 -4 q 446 -17 495 -17 q 175 78 266 -17 q 85 311 85 172 q 103 448 85 385 q 157 564 121 511 q 376 675 242 675 q 564 597 497 675 q 631 404 631 519 q 628 345 631 367 l 140 339 m 144 387 l 570 387 q 520 564 570 502 q 374 625 471 625 q 222 565 283 625 q 144 387 161 504 m 575 956 q 561 926 575 951 q 490 820 547 900 l 432 736 l 366 736 q 293 839 366 737 q 221 956 221 941 l 252 956 q 282 916 252 952 q 399 790 313 880 q 483 879 420 812 q 545 956 545 946 l 575 956 z "},"Ğ":{"ha":861,"x_min":79,"x_max":757,"o":"m 79 428 q 217 765 79 634 q 566 896 355 896 q 707 875 637 896 l 694 812 q 525 840 580 840 q 244 729 350 840 q 138 449 138 617 q 246 134 138 239 q 561 29 355 29 q 629 33 601 29 q 699 45 658 36 q 693 222 693 100 q 690 312 693 258 l 688 368 l 757 368 q 751 232 754 340 q 748 54 748 123 q 749 12 748 22 q 553 -18 679 -18 q 204 99 328 -18 q 79 428 79 217 m 311 1120 l 351 1141 q 503 1044 397 1044 q 591 1068 553 1044 q 661 1141 630 1093 l 700 1120 q 505 991 633 991 q 391 1024 441 991 q 311 1120 341 1057 z "},"ğ":{"ha":734,"x_min":65,"x_max":705,"o":"m 65 -138 q 95 -24 65 -75 q 186 52 125 26 l 186 54 q 149 86 163 63 q 135 144 135 109 q 195 254 135 205 l 195 256 q 132 314 164 268 q 100 425 100 361 q 167 595 100 525 q 351 665 235 665 q 517 618 458 665 l 522 618 q 562 701 536 674 q 629 728 589 728 q 705 724 685 728 l 700 667 q 588 648 627 667 q 547 600 549 630 l 547 596 q 587 534 574 565 q 600 463 600 503 q 568 338 600 393 q 471 254 536 283 q 338 225 407 225 q 270 229 302 225 q 224 240 239 233 q 183 160 183 210 q 234 102 183 118 q 446 86 285 86 q 692 -69 692 86 q 600 -269 692 -187 q 345 -350 507 -350 q 141 -297 217 -350 q 65 -138 65 -243 m 539 439 q 486 570 539 523 q 340 618 433 618 q 204 572 255 618 q 153 449 153 527 q 207 318 153 363 q 351 273 261 273 q 486 318 433 273 q 539 439 539 363 m 644 -113 q 591 -4 644 -38 q 380 29 538 29 q 218 39 296 29 q 142 -20 170 18 q 115 -113 115 -59 q 180 -251 115 -203 q 370 -298 244 -298 q 573 -244 501 -298 q 644 -113 644 -189 m 165 895 l 204 921 q 265 856 225 881 q 357 831 305 831 q 515 921 463 831 l 554 895 q 359 781 490 781 q 165 895 229 781 z "},"Ġ":{"ha":861,"x_min":79,"x_max":757,"o":"m 79 428 q 217 765 79 634 q 566 896 355 896 q 707 875 637 896 l 694 812 q 525 840 580 840 q 244 729 350 840 q 138 449 138 617 q 246 134 138 239 q 561 29 355 29 q 629 33 601 29 q 699 45 658 36 q 693 222 693 100 q 690 312 693 258 l 688 368 l 757 368 q 751 232 754 340 q 748 54 748 123 q 749 12 748 22 q 553 -18 679 -18 q 204 99 328 -18 q 79 428 79 217 m 458 1054 q 473 1092 458 1076 q 515 1108 487 1108 q 548 1093 537 1108 q 558 1060 558 1078 q 546 1020 558 1036 q 507 1004 534 1004 q 470 1020 482 1004 q 458 1054 458 1035 z "},"ġ":{"ha":734,"x_min":65,"x_max":705,"o":"m 65 -138 q 95 -24 65 -75 q 186 52 125 26 l 186 54 q 149 86 163 63 q 135 144 135 109 q 195 254 135 205 l 195 256 q 132 314 164 268 q 100 425 100 361 q 167 595 100 525 q 351 665 235 665 q 517 618 458 665 l 522 618 q 562 701 536 674 q 629 728 589 728 q 705 724 685 728 l 700 667 q 588 648 627 667 q 547 600 549 630 l 547 596 q 587 534 574 565 q 600 463 600 503 q 568 338 600 393 q 471 254 536 283 q 338 225 407 225 q 270 229 302 225 q 224 240 239 233 q 183 160 183 210 q 234 102 183 118 q 446 86 285 86 q 692 -69 692 86 q 600 -269 692 -187 q 345 -350 507 -350 q 141 -297 217 -350 q 65 -138 65 -243 m 539 439 q 486 570 539 523 q 340 618 433 618 q 204 572 255 618 q 153 449 153 527 q 207 318 153 363 q 351 273 261 273 q 486 318 433 273 q 539 439 539 363 m 644 -113 q 591 -4 644 -38 q 380 29 538 29 q 218 39 296 29 q 142 -20 170 18 q 115 -113 115 -59 q 180 -251 115 -203 q 370 -298 244 -298 q 573 -244 501 -298 q 644 -113 644 -189 m 314 839 q 327 879 314 862 q 368 896 340 896 q 403 880 392 896 q 414 846 414 865 q 401 806 414 823 q 360 790 389 790 q 325 804 335 790 q 314 839 314 818 z "},"Ģ":{"ha":861,"x_min":79,"x_max":757,"o":"m 79 428 q 217 765 79 634 q 566 896 355 896 q 707 875 637 896 l 694 812 q 525 840 580 840 q 244 729 350 840 q 138 449 138 617 q 246 134 138 239 q 561 29 355 29 q 629 33 601 29 q 699 45 658 36 q 693 222 693 100 q 690 312 693 258 l 688 368 l 757 368 q 751 232 754 340 q 748 54 748 123 q 749 12 748 22 q 553 -18 679 -18 q 204 99 328 -18 q 79 428 79 217 m 513 -221 q 456 -205 475 -221 q 437 -165 437 -190 q 452 -124 437 -142 q 494 -107 467 -107 q 540 -128 524 -107 q 557 -193 557 -149 q 527 -286 557 -235 q 469 -358 497 -338 l 455 -340 q 498 -273 484 -305 q 513 -221 513 -240 z "},"ģ":{"ha":734,"x_min":65,"x_max":705,"o":"m 65 -138 q 95 -24 65 -75 q 186 52 125 26 l 186 54 q 149 86 163 63 q 135 144 135 109 q 195 254 135 205 l 195 256 q 132 314 164 268 q 100 425 100 361 q 167 595 100 525 q 351 665 235 665 q 517 618 458 665 l 522 618 q 562 701 536 674 q 629 728 589 728 q 705 724 685 728 l 700 667 q 588 648 627 667 q 547 600 549 630 l 547 596 q 587 534 574 565 q 600 463 600 503 q 568 338 600 393 q 471 254 536 283 q 338 225 407 225 q 270 229 302 225 q 224 240 239 233 q 183 160 183 210 q 234 102 183 118 q 446 86 285 86 q 692 -69 692 86 q 600 -269 692 -187 q 345 -350 507 -350 q 141 -297 217 -350 q 65 -138 65 -243 m 539 439 q 486 570 539 523 q 340 618 433 618 q 204 572 255 618 q 153 449 153 527 q 207 318 153 363 q 351 273 261 273 q 486 318 433 273 q 539 439 539 363 m 644 -113 q 591 -4 644 -38 q 380 29 538 29 q 218 39 296 29 q 142 -20 170 18 q 115 -113 115 -59 q 180 -251 115 -203 q 370 -298 244 -298 q 573 -244 501 -298 q 644 -113 644 -189 m 351 905 q 408 890 389 905 q 427 850 427 874 q 412 809 427 826 q 370 791 397 791 q 325 812 341 791 q 308 878 308 833 q 338 971 308 918 q 395 1043 368 1023 l 410 1025 q 366 958 381 990 q 351 905 351 925 z "},"Ħ":{"ha":904,"x_min":65,"x_max":839,"o":"m 743 653 q 741 465 741 530 q 751 0 741 231 l 682 0 q 689 443 689 271 l 215 443 q 222 0 215 239 l 151 0 q 163 465 163 302 q 160 653 163 530 l 65 653 l 72 696 l 158 696 q 151 884 157 761 l 222 884 q 220 811 220 842 l 218 759 l 216 696 l 686 696 q 685 766 686 692 q 681 884 683 840 l 751 884 l 743 696 l 839 696 l 832 653 l 743 653 m 216 653 q 215 486 215 597 l 689 486 q 688 653 689 590 l 216 653 z "},"ħ":{"ha":742,"x_min":-4,"x_max":644,"o":"m 644 380 q 643 351 644 368 q 642 282 642 334 q 643 0 642 150 l 575 0 q 586 188 583 94 q 589 404 589 282 q 542 542 589 500 q 408 583 496 583 q 175 496 292 583 q 180 0 175 106 l 115 0 q 121 479 121 203 q 117 743 121 625 l -4 743 l 0 789 l 114 789 q 102 956 110 892 l 174 958 l 174 789 l 407 789 l 403 743 l 174 743 l 174 543 l 175 543 q 293 614 230 590 q 415 639 357 639 q 580 588 517 639 q 643 407 643 538 l 644 380 z "},"Ī":{"ha":379,"x_min":39,"x_max":347,"o":"m 151 0 q 163 465 163 302 q 151 884 163 654 l 222 884 q 215 467 215 722 q 222 0 215 239 l 151 0 m 347 1069 l 339 1021 l 39 1021 l 49 1069 l 347 1069 z "},"ī":{"ha":261,"x_min":-9,"x_max":257,"o":"m 86 639 l 163 657 q 155 300 155 499 q 165 0 155 134 l 94 0 q 104 300 104 164 q 86 639 104 491 m 257 872 l 251 821 l -9 821 l -3 872 l 257 872 z "},"Į":{"ha":379,"x_min":35,"x_max":237,"o":"m 237 -313 q 194 -325 218 -321 q 147 -329 170 -329 q 70 -294 105 -329 q 35 -200 35 -258 q 62 -95 35 -141 q 151 0 90 -48 q 163 465 163 302 q 151 884 163 654 l 222 884 q 215 467 215 722 q 222 0 215 239 q 115 -88 147 -40 q 82 -200 82 -136 q 104 -261 82 -235 q 161 -286 126 -286 q 227 -272 195 -286 l 237 -313 z "},"į":{"ha":267,"x_min":-22,"x_max":186,"o":"m 144 899 q 174 883 163 899 q 186 846 186 867 q 174 804 186 821 q 136 786 161 786 q 103 802 115 786 q 90 839 90 817 q 105 880 90 862 q 144 899 119 899 m 180 -304 q 137 -317 161 -313 q 90 -321 113 -321 q 12 -289 46 -321 q -22 -200 -22 -257 q 4 -99 -22 -145 q 94 0 31 -54 q 104 300 104 164 q 86 639 104 491 l 163 657 q 155 300 155 499 q 165 0 155 134 q 58 -91 92 -44 q 25 -200 25 -137 q 47 -257 25 -235 q 104 -278 69 -278 q 170 -264 138 -278 l 180 -304 z "},"İ":{"ha":379,"x_min":147,"x_max":247,"o":"m 151 0 q 163 465 163 302 q 151 884 163 654 l 222 884 q 215 467 215 722 q 222 0 215 239 l 151 0 m 147 1054 q 161 1092 147 1076 q 204 1108 176 1108 q 236 1093 226 1108 q 247 1060 247 1078 q 235 1020 247 1036 q 195 1004 223 1004 q 159 1020 171 1004 q 147 1054 147 1035 z "},"ı":{"ha":267,"x_min":86,"x_max":165,"o":"m 86 639 l 163 657 q 155 300 155 499 q 165 0 155 134 l 94 0 q 104 300 104 164 q 86 639 104 491 z "},"Ķ":{"ha":827,"x_min":151,"x_max":803,"o":"m 509 260 q 342 431 399 389 q 239 473 284 473 l 215 473 q 222 0 215 235 l 151 0 q 160 245 157 140 q 163 465 163 351 q 151 884 163 671 l 222 884 q 215 518 215 743 l 233 518 q 460 690 288 518 q 632 884 632 863 l 714 884 q 677 842 714 875 q 516 683 640 810 q 318 507 392 557 l 318 503 q 420 439 363 492 q 607 237 477 387 q 803 0 803 14 l 726 0 q 653 92 724 6 q 509 260 581 177 m 465 -221 q 408 -205 427 -221 q 389 -165 389 -190 q 404 -124 389 -142 q 446 -107 419 -107 q 492 -128 475 -107 q 509 -193 509 -149 q 479 -286 509 -235 q 421 -358 449 -338 l 407 -340 q 450 -273 435 -305 q 465 -221 465 -240 z "},"ķ":{"ha":648,"x_min":102,"x_max":644,"o":"m 174 399 l 175 399 q 269 451 201 399 q 413 566 336 503 q 490 644 490 628 l 586 644 q 561 613 586 636 q 465 538 536 590 l 368 467 q 261 387 276 399 l 261 386 q 348 309 301 353 q 478 184 395 264 l 510 153 q 617 40 589 73 q 644 0 644 7 l 551 0 q 438 134 551 17 q 262 310 326 250 q 176 370 199 370 l 174 370 q 178 181 174 311 q 184 0 183 52 l 107 0 q 110 100 109 68 l 114 243 q 117 507 117 365 q 102 956 117 791 l 180 958 q 174 510 174 656 l 174 399 m 353 -221 q 296 -205 315 -221 q 277 -165 277 -190 q 292 -124 277 -142 q 334 -107 307 -107 q 379 -128 363 -107 q 396 -193 396 -149 q 366 -286 396 -235 q 309 -358 336 -338 l 294 -340 q 338 -273 323 -305 q 353 -221 353 -240 z "},"Ĺ":{"ha":688,"x_min":144,"x_max":659,"o":"m 211 272 l 212 134 q 211 49 212 75 q 659 56 460 49 l 656 0 l 151 0 q 157 465 157 203 q 156 693 157 588 q 151 884 155 798 l 221 884 q 210 465 210 731 q 211 272 210 390 m 191 960 l 144 960 q 213 1055 144 970 q 281 1146 281 1139 l 376 1146 q 286 1054 376 1137 q 191 960 196 972 z "},"ĺ":{"ha":279,"x_min":78,"x_max":310,"o":"m 90 956 l 171 958 q 163 507 163 779 q 174 0 163 237 l 94 0 q 107 507 107 211 q 90 956 107 757 m 124 1027 l 78 1027 q 146 1122 78 1038 q 214 1214 214 1207 l 310 1214 q 220 1122 310 1204 q 124 1027 130 1040 z "},"Ļ":{"ha":688,"x_min":151,"x_max":659,"o":"m 211 272 l 212 134 q 211 49 212 75 q 659 56 460 49 l 656 0 l 151 0 q 157 465 157 203 q 156 693 157 588 q 151 884 155 798 l 221 884 q 210 465 210 731 q 211 272 210 390 m 423 -221 q 366 -205 385 -221 q 347 -165 347 -190 q 362 -124 347 -142 q 404 -107 377 -107 q 450 -128 433 -107 q 467 -193 467 -149 q 437 -286 467 -235 q 379 -358 407 -338 l 365 -340 q 408 -273 393 -305 q 423 -221 423 -240 z "},"ļ":{"ha":314,"x_min":82,"x_max":201,"o":"m 113 956 l 193 958 q 185 507 185 779 q 196 0 185 237 l 117 0 q 130 507 130 211 q 113 956 130 757 m 158 -221 q 101 -205 120 -221 q 82 -165 82 -190 q 97 -124 82 -142 q 139 -107 112 -107 q 185 -128 168 -107 q 201 -193 201 -149 q 172 -286 201 -235 q 114 -358 142 -338 l 100 -340 q 143 -273 128 -305 q 158 -221 158 -240 z "},"Ľ":{"ha":688,"x_min":151,"x_max":669,"o":"m 211 272 l 212 134 q 211 49 212 75 q 659 56 460 49 l 656 0 l 151 0 q 157 465 157 203 q 156 693 157 588 q 151 884 155 798 l 221 884 q 210 465 210 731 q 211 272 210 390 m 626 778 q 565 794 585 778 q 544 836 544 810 q 559 881 544 863 q 602 900 574 900 q 669 811 669 900 q 637 709 669 768 q 576 631 606 651 l 561 650 q 609 724 592 689 q 626 778 626 758 z "},"ľ":{"ha":343,"x_min":90,"x_max":351,"o":"m 90 956 l 171 958 q 163 507 163 779 q 174 0 163 237 l 94 0 q 107 507 107 211 q 90 956 107 757 m 308 778 q 247 794 267 778 q 226 836 226 810 q 241 881 226 863 q 284 900 256 900 q 351 811 351 900 q 319 709 351 768 q 258 631 288 651 l 243 650 q 291 724 274 689 q 308 778 308 758 z "},"Ł":{"ha":688,"x_min":-1,"x_max":659,"o":"m 656 0 l 151 0 q 157 379 155 102 l 25 294 l -1 330 l 157 435 l 157 465 q 156 693 157 588 q 151 884 155 798 l 221 884 q 210 468 210 731 l 536 682 l 566 642 l 210 414 q 211 275 210 376 q 212 144 212 174 q 211 49 212 107 q 659 56 460 49 l 656 0 z "},"ł":{"ha":354,"x_min":-21,"x_max":372,"o":"m 196 481 q 207 0 196 227 l 127 0 q 140 433 138 182 l 8 321 l -21 366 l 140 492 l 140 507 q 123 956 140 770 l 204 958 q 196 541 196 789 l 335 657 l 372 615 l 196 481 z "},"Ń":{"ha":949,"x_min":151,"x_max":782,"o":"m 277 793 q 639 262 551 401 q 730 111 726 123 l 733 111 q 726 410 726 262 l 726 593 q 722 884 726 778 l 782 884 q 774 439 774 728 q 775 207 774 308 q 782 0 777 106 l 743 0 q 651 142 742 0 q 489 387 560 283 l 334 614 l 283 688 q 231 764 249 737 q 207 803 214 790 l 204 803 q 210 510 210 642 q 208 334 210 448 l 208 181 q 211 0 208 71 l 151 0 q 163 465 163 262 q 151 884 163 671 l 215 884 q 240 846 215 882 l 277 793 m 478 960 l 432 960 q 500 1055 432 970 q 568 1146 568 1139 l 664 1146 q 574 1054 664 1137 q 478 960 484 972 z "},"ń":{"ha":742,"x_min":102,"x_max":639,"o":"m 180 567 l 182 567 q 403 667 293 667 q 579 616 520 667 q 639 441 639 566 l 638 393 q 637 358 638 381 q 638 224 637 275 l 639 0 l 571 0 q 587 429 587 207 q 531 572 587 534 q 387 611 475 611 q 180 524 274 611 q 179 354 179 474 q 180 187 179 266 l 181 43 q 182 0 181 29 l 117 0 q 129 334 129 250 q 102 644 129 469 l 168 659 l 180 567 m 481 847 q 418 772 442 802 q 393 736 393 743 l 353 736 q 366 765 353 741 q 406 833 379 788 l 458 923 q 475 956 475 953 l 571 956 q 558 938 571 954 q 536 911 545 922 l 481 847 z "},"Ņ":{"ha":949,"x_min":151,"x_max":782,"o":"m 277 793 q 639 262 551 401 q 730 111 726 123 l 733 111 q 726 410 726 262 l 726 593 q 722 884 726 778 l 782 884 q 774 439 774 728 q 775 207 774 308 q 782 0 777 106 l 743 0 q 651 142 742 0 q 489 387 560 283 l 334 614 l 283 688 q 231 764 249 737 q 207 803 214 790 l 204 803 q 210 510 210 642 q 208 334 210 448 l 208 181 q 211 0 208 71 l 151 0 q 163 465 163 262 q 151 884 163 671 l 215 884 q 240 846 215 882 l 277 793 m 490 -221 q 433 -205 452 -221 q 414 -165 414 -190 q 429 -124 414 -142 q 471 -107 444 -107 q 517 -128 500 -107 q 534 -193 534 -149 q 504 -286 534 -235 q 446 -358 474 -338 l 432 -340 q 475 -273 460 -305 q 490 -221 490 -240 z "},"ņ":{"ha":742,"x_min":102,"x_max":639,"o":"m 180 567 l 182 567 q 403 667 293 667 q 579 616 520 667 q 639 441 639 566 l 638 393 q 637 358 638 381 q 638 224 637 275 l 639 0 l 571 0 q 587 429 587 207 q 531 572 587 534 q 387 611 475 611 q 180 524 274 611 q 179 354 179 474 q 180 187 179 266 l 181 43 q 182 0 181 29 l 117 0 q 129 334 129 250 q 102 644 129 469 l 168 659 l 180 567 m 398 -221 q 341 -205 360 -221 q 322 -165 322 -190 q 337 -124 322 -142 q 379 -107 352 -107 q 425 -128 408 -107 q 441 -193 441 -149 q 412 -286 441 -235 q 354 -358 382 -338 l 340 -340 q 383 -273 368 -305 q 398 -221 398 -240 z "},"Ň":{"ha":949,"x_min":151,"x_max":782,"o":"m 277 793 q 639 262 551 401 q 730 111 726 123 l 733 111 q 726 410 726 262 l 726 593 q 722 884 726 778 l 782 884 q 774 439 774 728 q 775 207 774 308 q 782 0 777 106 l 743 0 q 651 142 742 0 q 489 387 560 283 l 334 614 l 283 688 q 231 764 249 737 q 207 803 214 790 l 204 803 q 210 510 210 642 q 208 334 210 448 l 208 181 q 211 0 208 71 l 151 0 q 163 465 163 262 q 151 884 163 671 l 215 884 q 240 846 215 882 l 277 793 m 658 1146 q 648 1131 658 1143 l 636 1115 q 577 1037 623 1099 q 524 960 532 976 l 440 960 q 430 975 438 964 l 416 992 q 351 1078 399 1015 q 304 1146 304 1141 l 340 1146 l 372 1115 q 481 1010 419 1072 q 564 1090 509 1038 q 621 1146 619 1143 l 658 1146 z "},"ň":{"ha":742,"x_min":102,"x_max":639,"o":"m 180 567 l 182 567 q 403 667 293 667 q 579 616 520 667 q 639 441 639 566 l 638 393 q 637 358 638 381 q 638 224 637 275 l 639 0 l 571 0 q 587 429 587 207 q 531 572 587 534 q 387 611 475 611 q 180 524 274 611 q 179 354 179 474 q 180 187 179 266 l 181 43 q 182 0 181 29 l 117 0 q 129 334 129 250 q 102 644 129 469 l 168 659 l 180 567 m 569 956 q 555 926 569 951 q 484 820 541 900 l 426 736 l 359 736 q 287 839 359 737 q 215 956 215 941 l 245 956 q 276 916 245 952 q 393 790 307 880 q 476 879 414 812 q 538 956 538 946 l 569 956 z "},"Ŋ":{"ha":949,"x_min":157,"x_max":789,"o":"m 788 -30 q 789 -45 788 -35 q 726 -231 789 -161 q 559 -300 663 -300 l 553 -300 l 551 -252 l 565 -252 q 706 -195 664 -252 q 749 0 749 -138 q 631 185 728 36 q 339 614 534 334 l 288 688 q 237 764 254 737 q 212 803 219 790 l 210 803 q 215 510 215 642 q 214 334 215 448 l 213 181 q 216 0 213 71 l 157 0 q 168 465 168 238 q 157 884 168 690 l 221 884 q 250 840 221 882 l 295 775 q 625 292 521 456 q 736 111 730 129 l 739 111 q 732 410 732 259 l 732 593 q 728 884 732 778 l 787 884 q 779 439 779 728 q 781 207 779 308 q 787 0 782 106 l 788 -30 z "},"ŋ":{"ha":742,"x_min":102,"x_max":642,"o":"m 642 0 q 577 -227 642 -154 q 389 -300 512 -300 l 392 -241 q 511 -218 470 -241 q 569 -144 553 -194 q 585 24 585 -94 q 586 181 585 17 q 587 429 587 345 q 531 572 587 534 q 387 611 475 611 q 180 524 274 611 q 179 354 179 474 q 180 187 179 266 l 181 43 q 182 0 181 29 l 117 0 q 129 334 129 250 q 102 644 129 469 l 168 659 l 180 567 l 182 567 q 291 642 237 616 q 399 667 345 667 q 579 617 519 667 q 639 441 639 567 l 638 393 q 637 358 638 381 q 640 195 637 332 q 642 0 642 57 z "},"Ō":{"ha":960,"x_min":79,"x_max":880,"o":"m 471 -28 q 199 90 318 -28 q 79 429 79 208 q 201 770 79 641 q 488 899 323 899 q 764 778 648 899 q 880 453 880 656 q 759 101 880 231 q 471 -28 637 -28 m 468 852 q 301 795 380 852 q 180 642 222 738 q 138 429 138 546 q 243 124 138 231 q 492 18 349 18 q 721 135 619 18 q 822 440 822 252 q 719 747 822 642 q 468 852 616 852 m 654 1069 l 646 1021 l 346 1021 l 355 1069 l 654 1069 z "},"ō":{"ha":777,"x_min":86,"x_max":688,"o":"m 374 -26 q 169 60 251 -26 q 86 297 86 146 q 178 572 86 471 q 404 673 271 673 q 599 592 510 673 q 688 346 688 511 q 595 74 688 174 q 374 -26 503 -26 m 386 628 q 203 532 261 628 q 144 328 144 436 q 211 106 144 192 q 387 20 277 20 q 571 116 511 20 q 631 319 631 212 q 563 540 631 452 q 386 628 495 628 m 542 872 l 536 821 l 276 821 l 282 872 l 542 872 z "},"Ő":{"ha":960,"x_min":79,"x_max":880,"o":"m 471 -28 q 199 90 318 -28 q 79 429 79 208 q 201 770 79 641 q 488 899 323 899 q 764 778 648 899 q 880 453 880 656 q 759 101 880 231 q 471 -28 637 -28 m 468 852 q 301 795 380 852 q 180 642 222 738 q 138 429 138 546 q 243 124 138 231 q 492 18 349 18 q 721 135 619 18 q 822 440 822 252 q 719 747 822 642 q 468 852 616 852 m 385 960 l 361 960 q 384 1055 361 977 q 407 1146 407 1133 l 490 1146 q 465 1094 490 1133 q 413 1010 439 1054 q 385 960 387 966 m 612 960 l 585 960 q 597 987 591 966 q 612 1051 604 1008 l 617 1069 q 633 1146 633 1137 l 717 1146 q 668 1054 717 1130 q 612 960 619 979 z "},"ő":{"ha":777,"x_min":86,"x_max":688,"o":"m 374 -26 q 169 60 251 -26 q 86 297 86 146 q 178 572 86 471 q 404 673 271 673 q 599 592 510 673 q 688 346 688 511 q 595 74 688 174 q 374 -26 503 -26 m 386 628 q 203 532 261 628 q 144 328 144 436 q 211 106 144 192 q 387 20 277 20 q 571 116 511 20 q 631 319 631 212 q 563 540 631 452 q 386 628 495 628 m 338 829 q 311 780 331 817 q 290 736 290 743 l 265 736 q 280 807 265 749 q 303 907 294 866 q 312 956 312 949 l 406 956 q 380 905 406 948 l 338 829 m 573 844 l 559 819 q 535 774 553 807 q 518 736 518 742 l 490 736 q 515 849 490 753 q 540 956 540 945 l 633 956 q 626 938 633 951 q 606 903 618 924 l 573 844 z "},"Œ":{"ha":1227,"x_min":79,"x_max":1187,"o":"m 1185 0 l 664 0 q 473 -28 581 -28 q 191 99 302 -28 q 79 418 79 225 q 194 763 79 628 q 489 899 309 899 q 664 884 589 899 l 1145 884 l 1141 828 q 725 833 992 833 q 728 489 728 683 q 1061 497 940 489 l 1061 436 q 728 443 899 443 l 728 279 q 730 49 728 123 q 1187 60 981 49 l 1185 0 m 665 53 l 673 268 q 676 465 676 367 q 674 614 676 536 q 669 783 672 693 l 667 829 q 596 848 631 844 q 498 852 561 852 q 237 734 336 852 q 138 429 138 615 q 236 134 138 250 q 492 18 334 18 q 665 53 592 18 z "},"œ":{"ha":1260,"x_min":86,"x_max":1177,"o":"m 686 339 q 767 122 686 208 q 986 36 848 36 q 1160 57 1090 36 l 1150 3 q 1085 -11 1129 -4 q 991 -17 1041 -17 q 772 37 854 -17 q 657 178 690 90 q 549 32 626 90 q 374 -26 473 -26 q 169 60 251 -26 q 86 297 86 146 q 178 572 86 471 q 404 673 271 673 q 563 622 488 673 q 664 489 637 570 q 762 623 692 570 q 922 675 831 675 q 1110 597 1043 675 q 1177 404 1177 519 q 1174 345 1177 367 l 686 339 m 386 628 q 203 532 261 628 q 144 328 144 436 q 205 117 144 215 q 387 20 265 20 q 571 116 511 20 q 631 319 631 212 q 571 525 631 422 q 386 628 511 628 m 1116 387 q 1066 564 1116 502 q 920 625 1017 625 q 768 565 829 625 q 690 387 707 504 l 1116 387 z "},"Ŕ":{"ha":873,"x_min":174,"x_max":803,"o":"m 355 887 q 418 888 394 887 q 630 834 559 888 q 701 675 701 781 q 656 530 701 591 q 532 435 612 469 l 532 431 q 670 307 612 409 q 803 0 728 205 l 742 0 q 646 223 695 124 q 562 352 597 323 q 497 392 527 382 q 370 403 467 403 q 239 401 274 403 q 248 0 239 121 l 174 0 q 184 243 180 138 q 188 465 188 347 q 176 884 188 690 l 256 884 l 355 887 m 387 453 q 571 510 501 453 q 642 661 642 568 q 581 797 642 756 q 380 838 521 838 q 236 833 297 838 q 239 703 239 785 q 238 594 239 633 l 237 454 q 288 453 252 453 l 387 453 m 427 960 l 380 960 q 449 1055 380 970 q 517 1146 517 1139 l 612 1146 q 522 1054 612 1137 q 427 960 432 972 z "},"ŕ":{"ha":450,"x_min":85,"x_max":475,"o":"m 457 585 q 343 607 403 607 q 234 571 280 607 q 165 467 187 535 q 171 0 165 148 l 104 0 q 111 334 111 186 q 85 643 111 488 l 144 659 q 161 549 160 578 l 170 549 q 255 637 212 608 q 345 667 298 667 q 475 644 398 667 l 457 585 m 330 847 q 267 772 292 802 q 243 736 243 743 l 203 736 q 216 765 203 741 q 256 833 229 788 l 308 923 q 325 956 325 953 l 420 956 q 407 938 420 954 q 385 911 394 922 l 330 847 z "},"Ŗ":{"ha":873,"x_min":174,"x_max":803,"o":"m 355 887 q 418 888 394 887 q 630 834 559 888 q 701 675 701 781 q 656 530 701 591 q 532 435 612 469 l 532 431 q 670 307 612 409 q 803 0 728 205 l 742 0 q 646 223 695 124 q 562 352 597 323 q 497 392 527 382 q 370 403 467 403 q 239 401 274 403 q 248 0 239 121 l 174 0 q 184 243 180 138 q 188 465 188 347 q 176 884 188 690 l 256 884 l 355 887 m 387 453 q 571 510 501 453 q 642 661 642 568 q 581 797 642 756 q 380 838 521 838 q 236 833 297 838 q 239 703 239 785 q 238 594 239 633 l 237 454 q 288 453 252 453 l 387 453 m 488 -221 q 431 -205 450 -221 q 412 -165 412 -190 q 427 -124 412 -142 q 469 -107 441 -107 q 514 -128 498 -107 q 531 -193 531 -149 q 501 -286 531 -235 q 444 -358 471 -338 l 429 -340 q 473 -273 458 -305 q 488 -221 488 -240 z "},"ŗ":{"ha":450,"x_min":85,"x_max":475,"o":"m 457 585 q 343 607 403 607 q 234 571 280 607 q 165 467 187 535 q 171 0 165 148 l 104 0 q 111 334 111 186 q 85 643 111 488 l 144 659 q 161 549 160 578 l 170 549 q 255 637 212 608 q 345 667 298 667 q 475 644 398 667 l 457 585 m 162 -221 q 105 -205 124 -221 q 86 -165 86 -190 q 101 -124 86 -142 q 143 -107 116 -107 q 189 -128 172 -107 q 205 -193 205 -149 q 176 -286 205 -235 q 118 -358 146 -338 l 104 -340 q 147 -273 132 -305 q 162 -221 162 -240 z "},"Ř":{"ha":873,"x_min":174,"x_max":803,"o":"m 355 887 q 418 888 394 887 q 630 834 559 888 q 701 675 701 781 q 656 530 701 591 q 532 435 612 469 l 532 431 q 670 307 612 409 q 803 0 728 205 l 742 0 q 646 223 695 124 q 562 352 597 323 q 497 392 527 382 q 370 403 467 403 q 239 401 274 403 q 248 0 239 121 l 174 0 q 184 243 180 138 q 188 465 188 347 q 176 884 188 690 l 256 884 l 355 887 m 387 453 q 571 510 501 453 q 642 661 642 568 q 581 797 642 756 q 380 838 521 838 q 236 833 297 838 q 239 703 239 785 q 238 594 239 633 l 237 454 q 288 453 252 453 l 387 453 m 598 1146 q 589 1131 598 1143 l 576 1115 q 518 1037 563 1099 q 464 960 473 976 l 380 960 q 370 975 378 964 l 357 992 q 292 1078 339 1015 q 244 1146 244 1141 l 280 1146 l 312 1115 q 422 1010 359 1072 q 505 1090 450 1038 q 561 1146 559 1143 l 598 1146 z "},"ř":{"ha":450,"x_min":85,"x_max":475,"o":"m 457 585 q 343 607 403 607 q 234 571 280 607 q 165 467 187 535 q 171 0 165 148 l 104 0 q 111 334 111 186 q 85 643 111 488 l 144 659 q 161 549 160 578 l 170 549 q 255 637 212 608 q 345 667 298 667 q 475 644 398 667 l 457 585 m 471 956 q 456 926 471 951 q 386 820 442 900 l 328 736 l 261 736 q 189 839 261 737 q 117 956 117 941 l 147 956 q 178 916 147 952 q 294 790 208 880 q 378 879 316 812 q 440 956 440 946 l 471 956 z "},"Ś":{"ha":693,"x_min":81,"x_max":614,"o":"m 144 692 q 160 613 144 642 q 218 554 176 584 q 336 495 260 524 q 468 438 411 467 q 556 375 525 408 q 601 304 588 341 q 614 218 614 267 q 532 40 614 100 q 293 -20 450 -20 q 81 7 170 -20 l 94 71 q 202 40 152 49 q 310 32 253 32 q 498 74 437 32 q 558 212 558 116 q 511 336 558 288 q 330 434 465 385 q 142 537 195 483 q 89 673 89 591 q 164 835 89 774 q 347 896 239 896 q 554 872 469 896 l 541 815 q 434 837 477 830 q 343 843 390 843 q 196 800 248 843 q 144 692 144 757 m 346 960 l 300 960 q 368 1055 300 970 q 436 1146 436 1139 l 532 1146 q 441 1054 532 1137 q 346 960 351 972 z "},"ś":{"ha":582,"x_min":75,"x_max":507,"o":"m 75 22 l 90 86 q 190 56 136 65 q 313 46 243 46 q 415 77 378 46 q 453 158 453 109 q 433 230 453 199 q 343 289 414 261 q 212 345 273 317 q 123 412 152 373 q 94 501 94 451 q 153 617 94 574 q 300 660 211 660 q 482 635 397 660 l 467 578 q 293 606 399 606 q 188 576 227 606 q 149 503 149 546 q 190 425 149 453 q 329 358 231 397 q 467 278 427 318 q 507 167 507 238 q 450 36 507 82 q 293 -11 393 -11 q 75 22 180 -11 m 395 847 q 332 772 356 802 q 307 736 307 743 l 267 736 q 280 765 267 741 q 320 833 293 788 l 372 923 q 389 956 389 953 l 485 956 q 472 938 485 954 q 450 911 458 922 l 395 847 z "},"Ş":{"ha":693,"x_min":81,"x_max":614,"o":"m 296 -20 l 290 -74 q 427 -212 427 -108 q 388 -313 427 -278 q 275 -349 350 -349 l 268 -315 q 345 -293 318 -315 q 372 -218 372 -271 q 340 -142 372 -172 q 240 -98 307 -113 l 260 -20 q 81 7 158 -16 l 94 71 q 202 40 152 49 q 310 32 253 32 q 498 74 437 32 q 558 212 558 116 q 511 336 558 288 q 330 434 465 385 q 142 537 195 483 q 89 673 89 591 q 164 835 89 774 q 347 896 239 896 q 554 872 469 896 l 541 815 q 434 837 477 830 q 343 843 390 843 q 196 800 248 843 q 144 692 144 757 q 160 613 144 642 q 218 554 176 584 q 336 495 260 524 q 468 438 411 467 q 556 375 525 408 q 601 304 588 341 q 614 218 614 267 q 532 40 614 100 q 296 -20 450 -20 z "},"ş":{"ha":582,"x_min":75,"x_max":507,"o":"m 275 -11 l 268 -74 q 404 -212 404 -108 q 366 -313 404 -278 q 253 -349 328 -349 l 245 -315 q 323 -293 296 -315 q 350 -218 350 -271 q 318 -142 350 -172 q 218 -98 286 -113 l 237 -8 q 75 22 149 -1 l 90 86 q 190 56 136 65 q 313 46 243 46 q 415 77 378 46 q 453 158 453 109 q 433 230 453 199 q 343 289 414 261 q 212 345 273 317 q 123 412 152 373 q 94 501 94 451 q 153 617 94 574 q 300 660 211 660 q 482 635 397 660 l 467 578 q 293 606 399 606 q 188 576 227 606 q 149 503 149 546 q 190 425 149 453 q 329 358 231 397 q 467 278 427 318 q 507 167 507 238 q 450 36 507 82 q 293 -11 393 -11 l 275 -11 z "},"Š":{"ha":693,"x_min":81,"x_max":614,"o":"m 144 692 q 160 613 144 642 q 218 554 176 584 q 336 495 260 524 q 468 438 411 467 q 556 375 525 408 q 601 304 588 341 q 614 218 614 267 q 532 40 614 100 q 293 -20 450 -20 q 81 7 170 -20 l 94 71 q 202 40 152 49 q 310 32 253 32 q 498 74 437 32 q 558 212 558 116 q 511 336 558 288 q 330 434 465 385 q 142 537 195 483 q 89 673 89 591 q 164 835 89 774 q 347 896 239 896 q 554 872 469 896 l 541 815 q 434 837 477 830 q 343 843 390 843 q 196 800 248 843 q 144 692 144 757 m 546 1146 q 536 1131 546 1143 l 524 1115 q 466 1037 511 1099 q 412 960 420 976 l 328 960 q 318 975 326 964 l 304 992 q 239 1078 287 1015 q 192 1146 192 1141 l 228 1146 l 260 1115 q 370 1010 307 1072 q 452 1090 397 1038 q 509 1146 507 1143 l 546 1146 z "},"š":{"ha":582,"x_min":75,"x_max":507,"o":"m 75 22 l 90 86 q 190 56 136 65 q 313 46 243 46 q 415 77 378 46 q 453 158 453 109 q 433 230 453 199 q 343 289 414 261 q 212 345 273 317 q 123 412 152 373 q 94 501 94 451 q 153 617 94 574 q 300 660 211 660 q 482 635 397 660 l 467 578 q 293 606 399 606 q 188 576 227 606 q 149 503 149 546 q 190 425 149 453 q 329 358 231 397 q 467 278 427 318 q 507 167 507 238 q 450 36 507 82 q 293 -11 393 -11 q 75 22 180 -11 m 486 956 q 471 926 486 951 q 401 820 457 900 l 342 736 l 276 736 q 204 839 276 737 q 132 956 132 941 l 162 956 q 193 916 162 952 q 309 790 223 880 q 393 879 331 812 q 455 956 455 946 l 486 956 z "},"Ţ":{"ha":684,"x_min":16,"x_max":671,"o":"m 573 830 q 378 833 424 833 q 371 467 371 675 q 378 0 371 245 l 307 0 q 318 465 318 284 q 316 640 318 561 q 309 833 313 720 q 150 830 255 833 l 16 827 l 16 884 l 671 884 l 668 828 l 573 830 m 357 -221 q 300 -205 319 -221 q 281 -165 281 -190 q 296 -124 281 -142 q 338 -107 311 -107 q 384 -128 367 -107 q 400 -193 400 -149 q 370 -286 400 -235 q 313 -358 340 -338 l 298 -340 q 342 -273 327 -305 q 357 -221 357 -240 z "},"ţ":{"ha":493,"x_min":28,"x_max":447,"o":"m 441 4 q 340 -14 382 -14 q 187 53 222 -14 q 153 265 153 119 q 154 582 153 443 q 28 578 113 582 l 31 633 q 160 629 106 629 q 168 825 160 703 l 228 829 q 215 629 215 673 q 433 636 274 629 l 429 578 q 211 582 290 582 q 207 302 207 463 q 245 82 207 126 q 354 37 283 37 q 395 41 374 37 q 447 53 416 45 l 441 4 m 304 -221 q 247 -205 266 -221 q 228 -165 228 -190 q 243 -124 228 -142 q 285 -107 258 -107 q 331 -128 314 -107 q 347 -193 347 -149 q 317 -286 347 -235 q 260 -358 288 -338 l 245 -340 q 289 -273 274 -305 q 304 -221 304 -240 z "},"Ť":{"ha":684,"x_min":16,"x_max":671,"o":"m 573 830 q 378 833 424 833 q 371 467 371 675 q 378 0 371 245 l 307 0 q 318 465 318 284 q 316 640 318 561 q 309 833 313 720 q 150 830 255 833 l 16 827 l 16 884 l 671 884 l 668 828 l 573 830 m 519 1146 q 510 1131 519 1143 l 498 1115 q 439 1037 484 1099 q 385 960 394 976 l 302 960 q 292 975 300 964 l 278 992 q 213 1078 260 1015 q 165 1146 165 1141 l 201 1146 l 233 1115 q 343 1010 281 1072 q 426 1090 371 1038 q 482 1146 481 1143 l 519 1146 z "},"ť":{"ha":593,"x_min":28,"x_max":603,"o":"m 441 4 q 340 -14 382 -14 q 187 53 222 -14 q 153 265 153 119 q 154 582 153 443 q 28 578 113 582 l 31 633 q 160 629 106 629 q 168 825 160 703 l 228 829 q 215 629 215 673 q 433 636 274 629 l 429 578 q 211 582 290 582 q 207 302 207 463 q 245 82 207 126 q 354 37 283 37 q 395 41 374 37 q 447 53 416 45 l 441 4 m 559 778 q 498 794 519 778 q 477 836 477 810 q 492 881 477 863 q 536 900 507 900 q 603 811 603 900 q 571 709 603 768 q 509 631 539 651 l 494 650 q 543 724 526 689 q 559 778 559 758 z "},"Ū":{"ha":982,"x_min":136,"x_max":843,"o":"m 486 -12 q 227 86 306 -12 q 147 396 147 184 q 136 884 147 626 l 207 884 l 205 825 q 200 514 200 572 q 228 213 200 304 q 314 79 255 121 q 488 37 374 37 q 719 150 652 37 q 786 515 786 262 q 782 691 786 568 q 775 884 779 814 l 843 884 q 838 666 840 810 q 836 427 836 521 q 745 100 836 212 q 486 -12 654 -12 m 651 1069 l 643 1021 l 343 1021 l 353 1069 l 651 1069 z "},"ū":{"ha":737,"x_min":115,"x_max":644,"o":"m 590 -1 q 582 64 582 37 l 579 64 q 481 8 540 32 q 353 -16 422 -16 q 166 46 211 -16 q 121 215 121 109 l 121 301 q 122 347 121 317 q 123 447 123 385 q 115 642 123 534 l 187 646 q 182 375 182 527 q 189 177 182 253 q 231 71 195 101 q 357 40 267 40 q 578 115 498 40 q 572 642 578 522 l 636 646 l 635 600 q 632 277 632 396 q 644 0 632 136 l 590 -1 m 517 872 l 511 821 l 251 821 l 257 872 l 517 872 z "},"Ŭ":{"ha":982,"x_min":136,"x_max":843,"o":"m 486 -12 q 227 86 306 -12 q 147 396 147 184 q 136 884 147 626 l 207 884 l 205 825 q 200 514 200 572 q 228 213 200 304 q 314 79 255 121 q 488 37 374 37 q 719 150 652 37 q 786 515 786 262 q 782 691 786 568 q 775 884 779 814 l 843 884 q 838 666 840 810 q 836 427 836 521 q 745 100 836 212 q 486 -12 654 -12 m 307 1120 l 347 1141 q 498 1044 393 1044 q 587 1068 549 1044 q 657 1141 626 1093 l 696 1120 q 501 991 629 991 q 387 1024 437 991 q 307 1120 337 1057 z "},"ŭ":{"ha":737,"x_min":115,"x_max":644,"o":"m 590 -1 q 582 64 582 37 l 579 64 q 481 8 540 32 q 353 -16 422 -16 q 166 46 211 -16 q 121 215 121 109 l 121 301 q 122 347 121 317 q 123 447 123 385 q 115 642 123 534 l 187 646 q 182 375 182 527 q 189 177 182 253 q 231 71 195 101 q 357 40 267 40 q 578 115 498 40 q 572 642 578 522 l 636 646 l 635 600 q 632 277 632 396 q 644 0 632 136 l 590 -1 m 178 895 l 217 921 q 278 856 238 881 q 370 831 318 831 q 528 921 475 831 l 567 895 q 372 781 503 781 q 178 895 242 781 z "},"Ů":{"ha":982,"x_min":136,"x_max":843,"o":"m 486 -12 q 227 86 306 -12 q 147 396 147 184 q 136 884 147 626 l 207 884 l 205 825 q 200 514 200 572 q 228 213 200 304 q 314 79 255 121 q 488 37 374 37 q 719 150 652 37 q 786 515 786 262 q 782 691 786 568 q 775 884 779 814 l 843 884 q 838 666 840 810 q 836 427 836 521 q 745 100 836 212 q 486 -12 654 -12 m 488 922 q 404 957 436 922 q 371 1042 371 991 q 411 1140 371 1100 q 510 1179 450 1179 q 590 1150 556 1179 q 623 1059 623 1121 q 581 958 623 994 q 488 922 538 922 m 412 1047 q 435 985 412 1008 q 493 962 458 962 q 558 991 532 962 q 585 1057 585 1020 q 562 1117 585 1096 q 504 1139 538 1139 q 440 1112 468 1139 q 412 1047 412 1085 z "},"ů":{"ha":737,"x_min":115,"x_max":644,"o":"m 590 -1 q 582 64 582 37 l 579 64 q 481 8 540 32 q 353 -16 422 -16 q 166 46 211 -16 q 121 215 121 109 l 121 301 q 122 347 121 317 q 123 447 123 385 q 115 642 123 534 l 187 646 q 182 375 182 527 q 189 177 182 253 q 231 71 195 101 q 357 40 267 40 q 578 115 498 40 q 572 642 578 522 l 636 646 l 635 600 q 632 277 632 396 q 644 0 632 136 l 590 -1 m 368 734 q 280 768 312 734 q 249 854 249 802 q 289 950 249 911 q 385 990 328 990 q 468 961 434 990 q 501 871 501 932 q 459 770 501 806 q 368 734 418 734 m 290 859 q 312 796 290 818 q 371 774 333 774 q 435 801 408 774 q 463 868 463 828 q 439 927 463 905 q 382 950 416 950 q 317 923 345 950 q 290 859 290 896 z "},"Ű":{"ha":982,"x_min":136,"x_max":843,"o":"m 486 -12 q 227 86 306 -12 q 147 396 147 184 q 136 884 147 626 l 207 884 l 205 825 q 200 514 200 572 q 228 213 200 304 q 314 79 255 121 q 488 37 374 37 q 719 150 652 37 q 786 515 786 262 q 782 691 786 568 q 775 884 779 814 l 843 884 q 838 666 840 810 q 836 427 836 521 q 745 100 836 212 q 486 -12 654 -12 m 380 960 l 356 960 q 379 1055 356 977 q 401 1146 401 1133 l 485 1146 q 459 1094 485 1133 q 408 1010 434 1054 q 380 960 382 966 m 607 960 l 579 960 q 592 987 585 966 q 607 1051 599 1008 l 612 1069 q 628 1146 628 1137 l 711 1146 q 663 1054 711 1130 q 607 960 614 979 z "},"ű":{"ha":737,"x_min":115,"x_max":644,"o":"m 590 -1 q 582 64 582 37 l 579 64 q 481 8 540 32 q 353 -16 422 -16 q 166 46 211 -16 q 121 215 121 109 l 121 301 q 122 347 121 317 q 123 447 123 385 q 115 642 123 534 l 187 646 q 182 375 182 527 q 189 177 182 253 q 231 71 195 101 q 357 40 267 40 q 578 115 498 40 q 572 642 578 522 l 636 646 l 635 600 q 632 277 632 396 q 644 0 632 136 l 590 -1 m 319 829 q 292 780 312 817 q 271 736 271 743 l 246 736 q 261 807 246 749 q 284 907 275 866 q 293 956 293 949 l 387 956 q 361 905 387 948 l 319 829 m 554 844 l 541 819 q 516 774 534 807 q 499 736 499 742 l 471 736 q 496 849 471 753 q 521 956 521 945 l 614 956 q 607 938 614 951 q 587 903 600 924 l 554 844 z "},"Ų":{"ha":982,"x_min":136,"x_max":843,"o":"m 843 884 q 838 666 840 810 q 836 427 836 521 q 815 243 836 323 q 750 105 795 163 q 645 20 705 47 q 534 -65 584 -7 q 485 -200 485 -122 q 506 -254 485 -234 q 564 -273 528 -273 q 629 -260 598 -273 l 640 -300 q 597 -312 621 -308 q 550 -317 573 -317 q 471 -287 504 -317 q 437 -200 437 -256 q 460 -100 437 -144 q 528 -17 482 -56 l 528 -9 q 486 -12 495 -12 q 227 86 306 -12 q 147 396 147 184 q 136 884 147 626 l 207 884 l 205 825 q 200 514 200 572 q 228 213 200 304 q 314 79 255 121 q 488 37 374 37 q 719 150 652 37 q 786 515 786 262 q 782 691 786 568 q 775 884 779 814 l 843 884 z "},"ų":{"ha":737,"x_min":115,"x_max":661,"o":"m 661 -298 q 618 -311 642 -307 q 571 -315 594 -315 q 492 -285 525 -315 q 458 -199 458 -255 q 486 -96 458 -138 q 575 -8 513 -54 l 590 1 q 582 64 582 37 l 579 64 q 481 8 540 32 q 353 -16 422 -16 q 166 46 211 -16 q 121 215 121 109 l 121 301 q 122 347 121 317 q 123 447 123 385 q 115 642 123 534 l 187 646 q 182 375 182 527 q 189 177 182 253 q 231 71 195 101 q 357 40 267 40 q 578 115 498 40 q 572 642 578 522 l 636 646 l 635 600 q 632 277 632 396 q 644 0 632 136 q 537 -93 569 -48 q 505 -199 505 -137 q 527 -252 505 -233 q 585 -272 548 -272 q 650 -258 619 -272 l 661 -298 z "},"Ÿ":{"ha":761,"x_min":24,"x_max":742,"o":"m 404 278 q 410 0 404 148 l 339 0 l 340 16 q 347 279 347 222 q 266 520 347 391 q 104 761 184 650 q 24 884 24 871 l 98 884 q 230 675 98 866 q 380 370 361 485 l 386 370 q 426 493 387 417 q 522 651 465 568 q 627 805 578 734 q 675 884 675 876 l 742 884 q 640 726 742 863 q 471 479 537 589 q 404 278 404 370 m 220 1046 q 233 1083 220 1067 q 277 1099 247 1099 q 308 1085 296 1099 q 319 1051 319 1072 q 306 1011 319 1027 q 262 994 292 994 q 232 1009 243 994 q 220 1046 220 1025 m 468 1046 q 480 1083 468 1067 q 519 1099 492 1099 q 552 1086 541 1099 q 564 1051 564 1073 q 551 1011 564 1027 q 510 994 538 994 q 479 1009 491 994 q 468 1046 468 1025 z "},"Ź":{"ha":726,"x_min":81,"x_max":640,"o":"m 81 0 l 85 35 q 225 278 127 102 q 428 631 323 454 q 533 831 533 808 l 533 833 l 397 834 q 87 828 245 834 l 93 884 l 618 884 l 616 844 q 363 419 562 766 q 164 56 164 71 l 164 49 q 380 51 267 49 q 640 61 494 53 l 639 0 l 81 0 m 328 960 l 282 960 q 350 1055 282 970 q 418 1146 418 1139 l 514 1146 q 424 1054 514 1137 q 328 960 334 972 z "},"ź":{"ha":648,"x_min":83,"x_max":566,"o":"m 536 583 q 490 522 518 561 l 450 468 q 274 230 391 386 q 158 54 158 75 l 158 53 q 566 61 444 53 l 559 0 l 83 0 l 86 60 q 174 171 121 101 q 314 357 227 241 q 436 527 401 474 q 471 587 471 579 l 471 595 q 86 583 221 595 l 92 644 l 541 644 l 536 583 m 421 847 q 358 772 382 802 q 334 736 334 743 l 294 736 q 307 765 294 741 q 347 833 319 788 l 399 923 q 416 956 416 953 l 511 956 q 498 938 511 954 q 476 911 485 922 l 421 847 z "},"Ż":{"ha":726,"x_min":81,"x_max":640,"o":"m 81 0 l 85 35 q 225 278 127 102 q 428 631 323 454 q 533 831 533 808 l 533 833 l 397 834 q 87 828 245 834 l 93 884 l 618 884 l 616 844 q 363 419 562 766 q 164 56 164 71 l 164 49 q 380 51 267 49 q 640 61 494 53 l 639 0 l 81 0 m 327 1054 q 341 1092 327 1076 q 384 1108 355 1108 q 416 1093 406 1108 q 427 1060 427 1078 q 415 1020 427 1036 q 375 1004 403 1004 q 339 1020 351 1004 q 327 1054 327 1035 z "},"ż":{"ha":648,"x_min":83,"x_max":566,"o":"m 536 583 q 490 522 518 561 l 450 468 q 274 230 391 386 q 158 54 158 75 l 158 53 q 566 61 444 53 l 559 0 l 83 0 l 86 60 q 174 171 121 101 q 314 357 227 241 q 436 527 401 474 q 471 587 471 579 l 471 595 q 86 583 221 595 l 92 644 l 541 644 l 536 583 m 277 839 q 290 879 277 862 q 331 896 303 896 q 366 880 355 896 q 376 846 376 865 q 364 806 376 823 q 323 790 351 790 q 287 804 298 790 q 277 839 277 818 z "},"Ž":{"ha":726,"x_min":81,"x_max":640,"o":"m 81 0 l 85 35 q 225 278 127 102 q 428 631 323 454 q 533 831 533 808 l 533 833 l 397 834 q 87 828 245 834 l 93 884 l 618 884 l 616 844 q 363 419 562 766 q 164 56 164 71 l 164 49 q 380 51 267 49 q 640 61 494 53 l 639 0 l 81 0 m 529 1146 q 519 1131 529 1143 l 507 1115 q 449 1037 494 1099 q 395 960 404 976 l 311 960 q 301 975 309 964 l 288 992 q 222 1078 270 1015 q 175 1146 175 1141 l 211 1146 l 243 1115 q 353 1010 290 1072 q 435 1090 380 1038 q 492 1146 490 1143 l 529 1146 z "},"ž":{"ha":648,"x_min":83,"x_max":566,"o":"m 536 583 q 490 522 518 561 l 450 468 q 274 230 391 386 q 158 54 158 75 l 158 53 q 566 61 444 53 l 559 0 l 83 0 l 86 60 q 174 171 121 101 q 314 357 227 241 q 436 527 401 474 q 471 587 471 579 l 471 595 q 86 583 221 595 l 92 644 l 541 644 l 536 583 m 501 956 q 487 926 501 951 q 416 820 473 900 l 358 736 l 292 736 q 219 839 292 737 q 147 956 147 941 l 178 956 q 208 916 178 952 q 325 790 239 880 q 409 879 347 812 q 471 956 471 946 l 501 956 z "},"Ɓ":{"ha":825,"x_min":0,"x_max":746,"o":"m 361 -4 q 179 0 328 -4 l 184 142 q 192 465 192 347 q 190 605 192 532 q 184 764 188 679 l 182 832 l 164 832 q 76 813 102 832 q 50 764 50 793 q 55 713 50 741 q 62 675 59 685 l 14 665 q 5 707 9 679 q 0 754 0 734 q 43 852 0 821 q 171 884 86 884 l 237 884 q 315 886 270 884 l 360 887 q 416 888 386 887 q 618 839 551 888 q 685 694 685 791 q 647 565 685 621 q 547 484 608 510 l 547 479 q 691 415 637 469 q 746 276 746 361 q 640 68 746 141 q 361 -4 534 -4 m 239 833 q 242 742 241 821 q 243 504 243 663 q 357 503 271 503 l 386 502 q 550 537 475 502 q 629 679 625 572 q 576 798 629 759 q 411 838 524 838 q 293 836 343 838 q 239 833 243 833 m 374 456 q 295 455 321 456 q 243 450 269 454 l 242 237 q 245 53 242 121 q 353 45 282 45 q 599 98 507 45 q 690 258 690 152 q 615 404 690 353 q 374 456 541 456 z "},"Ɔ":{"ha":758,"x_min":37,"x_max":679,"o":"m 679 455 q 616 210 679 318 q 447 41 554 101 q 216 -18 339 -18 q 154 -14 179 -18 q 93 1 128 -9 l 106 58 q 232 37 184 37 q 512 148 404 37 q 621 437 621 258 q 510 744 621 642 q 200 847 400 847 q 37 818 134 847 l 41 868 q 216 896 116 896 q 554 779 430 896 q 679 455 679 663 z "},"Ɖ":{"ha":890,"x_min":49,"x_max":807,"o":"m 345 -11 q 269 -7 325 -11 l 151 0 q 163 412 161 235 l 49 408 l 53 460 q 108 458 90 458 l 163 457 l 163 465 q 151 884 163 671 l 189 884 q 242 884 219 884 l 279 886 q 354 888 319 888 q 688 780 569 888 q 807 458 807 673 q 681 117 807 245 q 345 -11 555 -11 m 366 838 q 214 832 267 838 q 214 653 214 713 l 215 457 q 511 460 316 457 l 510 408 q 410 409 454 408 l 336 410 q 215 412 264 412 l 215 281 q 218 45 215 145 q 274 39 246 41 q 342 37 301 37 q 642 144 536 37 q 749 443 749 251 q 645 745 749 653 q 366 838 541 838 z "},"Ɗ":{"ha":918,"x_min":0,"x_max":835,"o":"m 372 -11 q 296 -7 353 -11 l 179 0 q 191 465 191 245 q 182 832 191 652 l 164 832 q 76 813 102 832 q 50 764 50 793 q 55 713 50 741 q 62 675 59 685 l 14 665 q 5 707 9 679 q 0 754 0 734 q 43 852 0 821 q 171 884 86 884 l 216 884 q 270 884 247 884 l 307 886 q 382 888 347 888 q 716 780 597 888 q 835 458 835 673 q 709 117 835 245 q 372 -11 583 -11 m 393 838 q 241 832 294 838 q 242 653 241 713 l 243 465 l 242 258 q 245 45 242 136 q 301 39 274 41 q 370 37 329 37 q 670 144 564 37 q 777 443 777 251 q 673 745 777 653 q 393 838 569 838 z "},"Ǝ":{"ha":715,"x_min":41,"x_max":564,"o":"m 564 884 l 559 742 q 551 418 551 537 q 557 152 551 295 q 564 0 564 9 l 83 0 l 86 56 q 503 50 236 50 q 500 395 500 201 q 167 387 288 395 l 167 448 q 500 441 328 441 l 500 591 q 497 835 500 736 q 41 824 247 835 l 43 884 l 564 884 z "},"Ə":{"ha":821,"x_min":68,"x_max":746,"o":"m 746 436 q 647 97 746 212 q 376 -17 548 -17 q 147 75 226 -17 q 68 326 68 166 l 68 382 q 68 410 68 403 l 688 410 q 667 588 688 511 q 595 727 646 665 q 468 819 545 790 q 309 847 392 847 q 225 842 257 847 q 146 825 194 838 l 122 819 l 131 872 q 217 889 172 883 q 330 896 262 896 q 496 863 412 896 q 639 762 581 829 q 722 615 698 694 q 746 436 746 536 m 681 363 l 125 363 q 186 105 125 179 q 379 31 248 31 q 585 109 501 31 q 681 363 668 186 z "},"Ɛ":{"ha":728,"x_min":92,"x_max":684,"o":"m 149 248 q 226 78 149 127 q 421 29 304 29 q 684 85 561 29 l 682 24 q 556 -9 624 1 q 397 -20 488 -20 q 180 48 268 -20 q 92 243 92 116 q 139 396 92 339 q 286 475 187 453 l 286 479 q 173 550 216 505 q 131 673 131 595 q 204 835 131 775 q 400 895 278 895 q 530 884 464 895 q 612 865 595 873 l 603 804 q 513 831 573 819 q 411 844 453 844 q 240 799 290 844 q 189 669 189 753 q 251 543 189 587 q 412 498 312 498 q 490 499 454 498 q 547 501 527 500 l 538 446 q 501 449 517 448 q 454 450 485 450 q 315 438 379 450 q 199 381 250 426 q 149 248 149 337 z "},"Ƒ":{"ha":676,"x_min":-12,"x_max":640,"o":"m 1 -256 q 75 -265 43 -265 q 139 -230 122 -265 q 157 -123 156 -195 q 161 119 158 -51 q 164 465 164 289 q 161 638 164 558 q 154 825 159 718 l 151 884 l 640 884 l 636 828 q 212 833 500 833 q 215 469 215 688 q 529 475 410 469 l 529 416 q 402 420 467 420 q 215 421 338 421 l 215 128 q 216 -151 215 -40 q 181 -276 216 -232 q 83 -321 146 -321 q -12 -309 38 -321 l 1 -256 z "},"ƒ":{"ha":700,"x_min":58,"x_max":616,"o":"m 582 852 q 557 857 577 852 q 525 861 537 861 q 418 802 451 861 q 367 536 385 743 q 452 537 410 536 l 534 538 q 561 539 543 538 l 562 493 q 364 496 474 496 q 318 58 348 252 q 242 -216 288 -137 q 87 -318 197 -294 l 58 -292 q 179 -220 149 -255 q 232 -117 209 -184 q 277 114 255 -49 q 315 496 298 277 q 216 494 279 496 l 175 493 l 175 539 q 319 536 222 536 q 350 756 328 680 q 412 869 371 832 q 536 907 453 907 q 572 904 555 907 q 616 896 589 902 l 603 847 l 582 852 z "},"Ɣ":{"ha":743,"x_min":7,"x_max":734,"o":"m 547 443 q 380 75 451 224 q 432 -54 398 29 q 467 -180 467 -136 q 432 -290 467 -258 q 334 -322 398 -322 q 249 -285 279 -322 q 220 -192 220 -248 q 243 -78 220 -142 q 322 86 267 -15 q 198 405 275 216 q 64 723 121 593 q 7 884 7 854 l 78 884 q 191 562 78 836 q 357 139 304 288 q 515 489 420 264 l 559 593 q 647 804 624 745 q 671 884 671 864 l 734 884 q 712 811 734 865 q 629 623 690 758 l 547 443 m 370 -33 l 347 26 q 283 -109 296 -65 q 271 -196 271 -153 q 290 -255 271 -235 q 342 -275 310 -275 q 392 -252 373 -275 q 411 -186 411 -229 q 402 -124 411 -155 q 370 -33 393 -93 z "},"Ƙ":{"ha":827,"x_min":151,"x_max":818,"o":"m 818 879 l 790 827 q 754 843 769 838 q 715 848 739 848 q 671 834 690 848 q 618 787 652 820 l 603 771 q 441 609 518 680 q 318 507 363 538 l 318 503 q 420 439 363 492 q 607 237 477 387 q 803 0 803 14 l 726 0 q 653 92 724 6 q 509 260 581 177 q 342 431 399 389 q 239 473 284 473 l 215 473 q 222 0 215 235 l 151 0 q 160 245 157 140 q 163 465 163 351 q 151 884 163 671 l 222 884 q 215 518 215 743 l 233 518 q 402 635 279 518 q 589 827 526 752 q 718 903 652 903 q 818 879 765 903 z "},"ƙ":{"ha":648,"x_min":107,"x_max":644,"o":"m 385 961 l 371 905 q 278 916 326 916 q 204 887 231 916 q 178 790 178 859 q 174 510 174 609 l 174 399 l 175 399 q 269 451 201 399 q 413 566 336 503 q 490 644 490 628 l 586 644 q 561 613 586 636 q 465 538 536 590 l 368 467 q 261 387 276 399 l 261 386 q 348 309 301 353 q 478 184 395 264 l 510 153 q 617 40 589 73 q 644 0 644 7 l 551 0 q 434 138 551 18 q 258 314 317 258 q 178 370 199 370 l 175 370 q 180 132 175 312 l 184 0 l 107 0 q 110 100 109 68 l 114 243 q 117 507 117 365 q 115 665 117 553 q 114 791 114 778 q 159 927 114 880 q 278 974 204 974 q 385 961 332 974 z "},"Ơ":{"ha":960,"x_min":79,"x_max":986,"o":"m 852 635 q 880 453 880 555 q 755 97 880 222 q 471 -28 631 -28 q 200 89 321 -28 q 79 418 79 205 q 205 773 79 648 q 489 899 331 899 q 696 833 602 899 q 838 672 791 768 q 901 726 877 688 q 933 818 925 763 q 888 842 905 827 q 871 884 871 857 q 887 925 871 906 q 930 945 903 945 q 968 927 951 945 q 986 882 986 909 q 952 731 986 798 q 852 635 918 665 m 468 852 q 243 741 348 852 q 138 429 138 629 q 248 121 138 224 q 492 18 357 18 q 718 132 614 18 q 822 440 822 245 q 713 752 822 652 q 468 852 604 852 z "},"ơ":{"ha":819,"x_min":86,"x_max":819,"o":"m 676 453 q 688 346 688 404 q 595 74 688 174 q 374 -26 503 -26 q 169 60 251 -26 q 86 297 86 146 q 178 572 86 471 q 404 673 271 673 q 562 622 488 673 q 665 490 636 571 q 726 533 703 506 q 760 593 749 560 q 720 616 733 601 q 707 659 707 631 q 721 700 707 681 q 764 720 734 720 q 802 702 784 720 q 819 657 819 684 q 781 536 819 591 q 676 453 743 481 m 386 628 q 203 532 261 628 q 144 328 144 436 q 205 117 144 215 q 387 20 265 20 q 571 116 511 20 q 631 319 631 212 q 571 525 631 422 q 386 628 511 628 z "},"Ư":{"ha":1042,"x_min":136,"x_max":1028,"o":"m 838 623 q 836 427 836 546 q 745 100 836 212 q 486 -12 654 -12 q 227 86 306 -12 q 147 396 147 184 q 136 884 147 626 l 207 884 l 205 825 q 200 514 200 572 q 228 213 200 304 q 314 79 255 121 q 488 37 374 37 q 719 150 652 37 q 786 515 786 262 q 782 691 786 568 q 775 884 779 814 l 843 884 l 842 854 q 839 665 839 726 q 927 719 890 678 q 975 818 964 760 q 930 842 947 827 q 913 884 913 857 q 928 925 913 905 q 972 945 943 945 q 1011 926 994 945 q 1028 882 1028 908 q 975 718 1028 794 q 838 623 921 642 z "},"ư":{"ha":806,"x_min":115,"x_max":819,"o":"m 633 439 q 632 277 632 390 q 644 0 632 136 l 590 -1 q 582 64 582 37 l 579 64 q 481 8 540 32 q 353 -16 422 -16 q 166 46 211 -16 q 121 215 121 109 l 121 301 q 122 347 121 317 q 123 447 123 385 q 115 642 123 534 l 187 646 q 182 375 182 527 q 189 177 182 253 q 231 71 195 101 q 357 40 267 40 q 578 115 498 40 q 572 642 578 522 l 636 646 q 635 564 635 597 l 633 481 q 718 523 687 493 q 760 593 748 553 q 720 616 733 601 q 707 659 707 631 q 721 700 707 681 q 764 720 734 720 q 802 702 784 720 q 819 657 819 684 q 769 519 819 579 q 633 439 718 459 z "},"Ʋ":{"ha":946,"x_min":136,"x_max":844,"o":"m 595 847 q 517 836 562 847 l 511 890 q 553 896 535 895 q 597 897 570 897 q 702 876 656 897 q 785 794 747 855 q 834 666 823 733 q 844 555 844 599 q 786 254 844 382 q 631 56 727 125 q 427 -12 536 -12 q 255 30 315 -12 q 171 158 195 72 q 147 396 147 244 q 136 884 147 626 l 207 884 l 205 825 q 200 514 200 572 q 212 236 200 328 q 271 90 224 144 q 421 36 318 36 q 682 177 573 36 q 790 519 790 318 q 745 753 790 659 q 595 847 699 847 z "},"Ƴ":{"ha":765,"x_min":24,"x_max":799,"o":"m 476 505 q 422 369 439 427 q 404 271 404 312 q 410 0 404 148 l 339 0 l 340 16 q 347 279 347 222 q 266 520 347 391 q 104 761 184 650 q 24 884 24 871 l 98 884 q 230 675 98 866 q 380 370 361 485 l 386 370 q 466 592 390 426 q 585 831 542 759 q 699 903 627 903 q 799 879 745 903 l 771 827 q 734 843 751 838 q 693 848 718 848 q 635 812 663 848 q 568 696 608 777 q 491 537 528 616 l 476 505 z "},"ƴ":{"ha":614,"x_min":35,"x_max":760,"o":"m 86 -300 l 89 -244 q 237 -174 186 -244 q 289 -11 289 -104 q 239 165 289 33 q 77 551 189 298 l 35 644 l 110 644 q 215 370 110 622 q 325 60 321 117 l 328 60 q 380 278 328 106 q 466 569 433 450 q 531 796 499 689 q 664 903 564 903 q 710 897 688 903 q 760 879 732 891 l 732 827 q 697 843 712 838 q 660 848 682 848 q 591 784 615 848 q 485 452 568 720 l 460 371 q 341 -31 377 123 q 245 -242 306 -184 q 86 -300 184 -300 z "},"Ʒ":{"ha":728,"x_min":52,"x_max":637,"o":"m 637 257 q 602 124 637 190 q 498 19 566 58 q 336 -20 430 -20 q 52 29 159 -20 l 65 86 q 192 41 136 53 q 332 29 249 29 q 510 94 441 29 q 579 264 579 159 q 508 428 579 372 q 310 485 437 485 q 210 482 233 485 l 224 529 l 298 602 q 463 766 413 713 q 513 831 513 819 l 513 833 l 376 834 q 66 828 224 834 l 72 884 l 597 884 l 596 844 q 513 749 569 806 q 357 596 457 692 l 289 530 q 550 464 463 530 q 637 257 637 397 z "},"ǝ":{"ha":714,"x_min":83,"x_max":629,"o":"m 574 319 q 493 537 574 451 q 274 623 412 623 q 100 602 170 623 l 110 656 q 175 669 131 663 q 269 675 219 675 q 539 581 448 675 q 629 347 629 486 q 611 210 629 273 q 557 95 593 147 q 338 -16 472 -16 q 150 62 217 -16 q 83 254 83 140 q 86 314 83 292 l 574 319 m 570 271 l 144 271 q 194 95 144 157 q 340 33 243 33 q 492 94 431 33 q 570 271 553 155 z "},"Ș":{"ha":693,"x_min":81,"x_max":614,"o":"m 144 692 q 160 613 144 642 q 218 554 176 584 q 336 495 260 524 q 468 438 411 467 q 556 375 525 408 q 601 304 588 341 q 614 218 614 267 q 532 40 614 100 q 293 -20 450 -20 q 81 7 170 -20 l 94 71 q 202 40 152 49 q 310 32 253 32 q 498 74 437 32 q 558 212 558 116 q 511 336 558 288 q 330 434 465 385 q 142 537 195 483 q 89 673 89 591 q 164 835 89 774 q 347 896 239 896 q 554 872 469 896 l 541 815 q 434 837 477 830 q 343 843 390 843 q 196 800 248 843 q 144 692 144 757 m 378 -221 q 321 -205 340 -221 q 302 -165 302 -190 q 317 -124 302 -142 q 359 -107 332 -107 q 405 -128 388 -107 q 421 -193 421 -149 q 391 -286 421 -235 q 334 -358 361 -338 l 319 -340 q 363 -273 348 -305 q 378 -221 378 -240 z "},"ș":{"ha":582,"x_min":75,"x_max":507,"o":"m 75 22 l 90 86 q 190 56 136 65 q 313 46 243 46 q 415 77 378 46 q 453 158 453 109 q 433 230 453 199 q 343 289 414 261 q 212 345 273 317 q 123 412 152 373 q 94 501 94 451 q 153 617 94 574 q 300 660 211 660 q 482 635 397 660 l 467 578 q 293 606 399 606 q 188 576 227 606 q 149 503 149 546 q 190 425 149 453 q 329 358 231 397 q 467 278 427 318 q 507 167 507 238 q 450 36 507 82 q 293 -11 393 -11 q 75 22 180 -11 m 313 -221 q 256 -205 275 -221 q 237 -165 237 -190 q 252 -124 237 -142 q 294 -107 267 -107 q 339 -128 323 -107 q 356 -193 356 -149 q 326 -286 356 -235 q 269 -358 296 -338 l 254 -340 q 298 -273 283 -305 q 313 -221 313 -240 z "},"Ț":{"ha":684,"x_min":16,"x_max":671,"o":"m 573 830 q 378 833 424 833 q 371 467 371 675 q 378 0 371 245 l 307 0 q 318 465 318 284 q 316 640 318 561 q 309 833 313 720 q 150 830 255 833 l 16 827 l 16 884 l 671 884 l 668 828 l 573 830 m 355 -221 q 298 -205 317 -221 q 279 -165 279 -190 q 294 -124 279 -142 q 336 -107 309 -107 q 382 -128 366 -107 q 399 -193 399 -149 q 369 -286 399 -235 q 311 -358 339 -338 l 297 -340 q 340 -273 326 -305 q 355 -221 355 -240 z "},"ț":{"ha":493,"x_min":28,"x_max":447,"o":"m 441 4 q 340 -14 382 -14 q 187 53 222 -14 q 153 265 153 119 q 154 582 153 443 q 28 578 113 582 l 31 633 q 160 629 106 629 q 168 825 160 703 l 228 829 q 215 629 215 673 q 433 636 274 629 l 429 578 q 211 582 290 582 q 207 302 207 463 q 245 82 207 126 q 354 37 283 37 q 395 41 374 37 q 447 53 416 45 l 441 4 m 290 -221 q 233 -205 252 -221 q 214 -165 214 -190 q 229 -124 214 -142 q 271 -107 244 -107 q 317 -128 300 -107 q 334 -193 334 -149 q 304 -286 334 -235 q 246 -358 274 -338 l 232 -340 q 275 -273 260 -305 q 290 -221 290 -240 z "},"ɓ":{"ha":774,"x_min":115,"x_max":689,"o":"m 182 579 q 272 643 213 617 q 401 668 331 668 q 613 575 537 668 q 689 347 689 483 q 600 86 689 189 q 371 -17 511 -17 q 258 -4 307 -17 q 180 26 209 9 l 178 26 l 165 0 l 115 0 q 122 507 122 193 q 121 595 122 557 l 120 656 q 118 791 118 726 q 163 927 118 881 q 281 974 208 974 q 387 961 334 974 l 374 905 q 281 916 329 916 q 207 887 234 916 q 180 790 180 859 q 179 579 179 733 l 182 579 m 383 614 q 176 515 243 614 q 184 79 176 260 q 358 32 254 32 q 559 120 494 32 q 624 335 624 209 q 557 544 624 473 q 383 614 490 614 z "},"ɔ":{"ha":637,"x_min":62,"x_max":551,"o":"m 493 315 q 410 533 493 452 q 193 614 327 614 q 132 608 161 614 q 62 589 104 602 l 62 637 q 129 659 85 652 q 208 667 173 667 q 457 574 362 667 q 551 337 551 482 q 506 150 551 227 q 386 28 460 73 q 204 -17 311 -17 q 92 1 134 -17 l 103 69 q 178 48 148 55 q 240 41 208 41 q 366 77 305 41 q 459 174 426 113 q 493 315 493 235 z "},"ɖ":{"ha":764,"x_min":86,"x_max":828,"o":"m 595 72 q 503 9 564 35 q 367 -17 443 -17 q 164 76 243 -17 q 86 304 86 170 q 175 568 86 466 q 412 669 264 669 q 519 655 474 669 q 589 615 564 642 l 590 615 q 585 954 590 737 l 656 958 q 650 709 650 877 l 651 543 q 652 400 651 493 q 659 64 652 286 l 664 -138 q 682 -239 665 -215 q 741 -262 699 -262 q 814 -253 772 -262 l 828 -309 q 732 -321 778 -321 q 634 -282 668 -321 q 600 -164 600 -243 q 602 72 602 -28 l 595 72 m 590 566 q 517 607 561 593 q 422 621 474 621 q 219 539 288 621 q 151 304 151 458 q 216 111 151 183 q 395 39 281 39 q 498 57 452 39 q 600 134 545 76 q 601 237 600 168 q 590 566 601 414 z "},"ɗ":{"ha":764,"x_min":86,"x_max":854,"o":"m 591 616 q 590 791 590 676 q 634 930 590 886 q 747 974 679 974 q 854 961 802 974 l 840 905 q 747 916 795 916 q 676 887 701 916 q 652 790 652 859 q 651 711 652 771 l 652 510 q 664 0 652 208 l 607 -1 q 602 72 602 31 l 595 72 q 503 9 564 35 q 367 -17 443 -17 q 164 76 243 -17 q 86 304 86 170 q 175 568 86 466 q 412 669 264 669 q 589 616 541 669 l 591 616 m 590 567 q 518 608 562 595 q 422 621 475 621 q 219 539 288 621 q 151 304 151 458 q 216 111 151 183 q 395 39 281 39 q 498 57 452 39 q 600 134 545 76 q 601 237 600 168 q 590 567 601 415 z "},"ə":{"ha":714,"x_min":83,"x_max":629,"o":"m 574 319 q 493 537 574 451 q 274 623 412 623 q 100 602 170 623 l 110 656 q 175 669 131 663 q 269 675 219 675 q 539 581 448 675 q 629 347 629 486 q 611 210 629 273 q 557 95 593 147 q 338 -16 472 -16 q 150 62 217 -16 q 83 254 83 140 q 86 314 83 292 l 574 319 m 570 271 l 144 271 q 194 95 144 157 q 340 33 243 33 q 492 94 431 33 q 570 271 553 155 z "},"ɛ":{"ha":637,"x_min":93,"x_max":572,"o":"m 161 500 q 221 405 161 440 q 386 370 281 370 q 493 375 450 370 l 482 311 q 386 322 424 322 q 202 290 255 322 q 149 182 149 258 q 202 64 149 101 q 364 26 256 26 q 465 43 410 26 q 572 92 519 60 l 572 37 q 335 -18 482 -18 q 154 33 215 -18 q 93 180 93 84 q 130 287 93 241 q 229 349 167 332 l 229 353 q 140 403 174 363 q 106 494 106 443 q 169 622 106 578 q 366 665 233 665 q 474 660 427 665 q 562 642 521 654 l 551 589 q 363 619 461 619 q 214 588 267 619 q 161 500 161 556 z "},"ɣ":{"ha":654,"x_min":39,"x_max":616,"o":"m 420 220 q 384 145 410 199 q 346 61 358 91 q 404 -91 387 -37 q 421 -183 421 -144 q 388 -291 421 -260 q 290 -322 355 -322 q 206 -286 235 -322 q 176 -195 176 -250 q 195 -103 176 -149 q 288 69 214 -57 l 236 191 q 171 334 207 258 l 145 389 q 65 564 92 504 q 39 644 39 625 l 102 644 q 184 433 102 612 q 322 118 267 253 q 364 216 359 203 q 460 420 369 230 q 551 644 551 610 l 616 644 q 585 564 616 633 q 475 334 553 494 l 420 220 m 311 14 q 241 -121 252 -79 q 231 -203 231 -162 q 249 -256 231 -237 q 298 -275 268 -275 q 349 -255 330 -275 q 368 -192 368 -234 q 355 -106 368 -153 q 311 14 342 -60 z "},"ʃ":{"ha":306,"x_min":-136,"x_max":408,"o":"m 167 595 l 167 58 q 154 -141 167 -69 q 123 -241 142 -212 q 64 -294 104 -271 q -57 -318 25 -318 q -90 -314 -63 -318 q -136 -304 -116 -311 l -125 -241 q -84 -253 -110 -248 q -41 -257 -58 -257 q 37 -235 12 -257 q 77 -185 62 -214 q 99 -92 93 -156 q 106 58 106 -28 l 106 595 q 156 913 106 852 q 329 974 205 974 q 362 970 337 974 q 408 961 387 966 l 395 907 q 368 912 382 911 q 334 913 354 913 q 201 863 235 913 q 167 595 167 812 z "},"ʋ":{"ha":798,"x_min":102,"x_max":676,"o":"m 501 612 q 465 610 481 612 q 431 600 449 607 l 418 652 q 458 661 433 657 q 503 665 484 665 q 634 605 592 665 q 676 443 676 545 q 586 104 676 230 q 347 -22 496 -22 q 194 41 242 -22 q 146 264 146 105 q 134 471 146 378 q 102 632 122 564 l 158 660 q 186 511 176 596 q 196 349 196 425 q 213 131 196 189 q 260 49 230 74 q 342 24 291 24 q 550 137 474 24 q 625 444 625 251 q 595 570 625 528 q 501 612 565 612 z "},"ʒ":{"ha":564,"x_min":17,"x_max":479,"o":"m 221 -322 q 109 -315 163 -322 q 17 -297 54 -309 l 25 -240 q 110 -267 62 -258 q 207 -277 157 -277 q 366 -213 310 -277 q 421 -36 421 -149 q 360 135 421 74 q 182 196 299 196 q 109 193 149 196 l 121 241 q 221 358 170 298 q 320 475 272 418 q 406 587 406 578 l 406 595 q 47 583 181 595 l 53 644 l 475 644 l 471 583 q 344 434 447 553 q 180 241 241 315 q 403 169 326 241 q 479 -29 479 97 q 408 -239 479 -156 q 221 -322 336 -322 z "},"ʻ":{"ha":350,"x_min":90,"x_max":261,"o":"m 143 757 q 197 738 178 755 q 215 690 215 721 q 196 637 215 655 q 151 619 178 619 q 107 641 125 619 q 90 700 90 663 q 125 841 90 778 q 241 977 159 905 l 261 950 q 180 859 210 905 q 143 757 150 814 z "},"ʼ":{"ha":350,"x_min":102,"x_max":272,"o":"m 220 839 q 166 858 184 841 q 147 905 147 876 q 166 959 147 941 q 211 977 184 977 q 255 955 237 977 q 272 896 272 932 q 238 754 272 818 q 121 619 203 690 l 102 646 q 182 737 152 692 q 220 839 213 782 z "},"ˆ":{"ha":530,"x_min":89,"x_max":443,"o":"m 267 897 q 185 812 252 882 q 119 736 119 743 l 89 736 q 104 768 89 741 q 153 842 120 795 l 209 920 q 233 956 230 950 l 300 956 l 316 932 q 395 819 347 890 q 443 736 443 747 l 412 736 q 380 777 412 741 q 267 897 348 813 z "},"ˇ":{"ha":530,"x_min":89,"x_max":443,"o":"m 443 956 q 429 926 443 951 q 358 820 414 900 l 300 736 l 233 736 q 161 839 233 737 q 89 956 89 941 l 119 956 q 150 916 119 952 q 267 790 180 880 q 350 879 288 812 q 412 956 412 946 l 443 956 z "},"ˉ":{"ha":339,"x_min":39,"x_max":304,"o":"m 304 872 l 298 821 l 39 821 l 45 872 l 304 872 z "},"˘":{"ha":530,"x_min":71,"x_max":460,"o":"m 71 895 l 110 921 q 171 856 131 881 q 262 831 211 831 q 421 921 368 831 l 460 895 q 265 781 395 781 q 71 895 135 781 z "},"˙":{"ha":357,"x_min":144,"x_max":244,"o":"m 144 839 q 158 879 144 862 q 199 896 171 896 q 233 880 222 896 q 244 846 244 865 q 232 806 244 823 q 191 790 219 790 q 155 804 165 790 q 144 839 144 818 z "},"˛":{"ha":318,"x_min":62,"x_max":265,"o":"m 62 -212 q 91 -101 62 -150 q 179 -8 120 -52 l 179 0 l 250 0 q 143 -98 177 -47 q 110 -212 110 -149 q 131 -267 110 -247 q 189 -286 153 -286 q 254 -272 223 -286 l 265 -313 q 222 -325 246 -321 q 175 -329 197 -329 q 96 -299 130 -329 q 62 -212 62 -269 z "},"˜":{"ha":600,"x_min":56,"x_max":545,"o":"m 192 829 q 78 739 136 829 l 56 754 q 221 886 122 886 q 316 869 269 886 q 404 852 364 852 q 463 874 434 852 q 518 942 492 897 l 545 925 q 467 825 509 855 q 376 794 426 794 q 286 812 338 794 q 192 829 233 829 z "},"˝":{"ha":599,"x_min":110,"x_max":478,"o":"m 182 829 q 155 780 176 817 q 135 736 135 743 l 110 736 q 124 807 110 749 q 148 907 139 866 q 157 956 157 949 l 250 956 q 224 905 250 948 l 182 829 m 418 844 l 404 819 q 380 774 397 807 q 363 736 363 742 l 335 736 q 360 849 335 753 q 385 956 385 945 l 478 956 q 471 938 478 951 q 451 903 463 924 l 418 844 z "},"̀":{"ha":0,"x_min":-507,"x_max":-289,"o":"m -507 956 l -411 956 q -350 849 -411 948 q -289 736 -289 749 l -327 736 q -358 780 -327 744 q -415 845 -390 817 q -474 913 -441 874 q -507 956 -507 952 z "},"́":{"ha":0,"x_min":-391,"x_max":-174,"o":"m -264 847 q -327 772 -302 802 q -351 736 -351 743 l -391 736 q -378 765 -391 741 q -338 833 -366 788 l -286 923 q -269 956 -269 953 l -174 956 q -187 938 -174 954 q -209 911 -200 922 l -264 847 z "},"̃":{"ha":0,"x_min":-555,"x_max":-66,"o":"m -419 829 q -533 739 -475 829 l -555 754 q -390 886 -489 886 q -295 869 -342 886 q -207 852 -247 852 q -148 874 -177 852 q -93 942 -119 897 l -66 925 q -144 825 -102 855 q -235 794 -185 794 q -325 812 -273 794 q -419 829 -378 829 z "},"̉":{"ha":0,"x_min":-277,"x_max":-86,"o":"m -258 819 q -168 846 -193 830 q -143 893 -143 861 q -175 937 -143 924 q -277 950 -208 950 l -272 987 q -125 965 -165 987 q -86 893 -86 942 q -116 828 -86 855 q -211 789 -146 801 l -215 746 l -254 746 l -258 819 z "},"̣":{"ha":0,"x_min":-237,"x_max":-138,"o":"m -237 -134 q -222 -93 -237 -109 q -183 -77 -207 -77 q -151 -91 -164 -77 q -138 -123 -138 -104 q -152 -166 -138 -150 q -191 -182 -167 -182 q -225 -168 -212 -182 q -237 -134 -237 -154 z "},"ʹ":{"ha":205,"x_min":0,"x_max":205,"o":"m 47 736 l 0 736 q 47 841 0 749 q 94 956 94 933 l 205 956 q 186 916 205 943 q 125 842 166 888 q 47 736 47 749 z "},"͵":{"ha":205,"x_min":0,"x_max":205,"o":"m 110 -288 l 0 -288 q 80 -172 0 -265 q 160 -68 160 -79 l 205 -68 q 175 -138 205 -80 q 127 -235 144 -197 q 110 -288 110 -273 z "},"΄":{"ha":380,"x_min":71,"x_max":297,"o":"m 113 757 l 71 757 q 113 847 71 774 q 181 967 155 919 q 207 1023 207 1015 l 297 1023 q 205 894 297 1011 q 113 757 113 777 z "},"΅":{"ha":567,"x_min":123,"x_max":475,"o":"m 288 843 l 257 843 q 321 981 257 864 q 385 1111 385 1098 l 475 1111 q 381 980 475 1095 q 288 843 288 865 m 123 838 q 137 878 123 861 q 180 895 151 895 q 213 881 200 895 q 225 846 225 867 q 212 804 225 821 q 170 787 198 787 q 136 802 149 787 q 123 838 123 816 m 338 838 q 352 878 338 861 q 396 895 366 895 q 428 881 416 895 q 440 846 440 867 q 427 804 440 821 q 385 787 413 787 q 351 802 363 787 q 338 838 338 816 z "},"Ά":{"ha":875,"x_min":41,"x_max":868,"o":"m 233 322 q 142 100 171 177 q 114 0 114 22 l 41 0 q 230 431 41 22 q 419 884 419 840 l 496 884 q 682 440 496 844 q 868 0 868 36 l 798 0 q 676 322 798 44 l 233 322 m 457 828 l 451 828 q 250 367 451 808 l 655 367 q 506 709 555 602 q 457 828 457 817 m 113 757 l 71 757 q 113 847 71 774 q 181 967 155 919 q 207 1023 207 1015 l 297 1023 q 205 894 297 1011 q 113 757 113 777 z "},"Έ":{"ha":956,"x_min":71,"x_max":915,"o":"m 391 0 l 396 142 q 404 465 404 347 q 398 732 404 589 q 391 884 392 875 l 872 884 l 869 828 q 452 833 720 833 q 455 489 455 683 q 789 497 668 489 l 789 436 q 455 443 627 443 l 455 293 q 458 49 455 147 q 915 60 709 49 l 912 0 l 391 0 m 113 757 l 71 757 q 113 847 71 774 q 181 967 155 919 q 207 1023 207 1015 l 297 1023 q 205 894 297 1011 q 113 757 113 777 z "},"Ή":{"ha":1136,"x_min":71,"x_max":983,"o":"m 914 0 q 921 443 921 271 l 447 443 q 454 0 447 239 l 383 0 q 395 465 395 302 q 383 884 395 654 l 454 884 q 447 486 447 722 l 921 486 q 913 884 921 685 l 983 884 q 972 465 972 668 q 983 0 972 231 l 914 0 m 113 757 l 71 757 q 113 847 71 774 q 181 967 155 919 q 207 1023 207 1015 l 297 1023 q 205 894 297 1011 q 113 757 113 777 z "},"Ί":{"ha":616,"x_min":71,"x_max":464,"o":"m 393 0 q 404 465 404 302 q 393 884 404 654 l 464 884 q 456 467 456 722 q 464 0 456 239 l 393 0 m 113 757 l 71 757 q 113 847 71 774 q 181 967 155 919 q 207 1023 207 1015 l 297 1023 q 205 894 297 1011 q 113 757 113 777 z "},"Ό":{"ha":1121,"x_min":71,"x_max":1042,"o":"m 632 -28 q 360 90 479 -28 q 241 429 241 208 q 363 770 241 641 q 649 899 485 899 q 925 778 809 899 q 1042 453 1042 656 q 920 101 1042 231 q 632 -28 798 -28 m 629 852 q 463 795 542 852 q 341 642 383 738 q 299 429 299 546 q 405 124 299 231 q 653 18 510 18 q 882 135 781 18 q 983 440 983 252 q 880 747 983 642 q 629 852 777 852 m 113 757 l 71 757 q 113 847 71 774 q 181 967 155 919 q 207 1023 207 1015 l 297 1023 q 205 894 297 1011 q 113 757 113 777 z "},"Ύ":{"ha":1051,"x_min":71,"x_max":1028,"o":"m 690 278 q 696 0 690 148 l 625 0 l 626 16 q 633 279 633 222 q 552 520 633 391 q 390 761 471 650 q 310 884 310 871 l 385 884 q 516 675 385 866 q 667 370 648 485 l 672 370 q 712 493 673 417 q 808 651 751 568 q 913 805 865 734 q 961 884 961 876 l 1028 884 q 926 726 1028 863 q 757 479 823 589 q 690 278 690 370 m 113 757 l 71 757 q 113 847 71 774 q 181 967 155 919 q 207 1023 207 1015 l 297 1023 q 205 894 297 1011 q 113 757 113 777 z "},"Ώ":{"ha":1112,"x_min":71,"x_max":1093,"o":"m 113 757 l 71 757 q 113 847 71 774 q 181 967 155 919 q 207 1023 207 1015 l 297 1023 q 205 894 297 1011 q 113 757 113 777 m 579 0 l 228 0 l 221 60 q 489 52 361 52 l 489 60 q 383 210 489 90 q 277 503 277 330 q 378 791 277 684 q 657 897 479 897 q 936 791 835 897 q 1038 503 1038 684 q 931 211 1038 331 q 825 60 825 90 l 825 52 q 1093 60 954 52 l 1086 0 l 734 0 q 855 196 734 60 q 975 507 975 331 q 888 756 975 669 q 657 844 801 844 q 426 756 513 844 q 339 507 339 669 q 459 196 339 330 q 579 0 579 62 z "},"ΐ":{"ha":354,"x_min":-5,"x_max":354,"o":"m 257 32 q 298 37 275 32 q 354 50 321 41 l 349 5 q 254 -14 309 -14 q 139 41 172 -14 q 107 228 107 96 q 114 648 107 512 l 174 660 q 163 485 166 592 q 160 191 160 377 q 182 79 160 125 q 257 32 205 32 m 159 843 l 128 843 q 192 981 128 864 q 256 1111 256 1098 l 346 1111 q 252 980 346 1095 q 159 843 159 865 m -5 838 q 8 878 -5 861 q 52 895 22 895 q 84 881 71 895 q 96 846 96 867 q 83 804 96 821 q 41 787 69 787 q 7 802 20 787 q -5 838 -5 816 m 209 838 q 223 878 209 861 q 267 895 237 895 q 299 881 287 895 q 311 846 311 867 q 298 804 311 821 q 256 787 284 787 q 222 802 235 787 q 209 838 209 816 z "},"Α":{"ha":840,"x_min":7,"x_max":833,"o":"m 199 322 q 108 100 136 177 q 79 0 79 22 l 7 0 q 196 431 7 22 q 385 884 385 840 l 461 884 q 647 440 461 844 q 833 0 833 36 l 764 0 q 642 322 764 44 l 199 322 m 422 828 l 416 828 q 215 367 416 808 l 621 367 q 471 709 520 602 q 422 828 422 817 z "},"Β":{"ha":798,"x_min":151,"x_max":718,"o":"m 151 0 l 156 142 q 164 465 164 347 q 162 613 164 535 q 157 782 160 692 l 153 884 l 210 884 q 288 886 241 884 l 332 887 q 389 888 358 887 q 590 839 523 888 q 657 694 657 791 q 619 565 657 621 q 519 484 581 510 l 519 479 q 664 415 609 469 q 718 276 718 361 q 612 68 718 141 q 334 -4 507 -4 q 151 0 300 -4 m 211 833 q 214 742 214 821 q 215 504 215 663 q 329 503 243 503 l 358 502 q 522 537 447 502 q 602 679 597 572 q 549 798 602 759 q 383 838 496 838 q 266 836 315 838 q 211 833 216 833 m 215 450 l 214 250 q 218 53 214 122 q 325 45 254 45 q 571 98 479 45 q 663 258 663 152 q 588 404 663 353 q 346 456 513 456 q 267 455 293 456 q 215 450 241 454 z "},"Γ":{"ha":676,"x_min":151,"x_max":640,"o":"m 636 828 q 212 833 500 833 q 214 465 214 733 q 216 126 214 216 q 222 0 218 35 l 151 0 l 156 142 q 164 465 164 347 q 161 638 164 558 q 154 825 159 718 l 151 884 l 640 884 l 636 828 z "},"Δ":{"ha":808,"x_min":7,"x_max":800,"o":"m 368 884 l 446 884 q 560 577 446 852 q 738 161 675 302 q 800 0 800 20 l 7 0 q 72 162 7 16 q 253 580 137 307 q 368 884 368 852 m 403 833 l 399 833 q 368 735 399 817 q 269 496 338 654 l 233 414 q 130 181 161 257 q 79 47 98 105 l 729 47 q 526 531 648 256 q 403 833 403 807 z "},"Ε":{"ha":715,"x_min":151,"x_max":675,"o":"m 151 0 l 156 142 q 164 465 164 347 q 158 732 164 589 q 151 884 152 875 l 632 884 l 629 828 q 212 833 479 833 q 215 489 215 683 q 549 497 428 489 l 549 436 q 215 443 387 443 l 215 293 q 218 49 215 147 q 675 60 469 49 l 672 0 l 151 0 z "},"Ζ":{"ha":726,"x_min":81,"x_max":640,"o":"m 81 0 l 85 35 q 225 278 127 102 q 428 631 323 454 q 533 831 533 808 l 533 833 l 397 834 q 87 828 245 834 l 93 884 l 618 884 l 616 844 q 363 419 562 766 q 164 56 164 71 l 164 49 q 380 51 267 49 q 640 61 494 53 l 639 0 l 81 0 z "},"Η":{"ha":904,"x_min":151,"x_max":751,"o":"m 682 0 q 689 443 689 271 l 215 443 q 222 0 215 239 l 151 0 q 163 465 163 302 q 151 884 163 654 l 222 884 q 215 486 215 722 l 689 486 q 681 884 689 685 l 751 884 q 741 465 741 668 q 751 0 741 231 l 682 0 z "},"Θ":{"ha":960,"x_min":79,"x_max":880,"o":"m 471 -28 q 200 89 321 -28 q 79 418 79 205 q 205 773 79 648 q 489 899 331 899 q 760 781 639 899 q 880 453 880 664 q 755 97 880 222 q 471 -28 631 -28 m 468 852 q 243 741 348 852 q 138 429 138 629 q 248 121 138 224 q 492 18 357 18 q 718 132 614 18 q 822 440 822 245 q 713 752 822 652 q 468 852 604 852 m 311 425 l 311 482 q 485 475 387 475 q 652 482 584 475 l 652 425 q 482 429 596 429 q 311 425 371 429 z "},"Ι":{"ha":261,"x_min":94,"x_max":165,"o":"m 94 0 q 106 465 106 302 q 94 884 106 654 l 165 884 q 158 467 158 722 q 165 0 158 239 l 94 0 z "},"Κ":{"ha":827,"x_min":151,"x_max":803,"o":"m 509 260 q 342 431 399 389 q 239 473 284 473 l 215 473 q 222 0 215 235 l 151 0 q 160 245 157 140 q 163 465 163 351 q 151 884 163 671 l 222 884 q 215 518 215 743 l 233 518 q 460 690 288 518 q 632 884 632 863 l 714 884 q 677 842 714 875 q 516 683 640 810 q 318 507 392 557 l 318 503 q 420 439 363 492 q 607 237 477 387 q 803 0 803 14 l 726 0 q 653 92 724 6 q 509 260 581 177 z "},"Λ":{"ha":808,"x_min":3,"x_max":802,"o":"m 400 823 q 342 686 400 817 q 180 297 285 555 q 75 0 75 40 l 3 0 q 184 431 3 12 q 366 884 366 850 l 446 884 q 624 437 446 843 q 802 0 802 32 l 732 0 q 569 428 732 52 q 406 823 406 803 l 400 823 z "},"Μ":{"ha":1173,"x_min":122,"x_max":1029,"o":"m 961 0 q 939 468 956 222 q 918 742 921 715 q 913 798 914 769 l 911 798 l 767 456 q 620 87 642 156 q 597 0 597 19 l 549 0 q 476 236 549 39 q 336 623 404 433 q 258 829 268 813 l 254 829 q 218 360 251 654 q 184 0 184 66 l 122 0 q 172 381 133 55 q 211 884 211 707 l 304 884 q 340 770 304 873 q 438 492 376 667 l 488 354 q 558 153 541 206 q 575 82 575 100 l 579 82 q 728 472 579 132 q 878 884 878 811 l 970 884 q 990 510 970 796 q 1019 120 1010 223 l 1029 0 l 961 0 z "},"Ν":{"ha":949,"x_min":151,"x_max":782,"o":"m 277 793 q 639 262 551 401 q 730 111 726 123 l 733 111 q 726 410 726 262 l 726 593 q 722 884 726 778 l 782 884 q 774 439 774 728 q 775 207 774 308 q 782 0 777 106 l 743 0 q 651 142 742 0 q 489 387 560 283 l 334 614 l 283 688 q 231 764 249 737 q 207 803 214 790 l 204 803 q 210 510 210 642 q 208 334 210 448 l 208 181 q 211 0 208 71 l 151 0 q 163 465 163 262 q 151 884 163 671 l 215 884 q 240 846 215 882 l 277 793 z "},"Ξ":{"ha":729,"x_min":45,"x_max":685,"o":"m 668 827 q 361 832 548 832 q 72 827 176 832 l 75 884 l 669 884 l 668 827 m 165 436 l 165 497 q 387 488 272 488 q 574 497 498 488 l 574 436 q 385 441 511 441 q 165 436 260 441 m 45 0 l 47 60 q 386 53 165 53 q 685 60 579 53 l 682 0 l 45 0 z "},"Ο":{"ha":960,"x_min":79,"x_max":880,"o":"m 471 -28 q 199 90 318 -28 q 79 429 79 208 q 201 770 79 641 q 488 899 323 899 q 764 778 648 899 q 880 453 880 656 q 759 101 880 231 q 471 -28 637 -28 m 468 852 q 301 795 380 852 q 180 642 222 738 q 138 429 138 546 q 243 124 138 231 q 492 18 349 18 q 721 135 619 18 q 822 440 822 252 q 719 747 822 642 q 468 852 616 852 z "},"Π":{"ha":925,"x_min":151,"x_max":772,"o":"m 772 0 l 701 0 q 713 465 713 302 l 712 715 q 713 836 712 796 l 212 836 q 215 467 215 715 q 222 0 215 239 l 151 0 q 163 465 163 302 q 151 884 163 654 l 772 884 q 765 467 765 722 q 772 0 765 239 z "},"Ρ":{"ha":765,"x_min":151,"x_max":707,"o":"m 350 887 q 396 888 371 887 q 622 836 536 888 q 707 673 707 784 q 598 454 707 532 q 321 376 490 376 q 233 378 260 376 l 216 378 q 218 171 216 259 q 225 0 219 82 l 151 0 q 165 465 165 262 q 154 884 165 680 l 236 884 q 314 886 272 884 l 350 887 m 648 660 q 585 796 648 755 q 385 838 522 838 q 214 833 273 838 q 216 427 216 772 q 306 425 236 425 q 559 487 470 425 q 648 660 648 549 z "},"Σ":{"ha":724,"x_min":16,"x_max":700,"o":"m 657 828 q 147 833 392 833 l 147 831 q 191 772 147 819 q 338 623 235 725 l 468 492 q 219 202 331 330 q 107 53 107 75 l 107 50 q 700 62 450 50 l 694 0 l 16 0 q 113 141 16 22 q 380 460 210 260 l 397 479 l 397 484 l 252 631 q 134 752 233 651 q 36 884 36 853 l 660 884 l 657 828 z "},"Τ":{"ha":684,"x_min":16,"x_max":671,"o":"m 573 830 q 378 833 424 833 q 371 467 371 675 q 378 0 371 245 l 307 0 q 318 465 318 284 q 316 640 318 561 q 309 833 313 720 q 150 830 255 833 l 16 827 l 16 884 l 671 884 l 668 828 l 573 830 z "},"Υ":{"ha":761,"x_min":24,"x_max":742,"o":"m 404 278 q 410 0 404 148 l 339 0 l 340 16 q 347 279 347 222 q 266 520 347 391 q 104 761 184 650 q 24 884 24 871 l 98 884 q 230 675 98 866 q 380 370 361 485 l 386 370 q 426 493 387 417 q 522 651 465 568 q 627 805 578 734 q 675 884 675 876 l 742 884 q 640 726 742 863 q 471 479 537 589 q 404 278 404 370 z "},"Φ":{"ha":964,"x_min":79,"x_max":885,"o":"m 514 82 q 515 27 515 47 l 517 -28 l 446 -28 l 450 81 q 178 187 277 87 q 79 446 79 286 q 179 708 79 602 q 450 827 279 814 l 446 908 l 517 908 q 515 868 515 882 l 514 828 q 787 725 688 821 q 885 471 885 628 q 784 204 885 314 q 514 82 684 94 m 452 132 q 457 465 457 297 q 452 779 457 640 q 222 679 307 771 q 138 456 138 587 q 219 227 138 311 q 452 132 300 142 m 513 778 q 510 467 510 673 q 511 330 510 404 l 512 180 q 513 131 512 164 q 742 233 656 139 q 827 461 827 328 q 747 685 827 602 q 513 778 668 768 z "},"Χ":{"ha":736,"x_min":7,"x_max":729,"o":"m 653 0 q 595 125 653 28 q 370 443 538 222 l 366 443 l 309 368 q 141 123 198 221 q 85 0 85 25 l 7 0 q 119 176 7 16 q 235 341 231 336 l 336 482 l 336 489 l 313 520 q 133 771 203 670 q 64 884 64 871 l 140 884 q 168 826 140 873 q 240 713 195 779 l 265 677 q 370 532 328 587 l 376 532 q 405 570 391 552 l 429 602 q 570 804 531 738 q 608 884 608 870 l 693 884 q 653 827 693 874 q 559 705 613 779 l 545 684 q 492 609 534 669 q 406 492 449 548 l 406 486 q 622 183 514 340 q 729 0 729 26 l 653 0 z "},"Ψ":{"ha":936,"x_min":45,"x_max":892,"o":"m 892 857 q 869 640 869 756 q 834 488 869 563 q 708 360 800 414 q 505 306 616 306 l 498 306 q 503 31 498 209 l 504 0 l 433 0 q 441 258 439 142 l 443 306 q 176 385 276 306 q 77 648 77 464 q 67 754 77 694 q 45 857 58 813 l 92 878 q 124 654 118 814 q 205 425 130 494 q 443 350 280 355 q 444 465 444 390 q 433 884 444 668 l 504 884 q 497 467 497 718 l 497 350 q 739 444 657 355 q 821 678 821 534 q 848 878 822 822 l 892 857 z "},"Ω":{"ha":911,"x_min":20,"x_max":892,"o":"m 378 0 l 26 0 l 20 60 q 288 52 159 52 l 288 60 q 181 210 288 90 q 75 503 75 330 q 177 791 75 684 q 456 897 278 897 q 735 791 633 897 q 836 503 836 684 q 730 211 836 331 q 624 60 624 90 l 624 52 q 892 60 753 52 l 885 0 l 533 0 q 653 196 533 60 q 774 507 774 331 q 687 756 774 669 q 456 844 600 844 q 225 756 312 844 q 138 507 138 669 q 258 196 138 330 q 378 0 378 62 z "},"Ϊ":{"ha":375,"x_min":14,"x_max":359,"o":"m 151 0 q 163 465 163 302 q 151 884 163 654 l 222 884 q 215 467 215 722 q 222 0 215 239 l 151 0 m 14 1046 q 28 1083 14 1067 q 71 1099 41 1099 q 102 1085 91 1099 q 114 1051 114 1072 q 100 1011 114 1027 q 57 994 86 994 q 26 1009 38 994 q 14 1046 14 1025 m 262 1046 q 275 1083 262 1067 q 314 1099 287 1099 q 347 1086 335 1099 q 359 1051 359 1073 q 346 1011 359 1027 q 304 994 332 994 q 274 1009 286 994 q 262 1046 262 1025 z "},"Ϋ":{"ha":765,"x_min":24,"x_max":742,"o":"m 404 278 q 410 0 404 148 l 339 0 l 340 16 q 347 279 347 222 q 266 520 347 391 q 104 761 184 650 q 24 884 24 871 l 98 884 q 230 675 98 866 q 380 370 361 485 l 386 370 q 426 493 387 417 q 522 651 465 568 q 627 805 578 734 q 675 884 675 876 l 742 884 q 640 726 742 863 q 471 479 537 589 q 404 278 404 370 m 210 1046 q 223 1083 210 1067 q 267 1099 237 1099 q 298 1085 286 1099 q 309 1051 309 1072 q 295 1011 309 1027 q 252 994 281 994 q 221 1009 233 994 q 210 1046 210 1025 m 458 1046 q 470 1083 458 1067 q 509 1099 482 1099 q 542 1086 530 1099 q 554 1051 554 1073 q 541 1011 554 1027 q 500 994 528 994 q 469 1009 481 994 q 458 1046 458 1025 z "},"ά":{"ha":806,"x_min":85,"x_max":764,"o":"m 557 184 l 554 184 q 450 22 515 73 q 307 -29 386 -29 q 144 52 203 -29 q 85 285 85 132 q 167 552 85 438 q 378 665 249 665 q 482 636 433 665 q 576 547 531 608 l 579 547 q 606 659 588 607 l 647 644 q 604 300 604 479 q 625 100 604 159 q 684 40 646 40 q 721 43 698 40 q 764 53 744 47 l 761 1 q 727 -9 747 -5 q 686 -14 706 -14 q 595 32 625 -14 q 557 184 565 77 m 143 315 q 190 99 143 175 q 310 22 236 22 q 486 131 425 22 q 566 464 547 240 q 476 583 526 553 q 372 612 427 612 q 236 559 287 612 q 164 437 184 505 q 143 315 143 369 m 404 757 l 362 757 q 404 847 362 774 q 472 967 446 919 q 498 1023 498 1015 l 589 1023 q 496 894 589 1011 q 404 757 404 777 z "},"έ":{"ha":637,"x_min":93,"x_max":572,"o":"m 161 500 q 221 405 161 440 q 386 370 281 370 q 493 375 450 370 l 482 311 q 386 322 424 322 q 202 290 255 322 q 149 182 149 258 q 202 64 149 101 q 364 26 256 26 q 465 43 410 26 q 572 92 519 60 l 572 37 q 335 -18 482 -18 q 154 33 215 -18 q 93 180 93 84 q 130 287 93 241 q 229 349 167 332 l 229 353 q 140 403 174 363 q 106 494 106 443 q 169 622 106 578 q 366 665 233 665 q 474 660 427 665 q 562 642 521 654 l 551 589 q 363 619 461 619 q 214 588 267 619 q 161 500 161 556 m 367 757 l 325 757 q 367 847 325 774 q 435 967 409 919 q 461 1023 461 1015 l 551 1023 q 459 894 551 1011 q 367 757 367 777 z "},"ή":{"ha":757,"x_min":69,"x_max":653,"o":"m 585 447 q 439 614 585 614 q 210 461 292 614 q 207 171 210 270 q 196 -3 203 73 l 129 3 q 157 311 157 102 q 136 495 157 427 q 69 611 115 563 l 114 659 q 158 589 133 635 q 186 524 183 543 l 192 524 q 306 630 245 593 q 437 667 367 667 q 591 614 543 667 q 640 443 640 562 q 633 306 640 408 q 627 142 627 204 q 632 -113 627 -24 q 653 -290 638 -201 l 595 -300 q 571 102 571 -173 q 578 267 571 157 q 585 447 585 376 m 408 757 l 366 757 q 408 847 366 774 q 476 967 450 919 q 503 1023 503 1015 l 593 1023 q 500 894 593 1011 q 408 757 408 777 z "},"ί":{"ha":354,"x_min":107,"x_max":355,"o":"m 257 32 q 298 37 275 32 q 354 50 321 41 l 349 5 q 254 -14 309 -14 q 139 41 172 -14 q 107 228 107 96 q 114 648 107 512 l 174 660 q 163 485 166 592 q 160 191 160 377 q 182 79 160 125 q 257 32 205 32 m 171 757 l 129 757 q 171 847 129 774 q 239 967 213 919 q 265 1023 265 1015 l 355 1023 q 263 894 355 1011 q 171 757 171 777 z "},"ΰ":{"ha":743,"x_min":102,"x_max":623,"o":"m 345 24 q 448 58 397 24 q 532 176 498 93 q 566 393 566 258 q 549 514 566 448 q 501 653 533 581 l 555 660 q 605 535 587 608 q 623 397 623 462 q 535 91 623 204 q 349 -22 448 -22 q 202 34 258 -22 q 146 264 146 90 q 134 471 146 378 q 102 632 122 564 l 158 660 q 186 511 176 596 q 196 349 196 425 q 240 76 196 128 q 345 24 285 24 m 359 843 l 329 843 q 393 981 329 864 q 456 1111 456 1098 l 547 1111 q 453 980 547 1095 q 359 843 359 865 m 195 838 q 209 878 195 861 q 252 895 223 895 q 284 881 272 895 q 297 846 297 867 q 283 804 297 821 q 241 787 270 787 q 208 802 220 787 q 195 838 195 816 m 410 838 q 424 878 410 861 q 468 895 438 895 q 500 881 488 895 q 512 846 512 867 q 498 804 512 821 q 456 787 485 787 q 422 802 435 787 q 410 838 410 816 z "},"α":{"ha":806,"x_min":85,"x_max":764,"o":"m 557 184 l 554 184 q 450 22 515 73 q 307 -29 386 -29 q 144 52 203 -29 q 85 285 85 132 q 167 552 85 438 q 378 665 249 665 q 482 636 433 665 q 576 547 531 608 l 579 547 q 606 659 588 607 l 647 644 q 604 300 604 479 q 625 100 604 159 q 684 40 646 40 q 721 43 698 40 q 764 53 744 47 l 761 1 q 727 -9 747 -5 q 686 -14 706 -14 q 595 32 625 -14 q 557 184 565 77 m 143 315 q 190 99 143 175 q 310 22 236 22 q 486 131 425 22 q 566 464 547 240 q 476 583 526 553 q 372 612 427 612 q 236 559 287 612 q 164 437 184 505 q 143 315 143 369 z "},"β":{"ha":747,"x_min":114,"x_max":692,"o":"m 389 974 q 546 928 479 974 q 612 791 612 882 q 574 672 612 720 q 461 600 536 625 l 461 596 q 625 496 558 577 q 692 304 692 415 q 608 69 692 159 q 397 -21 525 -21 q 264 -5 317 -21 q 183 32 211 10 l 175 32 q 214 -309 178 -188 l 155 -323 q 125 -84 136 -269 q 114 554 114 100 q 177 872 114 771 q 389 974 239 974 m 551 781 q 504 886 551 848 q 368 924 456 924 q 218 843 269 924 q 167 532 167 762 q 172 92 167 278 q 272 47 217 64 q 378 31 328 31 q 569 89 511 31 q 627 293 627 148 q 549 491 627 416 q 350 567 471 567 q 289 564 326 567 l 294 627 l 321 623 q 367 621 342 621 q 498 668 446 621 q 551 781 551 716 z "},"γ":{"ha":693,"x_min":29,"x_max":652,"o":"m 357 -31 q 375 -298 375 -175 l 322 -313 q 302 -237 311 -285 q 293 -136 293 -189 q 299 -33 293 -72 q 306 10 306 6 q 298 76 306 14 q 275 196 290 137 q 240 310 260 256 q 190 418 219 365 q 123 518 160 472 q 29 607 79 572 l 64 657 q 261 412 183 578 q 350 37 339 246 l 353 37 q 482 304 439 211 q 551 487 524 397 q 578 659 578 577 l 652 644 q 357 -31 652 488 z "},"δ":{"ha":770,"x_min":86,"x_max":681,"o":"m 207 856 q 241 792 207 818 q 387 693 276 767 q 549 572 498 619 q 641 455 600 525 q 681 310 681 386 q 592 69 681 165 q 371 -26 503 -26 q 166 61 246 -26 q 86 288 86 149 q 165 521 86 427 q 355 644 245 616 l 355 648 q 193 761 233 720 q 153 847 153 803 q 218 947 153 913 q 415 982 284 982 q 665 935 560 982 l 648 878 q 539 917 593 905 q 407 929 485 929 q 258 909 309 929 q 207 856 207 890 m 382 20 q 554 94 490 20 q 618 290 618 168 q 399 615 618 474 q 208 493 269 567 q 147 300 147 419 q 214 101 147 183 q 382 20 281 20 z "},"ε":{"ha":637,"x_min":93,"x_max":572,"o":"m 161 500 q 221 405 161 440 q 386 370 281 370 q 493 375 450 370 l 482 311 q 386 322 424 322 q 202 290 255 322 q 149 182 149 258 q 202 64 149 101 q 364 26 256 26 q 465 43 410 26 q 572 92 519 60 l 572 37 q 335 -18 482 -18 q 154 33 215 -18 q 93 180 93 84 q 130 287 93 241 q 229 349 167 332 l 229 353 q 140 403 174 363 q 106 494 106 443 q 169 622 106 578 q 366 665 233 665 q 474 660 427 665 q 562 642 521 654 l 551 589 q 363 619 461 619 q 214 588 267 619 q 161 500 161 556 z "},"ζ":{"ha":607,"x_min":86,"x_max":566,"o":"m 546 932 q 235 626 328 781 q 143 301 143 471 q 184 149 143 203 q 359 65 226 95 l 386 60 q 480 35 446 47 q 540 -7 515 22 q 566 -90 566 -37 q 515 -249 566 -152 l 485 -237 l 493 -201 q 506 -137 502 -163 q 510 -87 510 -112 q 370 9 510 -16 q 158 93 229 34 q 86 278 86 151 q 178 617 86 453 q 449 909 271 782 l 449 914 q 332 895 395 901 q 170 889 269 889 l 176 940 q 524 970 395 940 l 546 932 z "},"η":{"ha":757,"x_min":69,"x_max":653,"o":"m 585 447 q 439 614 585 614 q 210 461 292 614 q 207 171 210 270 q 196 -3 203 73 l 129 3 q 157 311 157 102 q 136 495 157 427 q 69 611 115 563 l 114 659 q 158 589 133 635 q 186 524 183 543 l 192 524 q 306 630 245 593 q 437 667 367 667 q 591 614 543 667 q 640 443 640 562 q 633 306 640 408 q 627 142 627 204 q 632 -113 627 -24 q 653 -290 638 -201 l 595 -300 q 571 102 571 -173 q 578 267 571 157 q 585 447 585 376 z "},"θ":{"ha":799,"x_min":86,"x_max":710,"o":"m 380 -33 q 172 91 258 -33 q 86 452 86 216 q 180 834 86 690 q 414 978 275 978 q 575 908 502 978 q 680 725 649 839 q 710 489 710 611 q 613 99 710 232 q 380 -33 515 -33 m 142 505 l 650 505 q 574 821 638 709 q 400 932 510 932 q 219 813 281 932 q 142 505 157 695 m 653 454 l 142 454 q 216 124 149 237 q 400 12 283 12 q 585 133 516 12 q 653 454 653 254 z "},"ι":{"ha":354,"x_min":107,"x_max":354,"o":"m 257 32 q 298 37 275 32 q 354 50 321 41 l 349 5 q 254 -14 309 -14 q 139 41 172 -14 q 107 228 107 96 q 114 648 107 512 l 174 660 q 163 485 166 592 q 160 191 160 377 q 182 79 160 125 q 257 32 205 32 z "},"κ":{"ha":757,"x_min":117,"x_max":648,"o":"m 204 350 q 196 157 204 252 l 197 157 q 403 418 220 210 q 586 659 586 625 l 648 644 q 596 561 648 625 q 424 368 543 496 l 424 364 q 593 113 541 199 q 644 7 644 26 l 583 -14 q 386 329 583 29 l 382 330 q 171 -7 219 160 l 117 5 q 143 140 134 50 q 153 334 153 231 q 132 637 153 513 l 207 659 q 204 480 204 616 l 204 350 z "},"λ":{"ha":715,"x_min":65,"x_max":684,"o":"m 404 559 l 399 559 q 378 505 399 545 q 300 370 357 465 l 254 290 q 158 105 189 180 q 126 -7 126 31 l 65 7 q 229 346 65 78 q 397 624 393 613 q 371 783 389 701 q 330 890 354 865 q 235 914 307 914 q 175 909 208 914 q 135 899 142 903 l 140 945 q 249 960 186 960 q 341 944 309 960 q 388 906 374 928 q 417 807 402 884 q 439 645 433 730 q 459 480 446 561 q 493 322 472 399 q 539 191 514 245 q 610 89 564 136 q 684 31 656 42 l 644 -20 q 483 178 539 47 q 404 559 426 309 z "},"μ":{"ha":812,"x_min":144,"x_max":783,"o":"m 395 33 q 586 127 507 33 q 571 644 586 511 l 640 659 q 635 511 635 588 q 637 416 635 478 l 637 326 q 646 109 637 180 q 711 37 654 37 q 783 52 748 37 l 778 1 q 693 -14 732 -14 q 631 7 656 -14 q 595 69 607 27 l 590 69 q 492 7 545 28 q 390 -14 439 -14 q 203 96 250 -14 l 200 96 q 202 -106 200 14 q 243 -294 205 -227 l 197 -335 q 159 -250 170 -289 q 149 -154 149 -212 q 151 -44 149 -121 l 153 0 l 157 82 q 160 179 160 141 l 160 248 q 157 473 160 383 q 144 648 155 564 l 214 659 q 210 427 210 605 q 214 242 210 339 q 267 89 218 144 q 395 33 315 33 z "},"ν":{"ha":693,"x_min":47,"x_max":586,"o":"m 340 82 l 343 82 q 461 285 431 216 q 508 416 492 353 q 524 589 524 479 l 524 652 l 567 659 q 586 536 586 615 q 561 396 586 475 q 494 245 536 316 q 400 95 453 174 q 343 0 347 16 l 301 0 q 215 340 291 151 q 47 618 138 530 l 89 668 q 240 420 153 624 q 340 82 326 216 z "},"ξ":{"ha":621,"x_min":79,"x_max":558,"o":"m 361 562 q 476 570 398 562 l 472 507 q 361 515 412 515 q 200 449 263 515 q 138 293 138 382 q 183 136 138 179 q 361 63 229 94 q 526 1 493 33 q 558 -90 558 -31 q 509 -249 558 -153 l 478 -237 l 485 -207 q 498 -138 494 -164 q 503 -86 503 -112 q 392 2 503 -23 q 215 56 281 27 q 114 135 149 85 q 79 273 79 186 q 132 439 79 363 q 265 536 184 514 l 265 539 q 181 583 214 543 q 147 681 147 622 q 390 921 147 832 l 390 925 q 264 907 351 916 q 114 899 178 899 l 119 950 q 524 979 406 950 l 543 928 q 203 686 203 840 q 240 592 203 623 q 361 562 278 562 z "},"ο":{"ha":777,"x_min":86,"x_max":688,"o":"m 374 -26 q 169 60 251 -26 q 86 297 86 146 q 178 572 86 471 q 404 673 271 673 q 599 592 510 673 q 688 346 688 511 q 595 74 688 174 q 374 -26 503 -26 m 386 628 q 203 532 261 628 q 144 328 144 436 q 211 106 144 192 q 387 20 277 20 q 571 116 511 20 q 631 319 631 212 q 563 540 631 452 q 386 628 495 628 z "},"π":{"ha":857,"x_min":7,"x_max":782,"o":"m 237 595 l 163 595 q 25 562 102 595 l 7 600 q 71 634 34 623 q 160 644 109 644 q 782 652 536 644 l 778 586 q 546 595 665 595 q 542 296 542 466 q 567 96 542 155 q 652 37 593 37 q 704 41 675 37 q 753 50 732 44 l 746 1 q 653 -14 703 -14 q 532 43 576 -14 q 489 271 489 99 q 504 590 489 402 l 504 595 l 286 595 q 237 234 269 380 q 154 -7 205 87 l 93 7 q 152 132 117 39 q 203 329 186 224 q 237 595 220 433 z "},"ρ":{"ha":749,"x_min":102,"x_max":663,"o":"m 395 660 q 515 628 452 660 q 620 518 578 597 q 663 338 663 439 q 582 87 663 192 q 368 -18 500 -18 q 249 6 304 -18 q 164 71 194 31 l 160 71 q 201 -309 160 -166 l 139 -323 q 102 314 102 -140 q 178 582 102 503 q 395 660 255 660 m 604 311 q 535 529 604 444 q 364 614 466 614 q 208 538 261 614 q 155 317 155 463 q 157 158 155 203 q 251 61 195 94 q 370 28 306 28 q 544 108 484 28 q 604 311 604 188 z "},"ς":{"ha":621,"x_min":86,"x_max":504,"o":"m 144 332 q 186 168 144 233 q 318 74 228 104 q 456 10 408 43 q 504 -97 504 -23 q 488 -176 504 -134 q 452 -249 472 -219 l 421 -239 q 439 -172 432 -209 q 447 -109 447 -134 q 425 -37 447 -62 q 328 11 403 -13 q 195 76 252 35 q 112 173 138 117 q 86 306 86 228 q 157 559 86 462 q 386 656 229 656 q 504 640 463 656 l 492 574 q 357 599 420 599 q 200 526 256 599 q 144 332 144 453 z "},"σ":{"ha":804,"x_min":86,"x_max":823,"o":"m 345 -26 q 158 63 230 -26 q 86 297 86 153 q 174 559 86 460 q 390 659 261 659 q 802 699 675 659 l 823 663 q 691 624 761 633 q 529 614 622 614 l 529 603 q 615 479 587 556 q 644 315 644 403 q 561 74 644 174 q 345 -26 477 -26 m 476 595 q 390 608 439 608 q 211 531 277 608 q 144 328 144 454 q 204 104 144 188 q 359 20 264 20 q 523 95 465 20 q 581 301 581 170 q 554 461 581 385 q 476 595 528 537 z "},"τ":{"ha":672,"x_min":4,"x_max":612,"o":"m 315 595 q 313 453 315 530 l 312 380 q 311 278 312 336 q 335 80 311 123 q 428 37 359 37 q 486 42 456 37 q 530 53 515 47 l 528 1 q 408 -14 469 -14 q 296 37 333 -14 q 258 235 258 87 q 262 417 258 318 q 273 590 267 515 l 273 595 l 150 595 q 91 586 126 595 q 24 562 55 576 l 4 600 q 69 634 33 623 q 143 644 106 644 q 612 652 404 644 l 607 589 q 514 593 589 591 q 315 595 439 595 z "},"υ":{"ha":743,"x_min":102,"x_max":623,"o":"m 345 24 q 448 58 397 24 q 532 176 498 93 q 566 393 566 258 q 549 514 566 448 q 501 653 533 581 l 555 660 q 605 535 587 608 q 623 397 623 462 q 535 91 623 204 q 349 -22 448 -22 q 202 34 258 -22 q 146 264 146 90 q 134 471 146 378 q 102 632 122 564 l 158 660 q 186 511 176 596 q 196 349 196 425 q 240 76 196 128 q 345 24 285 24 z "},"φ":{"ha":1042,"x_min":75,"x_max":968,"o":"m 492 35 q 483 194 487 104 q 479 342 479 285 q 519 548 479 480 q 610 644 558 615 q 724 673 661 673 q 910 601 852 673 q 968 392 968 528 q 844 111 968 226 q 546 -14 721 -5 q 547 -127 547 -47 q 538 -332 547 -225 l 482 -329 q 490 -262 482 -326 q 497 -163 497 -198 l 496 -77 q 496 -14 496 -56 q 193 75 310 -7 q 75 338 75 156 q 140 556 75 469 q 353 677 205 643 l 367 629 q 196 540 258 612 q 134 364 134 467 q 215 128 134 203 q 492 35 297 52 m 909 393 q 859 567 909 507 q 717 627 808 627 q 577 556 623 627 q 532 338 532 486 q 535 184 532 266 q 545 35 538 102 q 804 132 699 43 q 909 393 909 221 z "},"χ":{"ha":700,"x_min":17,"x_max":703,"o":"m 696 -315 q 608 -328 663 -328 q 471 -205 517 -328 q 401 -13 425 -82 q 340 153 377 56 q 150 -109 217 13 q 82 -323 82 -231 l 26 -310 q 101 -99 26 -224 q 325 197 176 26 q 283 322 300 275 q 247 420 267 368 l 237 446 q 174 573 205 535 q 98 611 143 611 q 40 610 56 611 q 17 604 24 608 l 22 647 q 103 663 39 663 q 274 498 216 663 q 363 228 332 333 q 516 503 475 398 q 558 659 558 607 l 615 644 q 551 459 615 587 q 378 182 487 332 q 479 -83 436 41 q 555 -242 523 -207 q 631 -277 588 -277 q 673 -274 652 -277 q 703 -265 693 -271 l 696 -315 z "},"ψ":{"ha":1011,"x_min":102,"x_max":909,"o":"m 542 359 l 541 168 q 542 46 541 89 q 722 100 652 54 q 822 228 792 145 q 852 399 852 311 q 837 518 852 463 q 790 644 821 574 l 843 652 q 909 382 909 543 q 863 196 909 282 q 738 58 817 110 q 541 -5 659 5 q 547 -302 541 -204 l 481 -321 q 487 -61 487 -158 l 486 -5 q 278 44 355 3 q 173 171 202 85 q 144 357 144 258 q 131 493 144 410 q 102 632 118 576 l 157 659 q 186 520 174 606 q 197 346 197 435 q 217 218 197 283 q 274 118 237 153 q 363 65 310 83 q 488 45 417 46 q 487 151 488 79 l 488 359 q 479 960 488 768 l 546 960 q 542 593 542 841 l 542 359 z "},"ω":{"ha":1046,"x_min":77,"x_max":968,"o":"m 720 -25 q 616 2 666 -25 q 530 81 567 30 l 517 81 q 438 3 488 31 q 328 -24 388 -24 q 141 66 206 -24 q 77 301 77 155 q 131 497 77 402 q 286 659 184 591 l 293 610 q 174 472 214 548 q 135 302 135 395 q 177 111 135 200 q 343 22 219 22 q 435 53 395 22 q 501 139 475 83 l 501 153 q 488 245 490 200 q 485 382 485 290 q 503 568 485 503 l 526 575 q 548 486 538 549 q 558 376 558 423 q 546 153 558 189 l 546 139 q 621 52 576 83 q 715 21 666 21 q 862 82 814 21 q 909 272 909 142 q 874 454 909 380 q 747 603 838 528 l 766 652 q 968 300 968 515 q 720 -25 968 -25 z "},"ϊ":{"ha":354,"x_min":-18,"x_max":354,"o":"m 257 32 q 298 37 275 32 q 354 50 321 41 l 349 5 q 254 -14 309 -14 q 139 41 172 -14 q 107 228 107 96 q 114 648 107 512 l 174 660 q 163 485 166 592 q 160 191 160 377 q 182 79 160 125 q 257 32 205 32 m -18 840 q -4 880 -18 863 q 39 897 9 897 q 70 883 58 897 q 81 848 81 869 q 67 808 81 825 q 24 791 54 791 q -6 806 5 791 q -18 840 -18 820 m 230 840 q 242 880 230 863 q 281 897 255 897 q 314 884 302 897 q 326 848 326 870 q 313 808 326 825 q 272 791 300 791 q 241 806 253 791 q 230 840 230 820 z "},"ϋ":{"ha":743,"x_min":102,"x_max":623,"o":"m 345 24 q 448 58 397 24 q 532 176 498 93 q 566 393 566 258 q 549 514 566 448 q 501 653 533 581 l 555 660 q 605 535 587 608 q 623 397 623 462 q 535 91 623 204 q 349 -22 448 -22 q 202 34 258 -22 q 146 264 146 90 q 134 471 146 378 q 102 632 122 564 l 158 660 q 186 511 176 596 q 196 349 196 425 q 240 76 196 128 q 345 24 285 24 m 168 840 q 182 880 168 863 q 225 897 196 897 q 256 883 245 897 q 268 848 268 869 q 254 808 268 825 q 211 791 240 791 q 180 806 192 791 q 168 840 168 820 m 416 840 q 429 880 416 863 q 468 897 441 897 q 501 884 489 897 q 513 848 513 870 q 499 808 513 825 q 458 791 486 791 q 428 806 439 791 q 416 840 416 820 z "},"ό":{"ha":777,"x_min":86,"x_max":688,"o":"m 374 -26 q 169 60 251 -26 q 86 297 86 146 q 178 572 86 471 q 404 673 271 673 q 599 592 510 673 q 688 346 688 511 q 595 74 688 174 q 374 -26 503 -26 m 386 628 q 203 532 261 628 q 144 328 144 436 q 211 106 144 192 q 387 20 277 20 q 571 116 511 20 q 631 319 631 212 q 563 540 631 452 q 386 628 495 628 m 403 757 l 361 757 q 403 847 361 774 q 471 967 445 919 q 497 1023 497 1015 l 587 1023 q 495 894 587 1011 q 403 757 403 777 z "},"ύ":{"ha":743,"x_min":102,"x_max":623,"o":"m 345 24 q 448 58 397 24 q 532 176 498 93 q 566 393 566 258 q 549 514 566 448 q 501 653 533 581 l 555 660 q 605 535 587 608 q 623 397 623 462 q 535 91 623 204 q 349 -22 448 -22 q 202 34 258 -22 q 146 264 146 90 q 134 471 146 378 q 102 632 122 564 l 158 660 q 186 511 176 596 q 196 349 196 425 q 240 76 196 128 q 345 24 285 24 m 342 757 l 300 757 q 342 847 300 774 q 410 967 384 919 q 436 1023 436 1015 l 526 1023 q 434 894 526 1011 q 342 757 342 777 z "},"ώ":{"ha":1046,"x_min":77,"x_max":968,"o":"m 720 -25 q 616 2 666 -25 q 530 81 567 30 l 517 81 q 438 3 488 31 q 328 -24 388 -24 q 141 66 206 -24 q 77 301 77 155 q 131 497 77 402 q 286 659 184 591 l 293 610 q 174 472 214 548 q 135 302 135 395 q 177 111 135 200 q 343 22 219 22 q 435 53 395 22 q 501 139 475 83 l 501 153 q 488 245 490 200 q 485 382 485 290 q 503 568 485 503 l 526 575 q 548 486 538 549 q 558 376 558 423 q 546 153 558 189 l 546 139 q 621 52 576 83 q 715 21 666 21 q 862 82 814 21 q 909 272 909 142 q 874 454 909 380 q 747 603 838 528 l 766 652 q 968 300 968 515 q 720 -25 968 -25 m 535 757 l 493 757 q 535 847 493 774 q 603 967 577 919 q 629 1023 629 1015 l 720 1023 q 627 894 720 1011 q 535 757 535 777 z "},"ϰ":{"ha":696,"x_min":17,"x_max":677,"o":"m 157 -16 l 89 -8 q 137 206 96 24 q 178 510 178 388 q 155 583 178 559 q 93 607 133 607 q 53 603 77 607 l 25 597 l 17 646 q 103 659 68 659 q 201 618 174 659 q 229 517 229 577 q 203 314 229 452 q 138 43 176 176 q 358 374 238 190 q 538 659 479 559 l 606 652 q 557 430 598 612 q 517 134 517 248 q 539 60 517 85 q 602 36 562 36 q 669 46 621 36 l 677 -3 q 591 -16 623 -16 q 493 25 521 -16 q 465 126 465 66 q 493 330 465 189 q 557 602 520 471 q 352 281 500 502 q 157 -16 203 60 z "},"ϱ":{"ha":749,"x_min":102,"x_max":663,"o":"m 102 314 q 178 582 102 503 q 395 660 255 660 q 515 628 452 660 q 620 518 578 597 q 663 338 663 439 q 582 87 663 192 q 368 -18 500 -18 q 249 6 304 -18 q 164 71 194 31 l 160 71 q 217 -197 169 -121 q 395 -272 265 -272 q 498 -268 454 -272 q 586 -257 541 -264 l 581 -314 q 501 -319 541 -318 q 399 -321 460 -321 q 208 -274 267 -321 q 125 -94 149 -227 q 102 314 102 38 m 604 311 q 535 529 604 444 q 364 614 466 614 q 208 538 261 614 q 155 317 155 463 q 157 158 155 203 q 251 61 195 94 q 370 28 306 28 q 544 108 484 28 q 604 311 604 188 z "},"Ѐ":{"ha":715,"x_min":151,"x_max":675,"o":"m 151 0 l 156 142 q 164 465 164 347 q 158 732 164 589 q 151 884 152 875 l 632 884 l 629 828 q 212 833 479 833 q 215 489 215 683 q 549 497 428 489 l 549 436 q 215 443 387 443 l 215 293 q 218 49 215 147 q 675 60 469 49 l 672 0 l 151 0 m 191 1146 l 290 1146 q 307 1117 290 1142 q 373 1032 324 1092 q 422 960 422 972 l 379 960 q 281 1055 372 971 q 191 1146 191 1139 z "},"Ё":{"ha":715,"x_min":151,"x_max":675,"o":"m 151 0 l 156 142 q 164 465 164 347 q 158 732 164 589 q 151 884 152 875 l 632 884 l 629 828 q 212 833 479 833 q 215 489 215 683 q 549 497 428 489 l 549 436 q 215 443 387 443 l 215 293 q 218 49 215 147 q 675 60 469 49 l 672 0 l 151 0 m 248 1046 q 261 1083 248 1067 q 304 1099 275 1099 q 336 1085 324 1099 q 347 1051 347 1072 q 333 1011 347 1027 q 290 994 319 994 q 259 1009 271 994 q 248 1046 248 1025 m 496 1046 q 508 1083 496 1067 q 547 1099 520 1099 q 580 1086 568 1099 q 592 1051 592 1073 q 579 1011 592 1027 q 538 994 566 994 q 507 1009 519 994 q 496 1046 496 1025 z "},"Ђ":{"ha":873,"x_min":16,"x_max":818,"o":"m 347 492 q 457 496 418 496 q 638 480 562 496 q 766 415 715 465 q 818 269 818 366 q 711 64 818 137 q 431 -8 605 -8 l 429 40 q 674 93 583 40 q 765 256 765 145 q 701 399 765 353 q 456 444 637 444 q 397 444 416 444 q 363 441 378 443 q 347 440 361 441 q 348 206 347 311 q 351 0 349 101 l 285 0 l 287 61 q 292 276 290 176 q 294 465 294 376 q 288 833 294 662 q 153 831 258 833 l 16 827 l 16 884 l 675 884 l 672 828 l 578 830 q 353 833 401 833 q 347 492 347 696 z "},"Ѓ":{"ha":665,"x_min":151,"x_max":640,"o":"m 636 828 q 212 833 500 833 q 215 469 215 688 q 217 171 215 296 q 222 0 220 47 l 151 0 l 159 249 q 163 465 163 357 q 160 661 163 570 q 151 884 157 752 l 640 884 l 636 828 m 366 960 l 319 960 q 388 1055 319 970 q 456 1146 456 1139 l 551 1146 q 461 1054 551 1137 q 366 960 371 972 z "},"Є":{"ha":771,"x_min":79,"x_max":733,"o":"m 142 496 q 559 493 360 496 l 559 443 q 138 449 334 449 q 225 135 138 239 q 498 31 312 31 q 733 65 592 31 l 725 9 q 587 -12 643 -5 q 484 -18 531 -18 q 182 97 284 -18 q 79 422 79 212 q 197 764 79 631 q 526 896 315 896 q 707 875 628 896 l 692 815 q 596 834 643 829 q 498 840 550 840 q 256 757 351 840 q 142 496 161 674 z "},"Ѕ":{"ha":693,"x_min":81,"x_max":614,"o":"m 144 692 q 160 613 144 642 q 218 554 176 584 q 336 495 260 524 q 468 438 411 467 q 556 375 525 408 q 601 304 588 341 q 614 218 614 267 q 532 40 614 100 q 293 -20 450 -20 q 81 7 170 -20 l 94 71 q 202 40 152 49 q 310 32 253 32 q 498 74 437 32 q 558 212 558 116 q 511 336 558 288 q 330 434 465 385 q 142 537 195 483 q 89 673 89 591 q 164 835 89 774 q 347 896 239 896 q 554 872 469 896 l 541 815 q 434 837 477 830 q 343 843 390 843 q 196 800 248 843 q 144 692 144 757 z "},"І":{"ha":379,"x_min":151,"x_max":222,"o":"m 151 0 q 163 465 163 302 q 151 884 163 654 l 222 884 q 215 467 215 722 q 222 0 215 239 l 151 0 z "},"Ї":{"ha":379,"x_min":25,"x_max":370,"o":"m 151 0 q 163 465 163 302 q 151 884 163 654 l 222 884 q 215 467 215 722 q 222 0 215 239 l 151 0 m 25 1046 q 39 1083 25 1067 q 82 1099 52 1099 q 113 1085 102 1099 q 125 1051 125 1072 q 111 1011 125 1027 q 68 994 97 994 q 37 1009 49 994 q 25 1046 25 1025 m 273 1046 q 286 1083 273 1067 q 325 1099 298 1099 q 358 1086 346 1099 q 370 1051 370 1073 q 356 1011 370 1027 q 315 994 343 994 q 285 1009 296 994 q 273 1046 273 1025 z "},"Ј":{"ha":554,"x_min":24,"x_max":454,"o":"m 450 315 q 377 64 450 146 q 158 -18 303 -18 q 24 -4 68 -18 l 31 54 q 144 31 86 31 q 338 95 281 31 q 395 347 395 159 q 383 884 395 688 l 454 884 q 450 544 450 771 l 450 315 z "},"Љ":{"ha":1173,"x_min":5,"x_max":1117,"o":"m 746 -4 l 650 -2 l 587 0 q 595 465 595 260 q 593 616 595 517 q 592 755 592 715 q 593 836 592 809 l 419 836 q 332 532 404 739 q 173 160 260 324 q 12 -11 86 -3 l 5 57 q 215 369 92 79 q 375 884 338 659 l 653 884 q 646 524 646 722 q 755 528 717 528 q 1117 283 1117 528 q 1072 128 1117 191 q 940 31 1027 66 q 746 -4 852 -4 m 754 476 q 697 475 715 476 q 666 473 680 475 q 648 472 663 473 l 648 248 q 650 52 648 106 q 753 45 680 45 q 980 102 895 45 q 1064 268 1064 160 q 983 430 1064 384 q 754 476 902 476 z "},"Њ":{"ha":1183,"x_min":151,"x_max":1128,"o":"m 757 -4 l 659 -2 l 599 0 q 606 443 606 225 l 215 443 q 222 0 215 239 l 151 0 q 163 465 163 302 q 151 884 163 654 l 222 884 q 215 486 215 722 l 606 486 q 595 884 606 679 l 664 884 q 657 493 657 718 q 766 497 727 497 q 947 481 870 497 q 1076 415 1024 465 q 1128 269 1128 366 q 1011 52 1128 108 q 757 -4 894 -4 m 765 446 q 708 445 726 446 q 677 443 690 444 l 660 441 l 660 233 q 661 52 660 106 q 764 45 690 45 q 989 94 904 45 q 1075 254 1075 142 q 1008 400 1075 354 q 765 446 941 446 z "},"Ћ":{"ha":888,"x_min":16,"x_max":823,"o":"m 757 0 q 762 256 762 98 q 746 379 762 340 q 687 435 730 419 q 553 450 643 450 q 347 440 472 450 q 348 206 347 311 q 351 0 349 101 l 285 0 l 287 61 q 292 276 290 176 q 294 465 294 376 q 288 833 294 662 q 153 831 258 833 l 16 827 l 16 884 l 675 884 l 672 828 l 578 830 q 353 833 401 833 q 347 489 347 696 q 554 498 513 498 q 702 484 646 498 q 788 419 758 469 q 818 269 818 370 q 819 110 818 158 q 823 0 819 62 l 757 0 z "},"Ќ":{"ha":827,"x_min":151,"x_max":750,"o":"m 750 0 l 677 0 q 643 120 665 33 q 586 280 621 208 q 479 397 551 352 q 323 441 408 441 q 248 440 277 441 q 215 439 218 439 q 222 0 215 216 l 151 0 q 163 465 163 302 q 151 884 163 654 l 222 884 q 215 489 215 730 q 323 486 254 486 q 513 556 429 486 q 635 831 597 626 l 642 854 q 653 884 650 880 l 720 884 q 648 667 695 814 q 454 464 600 519 l 454 457 q 562 403 516 439 q 643 290 608 368 q 721 82 677 212 l 750 0 m 410 960 l 364 960 q 432 1055 364 970 q 500 1146 500 1139 l 596 1146 q 506 1054 596 1137 q 410 960 416 972 z "},"Ѝ":{"ha":932,"x_min":151,"x_max":779,"o":"m 208 126 l 214 126 q 418 410 235 179 q 667 749 602 642 q 733 884 733 857 l 779 884 q 768 419 768 647 q 778 0 768 209 l 710 0 q 718 161 715 65 q 720 412 720 258 q 722 755 720 506 l 718 755 q 506 446 699 689 q 256 112 314 203 q 199 0 199 21 l 151 0 q 163 419 163 254 q 153 884 163 606 l 220 884 q 212 688 214 794 q 210 435 210 582 q 208 126 210 229 m 280 1146 l 379 1146 q 396 1117 379 1142 q 462 1032 413 1092 q 511 960 511 972 l 468 960 q 370 1055 460 971 q 280 1146 280 1139 z "},"Ў":{"ha":686,"x_min":-1,"x_max":685,"o":"m 57 -11 l 60 39 q 168 54 125 39 q 252 112 212 68 q 343 257 293 156 q 255 441 343 286 q 97 715 167 597 l 46 800 q 19 846 39 812 q -1 884 -1 879 l 71 884 q 171 697 71 867 q 324 426 271 527 q 378 314 378 325 l 382 314 q 551 675 486 514 q 616 884 616 836 l 685 884 q 587 629 685 848 q 396 245 489 411 q 237 34 304 79 q 57 -11 171 -11 m 176 1139 l 218 1146 q 361 999 218 999 q 463 1039 426 999 q 504 1146 500 1079 l 540 1136 q 485 1007 540 1059 q 359 956 430 956 q 224 1003 272 956 q 176 1139 176 1051 z "},"Џ":{"ha":879,"x_min":157,"x_max":724,"o":"m 218 47 l 664 47 l 665 410 q 657 884 665 684 l 724 884 q 717 389 717 519 q 724 0 717 263 l 469 0 q 453 -282 453 -191 l 422 -282 q 418 -170 422 -232 q 404 0 414 -107 l 157 0 q 165 389 165 220 q 157 884 165 578 l 225 884 q 218 427 218 722 l 218 47 z "},"А":{"ha":840,"x_min":7,"x_max":833,"o":"m 199 322 q 108 100 136 177 q 79 0 79 22 l 7 0 q 196 431 7 22 q 385 884 385 840 l 461 884 q 647 440 461 844 q 833 0 833 36 l 764 0 q 642 322 764 44 l 199 322 m 422 828 l 416 828 q 215 367 416 808 l 621 367 q 471 709 520 602 q 422 828 422 817 z "},"Б":{"ha":770,"x_min":153,"x_max":714,"o":"m 668 828 q 212 833 456 833 q 214 705 212 838 q 215 503 215 572 q 353 507 298 507 q 611 456 508 507 q 714 273 714 404 q 647 98 714 159 q 495 16 580 36 q 329 -4 410 -4 q 153 0 301 -4 l 155 86 q 161 288 159 195 q 163 465 163 382 q 156 780 163 571 l 153 884 l 668 884 l 668 828 m 215 237 q 216 52 215 106 q 263 47 230 49 q 336 45 296 45 q 576 100 488 45 q 664 258 664 155 q 584 409 664 363 q 351 456 504 456 q 272 455 298 456 q 215 452 247 454 l 215 237 z "},"В":{"ha":798,"x_min":151,"x_max":718,"o":"m 151 0 l 156 142 q 164 465 164 347 q 162 613 164 535 q 157 782 160 692 l 153 884 l 210 884 q 288 886 241 884 l 332 887 q 389 888 358 887 q 590 839 523 888 q 657 694 657 791 q 619 565 657 621 q 519 484 581 510 l 519 479 q 664 415 609 469 q 718 276 718 361 q 612 68 718 141 q 334 -4 507 -4 q 151 0 300 -4 m 211 833 q 214 742 214 821 q 215 504 215 663 q 329 503 243 503 l 358 502 q 522 537 447 502 q 602 679 597 572 q 549 798 602 759 q 383 838 496 838 q 266 836 315 838 q 211 833 216 833 m 215 450 l 214 250 q 218 53 214 122 q 325 45 254 45 q 571 98 479 45 q 663 258 663 152 q 588 404 663 353 q 346 456 513 456 q 267 455 293 456 q 215 450 241 454 z "},"Г":{"ha":676,"x_min":151,"x_max":640,"o":"m 636 828 q 212 833 500 833 q 215 469 215 688 q 217 171 215 296 q 222 0 220 47 l 151 0 l 159 249 q 163 465 163 357 q 160 661 163 570 q 151 884 157 752 l 640 884 l 636 828 z "},"Д":{"ha":880,"x_min":7,"x_max":836,"o":"m 800 -282 l 772 -282 q 768 0 772 -131 q 627 3 721 3 q 418 4 532 4 l 285 4 q 74 0 143 4 q 35 -282 35 -200 l 11 -282 q 8 -92 8 -130 q 7 49 7 -14 l 57 49 q 389 884 178 399 l 700 884 q 692 457 692 646 q 699 49 692 273 l 836 49 q 818 -109 836 -18 q 800 -282 800 -199 m 640 274 l 640 439 l 640 663 q 639 844 640 727 l 425 844 q 233 376 314 583 q 111 49 153 170 l 640 49 q 639 157 639 114 q 640 274 639 232 z "},"Е":{"ha":715,"x_min":151,"x_max":675,"o":"m 151 0 l 156 142 q 164 465 164 347 q 158 732 164 589 q 151 884 152 875 l 632 884 l 629 828 q 212 833 479 833 q 215 489 215 683 q 549 497 428 489 l 549 436 q 215 443 387 443 l 215 293 q 218 49 215 147 q 675 60 469 49 l 672 0 l 151 0 z "}}}
